<?xml version="1.0" standalone="no"?>
<!DOCTYPE svg PUBLIC "-//W3C//DTD SVG 1.1//EN" "http://www.w3.org/Graphics/SVG/1.1/DTD/svg11.dtd" >
<svg xmlns="http://www.w3.org/2000/svg" xmlns:xlink="http://www.w3.org/1999/xlink" version="1.1">
<metadata>
Created by FontForge 20161003 at Tue Dec 18 05:23:49 2018
 By www-data
Copyright (c) 2017 by Brittney Murphy. All rights reserved.
</metadata>
<defs>
<font id="AsparagusSprouts" horiz-adv-x="355" >
  <font-face 
    font-family="AsparagusSprouts"
    font-weight="400"
    font-stretch="normal"
    units-per-em="1000"
    panose-1="0 0 0 0 0 0 0 0 0 0"
    ascent="752"
    descent="-248"
    x-height="329.5"
    cap-height="576"
    bbox="-113.778 -240.615 691 744"
    underline-thickness="50"
    underline-position="-150"
    unicode-range="U+000D-FB00"
  />
<missing-glyph horiz-adv-x="177" 
 />
    <glyph glyph-name=".notdef" horiz-adv-x="177" 
 />
    <glyph glyph-name=".null" horiz-adv-x="0" 
 />
    <glyph glyph-name="nonmarkingreturn" unicode="&#xd;" horiz-adv-x="177" 
 />
    <glyph glyph-name="NULL" horiz-adv-x="0" 
 />
    <glyph glyph-name="NULL" horiz-adv-x="0" 
 />
    <glyph glyph-name="space" unicode=" " horiz-adv-x="177" 
 />
    <glyph glyph-name="exclam" unicode="!" horiz-adv-x="188" 
d="M44 559q0 14 15 20.5t33 6.5t33 -6.5t17 -19.5q1 -9 1.5 -43.5t0.5 -82t-0.5 -101.5t-0.5 -101.5t-1 -81.5t-1 -41q-1 -11 -13.5 -19t-27 -10.5t-27.5 2.5t-15 20q-2 10 -3.5 45t-3 82.5t-3.5 101.5t-3 101.5t-1.5 82t0.5 44.5zM141 25q2 -15 -9.5 -24t-26.5 -12t-28.5 1
t-15.5 15q-2 16 9 26.5t26 14.5t28.5 -1t16.5 -20z" />
    <glyph glyph-name="quotedbl" unicode="&#x22;" horiz-adv-x="283" 
d="M22 530q0 13 14.5 20t32.5 8t34 -4.5t19 -18.5q3 -12 3.5 -42t-0.5 -66.5t-2.5 -72.5t-3.5 -58q0 -9 -9.5 -15.5t-21 -8t-22 3t-12.5 16.5t-7.5 46t-11 72.5t-9.5 72.5t-4 47zM165 533q1 13 15.5 19.5t31.5 7t31.5 -6t15.5 -20.5q2 -22 1 -52.5t-3 -62.5t-5.5 -63
t-6.5 -53q-1 -9 -10 -15t-19.5 -7t-20 4.5t-10.5 17.5q-2 12 -5.5 45t-7 70t-6 70t-1.5 46z" />
    <glyph glyph-name="numbersign" unicode="#" horiz-adv-x="547" 
d="M326 474q0 13 15.5 20.5t33.5 9t33 -3.5t15 -17l-4 -133l68 8q10 1 16 -5.5t7 -14.5t-2.5 -15t-12.5 -8l-78 -12l-2 -71q31 7 56 13.5t42 12.5q11 4 19.5 -3.5t12.5 -18.5t1 -22t-14 -14q-21 -6 -51.5 -13.5t-67.5 -15.5l-4 -135q-1 -11 -13.5 -17.5t-27 -7t-27 4.5
t-12.5 18q-1 13 -1.5 45.5t-0.5 76.5q-24 -4 -48.5 -7.5t-48.5 -5.5q-2 -43 -3.5 -72.5t-1.5 -34.5q0 -8 -12 -12t-26.5 -4t-27 4t-13.5 12q-1 5 -1.5 33t-1.5 69q-45 -1 -85 5q-9 1 -12 8.5t-2 15.5t6 14.5t13 5.5q16 -1 36 -0.5t43 2.5v36.5t-1 37.5q-29 -4 -49.5 -6
t-28.5 -2t-12 8.5t-3.5 18.5t5.5 19t14 11l73 8v83.5t1 46.5q1 16 17.5 24.5t35.5 10t35 -4.5t16 -19q0 -10 -1.5 -46l-3.5 -84l85 9v87t1 47zM233 199q23 3 46.5 7t46.5 8v75l-89 -13q-2 -20 -2 -38.5t-2 -38.5z" />
    <glyph glyph-name="dollar" unicode="$" horiz-adv-x="384" 
d="M145 552q0 11 12 17t26.5 6t26.5 -6t12 -18v-14t1 -26q23 -5 44.5 -13.5t38.5 -21.5q4 -3 3 -12.5t-6 -18.5t-14 -14t-20 1q-21 11 -45 17q0 -26 0.5 -54.5t1.5 -59.5q24 -11 48 -24t43.5 -29.5t31.5 -37.5t13 -48t-9.5 -48t-29 -35t-43.5 -22t-52 -11q1 -23 1 -37.5
v-18.5q0 -10 -12 -16.5t-26 -7.5t-26 4t-13 17q0 5 -0.5 21t-1.5 40q-39 7 -72.5 22.5t-51.5 39.5q-6 9 -1.5 20t14 19.5t20.5 10.5t19 -7q13 -16 31.5 -26.5t39.5 -15.5q0 26 -0.5 54t-1.5 58q-26 9 -51 21.5t-43 30t-27 41.5t-3 57q8 49 42.5 74.5t78.5 32.5v24.5t1 13.5z
M275 181q1 16 -12.5 27t-35.5 20v-44.5t1 -41.5q20 5 32.5 14.5t14.5 24.5zM111 435q-9 -20 1.5 -34.5t33.5 -27.5q-1 23 -1 43.5v39.5q-27 -5 -34 -21z" />
    <glyph glyph-name="percent" unicode="%" horiz-adv-x="575" 
d="M101 476q22 8 45.5 7t44.5 -12t36 -33.5t19 -56.5q4 -30 -11 -58t-40.5 -46t-59 -21.5t-66.5 17.5q-24 15 -36.5 43t-10.5 59t21 59t58 42zM120 426q-17 -8 -22.5 -28.5t1 -40t23.5 -31t45 -0.5q25 9 29.5 30t-5 40t-29.5 29.5t-42 0.5zM374 521q12 15 27 15.5t27.5 -6.5
t19 -19.5t1.5 -22.5q-18 -34 -44 -85.5t-55.5 -113t-60 -128.5t-57.5 -130q-5 -11 -17 -14t-24 0.5t-19.5 13t-2.5 24.5q28 84 59.5 162t59.5 140.5t51 105.5t35 58zM465 275q23 0 42 -11.5t31 -30t15 -41t-5 -44.5q-11 -29 -36.5 -47t-54.5 -23t-55.5 5.5t-38.5 38.5
q-12 26 -8.5 53.5t17.5 49.5t38.5 36t54.5 14zM428 157q13 -15 31.5 -15.5t32.5 9t18.5 26t-10.5 34.5q-14 16 -32 16t-31.5 -10t-18 -27t9.5 -33z" />
    <glyph glyph-name="ampersand" unicode="&#x26;" horiz-adv-x="347" 
d="M23 76q-4 12 0 28t13 34t22 38.5t28 41.5q-21 41 -35 79.5t-18 72.5t4.5 63t33.5 51q19 17 46 21.5t53 -3.5t47 -28.5t28 -52.5q4 -19 -0.5 -40.5t-15 -44.5t-25.5 -47t-31 -46q28 -50 57 -96q23 12 38.5 21.5t19.5 12.5q6 4 13 1.5t11.5 -8.5t5 -13t-6.5 -12
q-11 -8 -25.5 -18t-32.5 -20q27 -42 46 -70.5t24 -34.5q7 -10 -2.5 -23t-25.5 -21t-33.5 -8.5t-26.5 14.5q-15 25 -31 50.5t-32 51.5q-26 -11 -50 -17.5t-44.5 -7.5t-34.5 6t-20 25zM184 414q-2 15 -9 26.5t-17.5 19t-23 8.5t-25.5 -5q-11 -6 -13 -20.5t3 -36t16.5 -48.5
t26.5 -57q20 32 32 61t10 52zM68 92q6 -8 29 -2.5t52 18.5q-9 14 -18 29t-17 30q-23 -29 -37 -49t-9 -26z" />
    <glyph glyph-name="quotesingle" unicode="'" horiz-adv-x="119" 
d="M7 530q0 13 15 20t33 8t34 -4.5t19 -18.5q2 -12 2.5 -42t-0.5 -66.5t-2.5 -72.5t-2.5 -58q-1 -9 -10.5 -15.5t-21 -8t-22 3t-12.5 16.5t-7 46t-10.5 72.5t-10 72.5t-4.5 47z" />
    <glyph glyph-name="parenleft" unicode="(" horiz-adv-x="234" 
d="M126 617q11 15 29 15.5t32.5 -8t21 -23t-3.5 -30.5q-44 -64 -63.5 -140.5t-16.5 -154.5t27.5 -153t68.5 -135q6 -8 0 -18t-16.5 -17.5t-24 -9.5t-22.5 7q-36 33 -64.5 80t-46 102.5t-23.5 116.5t2.5 124t33 125.5t66.5 118.5z" />
    <glyph glyph-name="parenright" unicode=")" horiz-adv-x="260" 
d="M82 626q36 -22 67.5 -61.5t53.5 -91.5t31 -115t0 -130.5t-38.5 -138t-85.5 -137.5q-8 -10 -20 -7.5t-22 11t-15.5 20t-0.5 20.5q43 69 69 144.5t27 150.5t-26.5 145.5t-90.5 130.5q-11 10 -9 23t11.5 23.5t23 15t25.5 -2.5z" />
    <glyph glyph-name="asterisk" unicode="*" horiz-adv-x="353" 
d="M279 494q7 3 16 -1.5t16 -13t9.5 -17.5t-2.5 -14l-65 -71l69 -62q8 -5 6.5 -14.5t-8 -18t-15.5 -13.5t-15 -2l-69 31l-11 -90q-1 -7 -10 -10.5t-20.5 -3.5t-20.5 3t-10 10l-11 85l-65 -42q-9 -5 -18.5 -3t-16 8t-8 14t4.5 16l64 81l-70 54q-8 6 -7.5 15.5t6 18.5t14.5 14
t18 2l74 -26l7 80q0 9 10 14t22 5t22.5 -4.5t11.5 -14.5l7 -70z" />
    <glyph glyph-name="plus" unicode="+" horiz-adv-x="288" 
d="M113 389q1 8 10.5 12.5t19.5 4.5t18.5 -3t8.5 -10q0 -5 0.5 -25t1.5 -47q27 1 47.5 1t27.5 -1q8 -1 13 -9.5t5.5 -19t-2.5 -19t-10 -9.5l-83 -5q0 -30 1.5 -53.5t-0.5 -28.5q-2 -7 -12 -10.5t-21 -3.5t-20.5 4t-9.5 13q-1 7 -1 28t1 47q-26 -2 -46 -2t-25 1
q-7 2 -11 11.5t-4.5 21t3.5 21t13 10.5q7 0 26.5 1t44.5 1q2 25 2 44t2 25z" />
    <glyph glyph-name="comma" unicode="," horiz-adv-x="121" 
d="M22 37q0 16 11 26.5t25 10.5q16 0 28 -10.5t13 -26.5q2 -27 -10 -51.5t-24 -39.5q-4 -5 -9.5 -4.5t-10 4t-6.5 8.5t2 11q7 11 10 22.5t-4 13.5q-25 9 -25 36z" />
    <glyph glyph-name="hyphen" unicode="-" horiz-adv-x="236" 
d="M196 321q8 0 13 -8.5t5.5 -19t-2.5 -19.5t-10 -10l-165 -10q-7 0 -11 9.5t-4.5 21.5t3.5 22.5t13 10.5z" />
    <glyph glyph-name="period" unicode="." horiz-adv-x="119" 
d="M22 37q0 16 11 26.5t25 10.5q16 0 27.5 -10.5t11.5 -26.5q0 -15 -11.5 -26t-27.5 -11q-14 0 -25 11t-11 26z" />
    <glyph glyph-name="slash" unicode="/" horiz-adv-x="272" 
d="M166 554q7 12 23 14t32 -2.5t27.5 -14.5t8.5 -22q-2 -9 -14.5 -48.5t-31 -94.5t-39.5 -117.5t-40 -117t-32.5 -92.5t-15.5 -44q-3 -9 -15 -11t-24 1.5t-21.5 10.5t-8.5 16q1 8 7 32.5t15.5 60t21 78.5t24.5 88t25.5 88.5t24 79t20 61t13.5 34.5z" />
    <glyph glyph-name="zero" unicode="0" horiz-adv-x="441" 
d="M202 570q43 2 80 -23.5t65 -67.5t46.5 -95.5t23.5 -106.5q6 -53 -1 -99t-26.5 -81t-53.5 -58.5t-82 -30.5q-94 -15 -155 47t-74 188q-8 81 3 141.5t35.5 101t60.5 61t78 23.5zM206 504q-23 -3 -39 -27.5t-24.5 -61.5t-9.5 -82.5t6 -89.5q14 -89 46.5 -132t75.5 -35
q26 4 46.5 22.5t33 46.5t16 64t-2.5 76q-8 46 -21 88t-31.5 72.5t-42.5 46.5t-53 12z" />
    <glyph glyph-name="one" unicode="1" horiz-adv-x="304" 
d="M18 464q7 9 20.5 24.5t28 32t27.5 30.5t18 20t21.5 8.5t34.5 1.5t32 -5t14 -13q0 -5 0.5 -29t1 -60.5t1.5 -82t2 -92.5q2 -110 5 -246q10 0 20 1q8 0 15.5 0.5t10.5 0.5q9 0 13.5 -8t5.5 -18t-1.5 -18.5t-7.5 -9.5q-3 -1 -18 -1.5t-36 -1.5t-45 -2t-46 -2t-39.5 -1.5
t-23.5 -0.5q-10 0 -14.5 6.5t-4.5 14.5t3.5 15t9.5 8q6 2 13.5 2.5t14.5 2.5q8 1 17 3l16 436l-72 -57q-8 -6 -16.5 -3t-15 10.5t-8.5 17t3 16.5z" />
    <glyph glyph-name="two" unicode="2" horiz-adv-x="429" 
d="M137 428q-3 -5 -16 -6t-25.5 2t-21 10.5t-3.5 19.5q3 8 12 23t22.5 32t31.5 33t39 26.5t44.5 12.5t47.5 -10q38 -19 48 -53t1 -77.5t-32.5 -92.5t-51.5 -98t-55.5 -94.5t-44.5 -81.5l258 14q9 0 15 -7.5t7.5 -18t-2 -20.5t-13.5 -13q-7 -2 -32.5 -5t-61 -6.5t-76 -7
t-76 -6t-61.5 -4.5t-33 -2q-10 -1 -19.5 6t-15.5 19t-7.5 26.5t4.5 29.5q18 43 43.5 91t53 95t53 90t43.5 77.5t25 57t-3 28.5q-15 8 -31 -3t-29.5 -28.5t-24 -35.5t-13.5 -23z" />
    <glyph glyph-name="three" unicode="3" horiz-adv-x="441" 
d="M74 481q-13 -7 -22 -2t-14 15.5t-4.5 22t6.5 17.5q6 5 24 13t42.5 14.5t53 10t54.5 0.5t47.5 -15.5t32.5 -36.5q14 -33 11.5 -64t-10.5 -56q-10 -29 -27 -55q57 -2 99 -30t50 -88q7 -49 -11 -87t-52 -65t-78.5 -43t-90 -22.5t-87.5 -3t-70 16.5q-6 3 -6 13.5t5 21
t12.5 18.5t16.5 6q64 -16 117.5 -5.5t89 35t49.5 55.5t0 57q-9 17 -35.5 23t-60.5 3.5t-71.5 -13t-68.5 -25.5q-12 -6 -22 0t-14.5 17.5t-2 23.5t14.5 18q14 7 35 21t42.5 31.5t42 38t34.5 41t20 40t-2 35.5q-7 15 -26 20.5t-42 4.5t-45.5 -7.5t-36.5 -14.5z" />
    <glyph glyph-name="four" unicode="4" horiz-adv-x="430" 
d="M193 562q6 11 27.5 17.5t45.5 8.5t43.5 -1t20.5 -12l16 -327l37 3q13 0 19 -9.5t5.5 -20.5t-5.5 -20.5t-14 -9.5l-39 -4q2 -33 2.5 -58t1.5 -42q1 -20 2 -34l27 2q6 1 11 -6.5t7 -16.5t0 -17t-10 -8l-184 -3q-4 0 -6.5 7t-2.5 15t3 15t10 7h30l-5 132q-47 -2 -87 -5
l-34 -2t-31 -2t-24.5 -1h-14.5q-9 0 -14 11.5t-7 26.5t-1 28.5t3 17.5q5 10 18 35t30.5 57t37 67t36.5 66t29.5 53.5t16.5 29.5zM90 231l148 11q-3 70 -6 126q-1 24 -2 47.5t-1.5 43t-1 33t-0.5 17.5q-2 -4 -8.5 -18t-16 -34t-22 -45t-24.5 -50q-29 -59 -66 -131z" />
    <glyph glyph-name="five" unicode="5" horiz-adv-x="468" 
d="M337 553q8 -2 12.5 -13t4.5 -24t-5 -23t-16 -9q-7 1 -24 2.5t-38 3t-43.5 2.5t-41.5 2t-31.5 0.5t-12.5 -1.5q0 -2 -0.5 -15t-1 -32t-0.5 -41v-40.5t0.5 -31.5t1.5 -14t19 1t45 3t60 -1t63 -11t54 -27.5t34 -49.5q15 -49 4.5 -87t-38.5 -66t-69 -45.5t-87.5 -25t-94.5 -5
t-88 14.5q-6 2 -6.5 13t4 22.5t12 19.5t16.5 4q24 -9 56.5 -11.5t66 1.5t65 14.5t54 28t33 41.5t2.5 55q-6 20 -25.5 28t-49.5 7.5t-68 -7.5t-79 -17q-6 -1 -20.5 -1.5t-30 1.5t-27 8t-11.5 18t0.5 37t1 55t0.5 62.5t0.5 60.5t1 48.5t0.5 25.5q1 20 18.5 28.5t33.5 7.5
q10 0 31 -1t46.5 -2.5t53 -3.5t51 -3.5t41 -3.5t22.5 -3z" />
    <glyph glyph-name="six" unicode="6" horiz-adv-x="428" 
d="M52 557q2 13 19 18t37.5 4t37.5 -7.5t18 -18.5t-4 -37.5t-10.5 -64.5t-9 -90.5t-0.5 -114.5q21 17 47 34t54 26.5t57 7.5t57 -21q31 -22 43 -57.5t5.5 -74.5t-32 -76.5t-70.5 -61.5q-29 -15 -66 -20.5t-73.5 5t-67.5 40t-47 85.5q-10 34 -14 76.5t-4 86.5t3 87t7 79
t7.5 61t5.5 34zM153 131q10 -29 32.5 -49.5t60.5 -18.5q30 2 54 23t36 50.5t9.5 61t-25.5 53.5q-17 16 -42.5 8t-51 -28.5t-46 -48.5t-27.5 -51z" />
    <glyph glyph-name="seven" unicode="7" horiz-adv-x="334" 
d="M31 554q7 1 38 4t71 6t80.5 5.5t66.5 1.5q9 0 15.5 -9.5t11 -24t5.5 -31.5t-2 -32q-1 -6 -8.5 -38t-17.5 -79t-22.5 -101.5t-23.5 -104t-20 -87.5t-12 -52q-2 -9 -16.5 -11t-31 1t-30 11t-13.5 19q0 6 5 29t12.5 57t17.5 75.5t20 84t20 83t17 72t11.5 51.5t3.5 21
q-2 3 -27 1.5t-57 -5t-62.5 -7t-43.5 -3.5q-12 0 -17.5 9t-6.5 21t3.5 22t12.5 11z" />
    <glyph glyph-name="eight" unicode="8" horiz-adv-x="569" 
d="M238 570q50 10 92 3.5t72 -24.5t46.5 -45t14.5 -58q-2 -21 -14.5 -38.5t-26.5 -30.5q-17 -15 -38 -27q24 0 49 -3.5t46 -12t37 -22.5t24 -36q13 -36 -1.5 -71.5t-46 -67.5t-77 -58.5t-95.5 -44t-100 -24.5t-91.5 0.5t-69.5 31t-35 67.5q-6 44 6 78.5t28.5 58.5t31.5 37
l15 13l-8 5t-18.5 15.5t-20 26t-12.5 36.5q-5 29 6.5 58.5t36.5 56t62.5 46.5t86.5 30zM248 519q-27 -6 -43.5 -18.5t-24.5 -28.5t-10 -33.5t0 -32.5q2 -25 18.5 -36.5t40.5 -13.5t51 5t51.5 19.5t42 29.5t22.5 36q4 18 -4.5 34.5t-28.5 28t-49.5 15t-65.5 -4.5zM473 240
q-6 26 -36 38t-70 11.5t-84 -11.5t-78 -31.5t-51.5 -49.5t-5.5 -65q10 -31 40 -41.5t68 -7t79 18.5t74 37.5t51.5 49t12.5 51.5z" />
    <glyph glyph-name="nine" unicode="9" horiz-adv-x="376" 
d="M230 558q0 7 16 11t35.5 5t36 -3t16.5 -14q0 -6 0.5 -45t0.5 -95t0.5 -120.5t0.5 -121.5t1 -98t2 -50q2 -14 -13 -21t-34 -8t-36 3.5t-18 13.5l-3 247q-60 -10 -107 -3q-20 3 -39 10t-34 20t-24 33t-8 49q0 29 9 50.5t23.5 37t33 26t38.5 16.5q45 15 103 14v43zM233 462
q-44 -1 -77 -11q-29 -8 -52.5 -27t-23.5 -53q0 -17 6.5 -27.5t17.5 -16t24.5 -7.5t28.5 -1q34 2 78 15z" />
    <glyph glyph-name="colon" unicode=":" horiz-adv-x="119" 
d="M22 97q0 15 11 26t25 11q16 0 27.5 -11t11.5 -26q0 -16 -11.5 -26.5t-27.5 -10.5q-14 0 -25 10.5t-11 26.5zM22 264q0 16 11 27t25 11q16 0 27.5 -11t11.5 -27q0 -15 -11.5 -26t-27.5 -11q-14 0 -25 11t-11 26z" />
    <glyph glyph-name="semicolon" unicode=";" horiz-adv-x="119" 
d="M22 264q0 16 11 27t25 11q16 0 27.5 -11t11.5 -27q0 -15 -11.5 -26t-27.5 -11q-14 0 -25 11t-11 26zM22 97q0 15 11 25.5t25 11.5q17 1 28 -8.5t13 -28.5q3 -27 -9.5 -51.5t-24.5 -39.5q-4 -5 -9.5 -5t-10 3.5t-6.5 9t2 11.5q7 11 10 22.5t-4 13.5q-13 4 -19 13.5
t-6 22.5z" />
    <glyph glyph-name="less" unicode="&#x3c;" horiz-adv-x="337" 
d="M234 370q12 8 26 1t23.5 -20t13 -27t-5.5 -20q-92 -68 -133 -100.5t-40 -38.5q0 -3 4.5 -8t23 -17t56.5 -33.5t107 -56.5q7 -3 6.5 -13t-5 -20t-12 -16t-15.5 -3q-13 5 -34 13.5t-45.5 19t-50 22t-48.5 22.5t-40.5 20t-25.5 14q-7 4 -11.5 15t-5.5 24t1.5 25.5t10.5 20.5
q11 11 39 37t59.5 54.5t60.5 52.5t41 32z" />
    <glyph glyph-name="equal" unicode="=" horiz-adv-x="310" 
d="M269 379q8 -1 13 -9.5t5.5 -19t-2.5 -19t-10 -8.5q-5 -1 -23 -2t-43 -2.5t-53 -3t-53 -2.5t-43.5 -1.5t-22.5 0.5q-7 2 -11 12t-4.5 21t3.5 20.5t13 10.5t43 2t73 1.5t73 0.5t42 -1zM269 270q8 -1 13 -9.5t5.5 -19t-2.5 -19t-10 -9.5q-5 0 -23 -1t-43 -2.5t-53 -3
t-53 -2.5t-43.5 -1.5t-22.5 0.5q-7 2 -11 11.5t-4.5 21t3.5 21t13 10.5q6 0 24 1t42 1.5t50.5 0.5t50 0.5t41 0t23.5 -0.5z" />
    <glyph glyph-name="greater" unicode="&#x3e;" horiz-adv-x="312" 
d="M89 -1q-12 -8 -25.5 -3t-22.5 16t-12 23.5t5 19.5q33 30 63 54.5t52.5 43t35.5 30t12 14.5q0 1 -15 11t-39 26.5t-54 37.5t-61 45q-6 4 -5 14t6.5 19t14 14.5t16.5 2.5q19 -8 50.5 -26t64.5 -38t60.5 -38.5t39.5 -27.5q5 -3 8.5 -15.5t4.5 -26.5t-0.5 -27t-7.5 -19
q-11 -11 -37.5 -33t-56.5 -45.5t-57.5 -43.5t-39.5 -28z" />
    <glyph glyph-name="question" unicode="?" horiz-adv-x="288" 
d="M49 440q-12 -2 -19 6.5t-8.5 19.5t2 21.5t10.5 12.5q22 6 57 12.5t70 3.5t63.5 -19.5t38.5 -57.5q6 -28 0.5 -51t-17.5 -42t-29 -33.5t-33 -26t-28.5 -20t-16.5 -13.5q-2 -3 -0.5 -13.5t4.5 -26t6.5 -35t5.5 -40.5q1 -7 -10 -13t-25.5 -9t-27 -2t-14.5 10q-4 13 -10 37
t-11 49t-8.5 46t-1.5 29q3 15 13.5 20.5t26.5 12.5q27 10 52 23t44 27.5t28.5 30.5t6.5 31q-4 19 -24.5 23.5t-47 2.5t-54 -8t-43.5 -8zM99 44q-3 15 7.5 25t24.5 13t27 -1t17 -16q3 -12 -7 -22.5t-24.5 -15.5t-28 -2t-16.5 19z" />
    <glyph glyph-name="at" unicode="@" horiz-adv-x="621" 
d="M340 -1q10 3 19 -4.5t14 -18.5t5 -21.5t-9 -14.5q-6 -3 -33 -10.5t-65 -10t-81 3.5t-79.5 30.5t-61.5 71.5t-27 126q-2 63 20.5 120t61 100t90.5 69t111 28q64 2 123.5 -23.5t106.5 -83.5q17 -21 31 -51.5t22.5 -64.5t10 -69t-8 -64.5t-30 -50.5t-56.5 -27
q-32 -6 -54 2.5t-37 25t-23.5 37t-12.5 40.5q-22 -19 -44 -30q-19 -10 -41.5 -13.5t-43.5 10.5q-24 15 -33.5 38.5t-7 49t14.5 50.5t31.5 44t44.5 29.5t53 7.5l-1 24q1 7 12 11t24.5 5t26 -3t15.5 -14q2 -9 3 -33t2.5 -54.5t4.5 -63.5t9.5 -60t18 -44t30.5 -15
q22 1 32.5 28.5t10 65.5t-13 80.5t-37.5 74.5q-38 50 -85 70.5t-98 16.5q-47 -3 -81 -28t-56.5 -61.5t-32.5 -80t-8 -82.5q2 -44 18 -79.5t43.5 -59t66 -31t85.5 6.5zM356 283q-24 5 -41 -5t-26 -27.5t-9.5 -39.5t8.5 -41q7 -15 17 -18.5t21 0t22 12t20 19.5z" />
    <glyph glyph-name="A" unicode="A" horiz-adv-x="447" 
d="M160 556q5 10 21 13.5t34 1.5t34 -8.5t22 -15.5l6 -18t11.5 -37.5t15 -50t16.5 -55.5q19 -67 43 -149q6 -21 16 -52t19.5 -61.5t17 -54.5t9.5 -30q2 -9 -7 -16t-21 -9.5t-23 0t-14 11.5l-48 142q-53 -12 -96.5 -18.5t-66.5 -9.5l-39 -132q-3 -6 -19 -8.5t-32.5 0
t-28 10.5t-7.5 22q2 7 8.5 32t15.5 61.5t20.5 81.5t23 91t23 90.5t21 80t16.5 59.5t9 29zM227 436l-65 -235q37 5 66 9q25 4 45.5 7t20.5 4z" />
    <glyph glyph-name="B" unicode="B" horiz-adv-x="425" 
d="M31 564q0 12 15 18.5t33 8t33.5 -3.5t17.5 -15q1 -6 1.5 -15.5t1.5 -17.5l2 -20q49 3 89 -7q17 -5 34.5 -12.5t32.5 -19.5t25.5 -29.5t15.5 -41.5q5 -23 -0.5 -44t-13.5 -38q-10 -19 -23 -36q25 -4 46 -15q18 -9 35 -25t24 -41q7 -29 -0.5 -55.5t-26 -50t-45 -43.5
t-56.5 -35t-67.5 -23.5t-72 -11.5t-61 -2t-33.5 6t-8.5 14t0.5 17.5t6.5 14.5t10.5 6q5 -1 7.5 -1h4.5q1 0 1 1q-9 65 -15 146q-5 69 -9.5 163t-4.5 208zM137 458q0 -14 1 -30q1 -14 1.5 -31t2.5 -35l6 -96q39 16 68 37q25 18 43.5 42.5t12.5 55.5q-4 23 -21.5 35.5
t-39 18.5t-42.5 6t-32 -3zM156 196q-1 -1 1.5 -24t6.5 -52q4 -33 10 -75q22 3 55.5 17t62.5 36t45.5 48.5t4.5 54.5q-6 15 -20 21.5t-32.5 7.5t-39 -3t-39 -9.5t-33.5 -11.5t-22 -10z" />
    <glyph glyph-name="C" unicode="C" horiz-adv-x="452" 
d="M190 574q38 6 69 -10t54 -42.5t37.5 -56t20.5 -49.5q2 -9 -6.5 -16.5t-20 -11.5t-23 -2.5t-15.5 12.5q-8 21 -17 43.5t-21.5 40t-31 27t-43.5 4.5q-23 -4 -38.5 -25.5t-23.5 -54t-9.5 -73t3 -82t14.5 -81t25 -70.5t34 -50t42 -19q33 0 55.5 15.5t37.5 39t24.5 49
t15.5 45.5q3 9 13.5 13t21 2t18 -10t4.5 -22t-15.5 -45t-36.5 -62.5t-60.5 -56.5t-86.5 -26q-46 -1 -82.5 21t-63 59.5t-42.5 86.5t-20 101.5t3.5 103.5t28 93.5t54 71.5t81.5 37z" />
    <glyph glyph-name="D" unicode="D" horiz-adv-x="484" 
d="M41 566q-1 18 17.5 24.5t40.5 5.5t40 -6.5t18 -11.5l2 -37q13 0 34.5 -1.5t46.5 -6t51 -11.5t49 -17q55 -27 86 -76.5t36 -106.5t-17.5 -114t-73.5 -99q-33 -27 -72.5 -47t-83 -34t-89 -24.5t-90.5 -18.5q-12 -2 -17 5t-5 16.5t4 18t10 9.5q9 2 16 3.5t12 2.5l10 2
q-7 134 -12 244q-2 47 -4.5 93t-4.5 84.5t-3 66t-1 36.5zM194 73q25 8 54 20.5t59 37.5q26 20 42 50t22.5 63.5t4 68.5t-14 65.5t-31 54.5t-47.5 36q-53 22 -118 19z" />
    <glyph glyph-name="E" unicode="E" horiz-adv-x="447" 
d="M22 554q0 16 14.5 22t32 5.5t33 -6t17.5 -13.5q1 -5 2 -8.5t1 -7.5v-8q64 3 116 6q22 1 44 2.5t40 2.5t30.5 1.5t16.5 0.5q7 0 13.5 -7.5t9 -17.5t-1.5 -19t-16 -10q-6 -1 -20 -2.5t-33 -3.5t-40.5 -4t-43.5 -4q-52 -4 -113 -10l12 -177q58 9 106 17q20 3 40.5 6
t37.5 5.5t29 4.5t17 2q9 0 14.5 -9.5t7 -21t-1.5 -21.5t-10 -11q-4 0 -16.5 -2t-29.5 -4.5t-38 -6t-42 -6.5q-49 -8 -110 -18l11 -141q64 8 118 15q22 3 44.5 6t41 5.5t31.5 4t17 2.5q8 1 13.5 -6.5t7.5 -18t0 -20t-9 -11.5q-35 -11 -82 -21t-92.5 -18.5t-83.5 -14.5t-54 -8
q-12 -2 -21.5 -0.5t-12.5 9.5q-2 4 -5 28.5t-6.5 61t-7.5 82t-8 93t-7.5 94t-6.5 84.5t-4.5 64t-1.5 33z" />
    <glyph glyph-name="F" unicode="F" horiz-adv-x="421" 
d="M22 548q-1 14 15.5 20t37 6t38.5 -5.5t20 -12.5q2 -8 2 -11v-5l16 1l40 2.5t53.5 3t55.5 3t46 2.5t26 2q11 1 17.5 -7.5t8 -19.5t-1.5 -21t-10 -11q-6 -1 -26.5 -3.5t-47.5 -5.5t-57.5 -6t-56 -6t-42.5 -4.5l-17 -1.5l1.5 -23.5t3.5 -51.5t4 -51.5l2 -23.5l14 1.5t35.5 4
t47.5 5t49.5 5t41.5 5t25 3.5q9 1 15.5 -7t8.5 -19t-0.5 -20.5t-11.5 -10.5q-5 0 -16.5 -2t-27.5 -4t-35.5 -4.5t-38.5 -5.5q-46 -6 -100 -14l1.5 -16.5t4 -41.5t5 -54.5t5 -56t4 -46t1.5 -23.5q0 -7 -12 -11t-28.5 -5t-32.5 1.5t-24 10.5q-7 7 -14 45.5t-13 94t-11.5 119
t-10 121t-7 100t-3.5 55.5z" />
    <glyph glyph-name="G" unicode="G" horiz-adv-x="422" 
d="M338 429q2 -9 -6.5 -14t-19.5 -6.5t-21 0t-11 7.5q-11 46 -26 74t-40 27q-25 -2 -41.5 -23.5t-26 -55t-13.5 -74t-4 -80.5t4.5 -82.5t15.5 -76t29.5 -53.5t45.5 -14q19 4 29 18t13.5 37t3 55t-2.5 72l-43 -10q-6 -2 -11.5 5t-8.5 17t-2 19t7 12l178 44q7 1 11.5 -3.5
t7 -11t1.5 -13t-5 -8.5l-36 -15q2 -38 -1 -81t-18 -80.5t-44 -64t-80 -32.5q-43 -5 -74.5 5.5t-54 31.5t-37 49.5t-22.5 59t-10.5 61t-2.5 55.5q1 82 17 136.5t41.5 87t58.5 46t69 14.5q33 1 56 -14.5t38.5 -37t24 -45t11.5 -38.5z" />
    <glyph glyph-name="H" unicode="H" horiz-adv-x="484" 
d="M29 575q0 13 18.5 19t40 5.5t40 -7t18.5 -17.5q0 -8 1 -29.5t2 -50t2.5 -59.5t2.5 -56.5t1.5 -42.5l0.5 -17l14.5 1.5t36.5 3.5t48 4.5t48 4.5t37 3l15 1v13t-0.5 34t-0.5 45.5t-0.5 47.5t-0.5 40.5v24.5q0 9 11.5 14t25.5 6t26 -3t13 -12q2 -29 3.5 -71t2.5 -90.5
t1.5 -100t1 -98t1 -86t1.5 -63.5q0 -9 -12 -14.5t-27.5 -6.5t-28.5 2t-14 10q-1 4 -1 24.5t-0.5 48t-0.5 59v58v43.5v17l-197 -27q1 -59 2 -107q0 -21 0.5 -41.5t1 -37.5t1 -29.5t1.5 -16.5q1 -9 -16.5 -16.5t-38.5 -10t-39 1.5t-18 18q0 9 -2 52t-4.5 102t-6 126.5t-6 127
t-4 102t-1.5 51.5z" />
    <glyph glyph-name="I" unicode="I" horiz-adv-x="401" 
d="M31 550q7 1 32 3.5t58.5 5t71 5t71 5t57.5 4.5t31 3q10 1 15.5 -8t7 -21t-2 -22.5t-11.5 -11.5q-6 -1 -25 -2t-39 -3q-24 -2 -52 -5l23 -416q19 2 38 3q16 1 34.5 1t32.5 -2q8 -1 11 -10t2.5 -19.5t-4 -19t-7.5 -8.5q-97 -7 -168.5 -14t-128.5 -14q-10 -1 -15.5 6t-8 16
t-1.5 17.5t5 11.5q6 4 23.5 7.5t36.5 6.5q22 4 49 7l-27 421q-25 -2 -47 -4q-19 -2 -36.5 -3t-23.5 -1q-8 0 -12.5 9t-5.5 20t3 20.5t13 11.5z" />
    <glyph glyph-name="J" unicode="J" horiz-adv-x="371" 
d="M162 529q-2 21 17 35t42.5 18.5t44.5 -1.5t23 -25q8 -63 20.5 -125.5t22.5 -121t14.5 -110.5t-1.5 -94t-26 -72t-59 -44q-43 -15 -83.5 -9.5t-73.5 21t-56 36t-30 34.5q-7 13 -0.5 23t18 15.5t24 5t17.5 -6.5q7 -9 25 -25.5t40 -30t45.5 -18.5t41.5 8q12 9 16 32t0 59
t-14 84t-25 106q-15 57 -23 88.5t-11.5 50.5t-5 32.5t-3.5 34.5z" />
    <glyph glyph-name="K" unicode="K" horiz-adv-x="496" 
d="M29 580q-1 14 17 20t39.5 5t40 -7.5t19.5 -17.5v-20t0.5 -35.5t1 -45.5t0.5 -50q1 -59 1 -130q48 62 88 112q17 21 33.5 42t30 38.5t23 29t11.5 14.5q5 6 16.5 4.5t22.5 -7.5t17.5 -15t0.5 -19l-137 -201q32 -26 68.5 -58.5t68.5 -61t55.5 -49.5t28.5 -25q8 -6 6 -16.5
t-9 -20t-17 -14.5t-19 0q-6 4 -32 21.5t-61 42t-73.5 51.5t-69.5 50l-49 -71q2 -30 5 -56q2 -23 3.5 -44t2.5 -29q0 -9 -16 -16.5t-35.5 -10.5t-35.5 -0.5t-17 13.5q0 4 -1.5 29.5t-3.5 64.5t-4.5 87.5t-5 100t-5 101.5t-4.5 90.5t-3.5 68.5t-1.5 35z" />
    <glyph glyph-name="L" unicode="L" horiz-adv-x="403" 
d="M29 538q-1 19 19 27t45 6.5t45.5 -10.5t20.5 -24q1 -42 -1.5 -91t-5.5 -99t-6 -97t-2 -86t7.5 -66t20.5 -36q7 -5 29 -1t49 10.5t53.5 13t42.5 8.5q15 2 25.5 -8t14.5 -23t0.5 -25t-15.5 -14q-15 -2 -40.5 -6t-55 -7t-61 -5.5t-58.5 -1.5t-47 5.5t-27 14.5
q-14 18 -22.5 60t-14.5 95t-9 111t-4 109t-1.5 89t-1.5 51z" />
    <glyph glyph-name="M" unicode="M" horiz-adv-x="617" 
d="M38 555q0 9 17 16.5t38.5 8.5t42 -7t28.5 -30q3 -7 10.5 -25.5t18 -44.5t23.5 -56.5t26 -61.5q30 -73 67 -161q37 96 68 174l26 66t23.5 60.5t18.5 46.5t11 25q5 12 17.5 16t26 2t23.5 -9t11 -17q0 -7 4.5 -43t10.5 -88t13.5 -113.5t14 -118.5t11.5 -103t7 -67
q0 -6 -9.5 -11.5t-22 -8t-24.5 -1t-15 10.5q-2 6 -7 34.5t-11.5 67.5t-13 83t-12.5 81.5t-9.5 62.5t-3.5 27q-1 -3 -9 -21t-19.5 -43.5t-25.5 -55.5t-26 -57t-21.5 -47t-12.5 -26q-3 -7 -12.5 -12t-21 -6.5t-21.5 0.5t-15 10q-3 3 -9.5 14t-16 26.5t-21 34t-22.5 37.5
q-26 44 -58 98q-4 -79 -8 -143q-2 -27 -3.5 -54.5t-2.5 -50t-2 -38t-1 -20.5q0 -10 -16 -15.5t-34.5 -6.5t-34 4.5t-15.5 17.5q1 110 0.5 195t-1.5 150t-1.5 112t1.5 81z" />
    <glyph glyph-name="N" unicode="N" horiz-adv-x="505" 
d="M42 543q2 15 19 23t38 10.5t39.5 -1t23.5 -11.5l12.5 -25l26 -52t34.5 -69.5t38 -78.5q45 -93 101 -209q2 16 2 49t-1.5 74.5t-3 87.5t-2.5 88t-1.5 76.5t1.5 52.5q1 10 13 15t26.5 5t27 -4.5t12.5 -11.5q0 -20 2.5 -64t5 -98.5t5 -113.5t4.5 -110t2.5 -87t-1.5 -44
q-2 -11 -15 -20t-29.5 -13.5t-33.5 -3t-26 12.5q-5 6 -17 28t-29 54t-36.5 71l-39.5 79q-47 93 -102 209q1 -122 2 -220q0 -42 0.5 -82t1 -72.5t1 -54t0.5 -24.5q0 -7 -16 -12.5t-35.5 -7t-36.5 1.5t-18 14q-1 7 -1 47v97t0.5 122t1.5 122.5t2 99t2 50.5z" />
    <glyph glyph-name="O" unicode="O" horiz-adv-x="499" 
d="M218 566q46 8 86.5 -11t73.5 -56t56 -87.5t34 -105t8 -108.5t-23 -98t-59 -73.5t-99 -35.5q-59 -6 -107.5 6.5t-84 43.5t-56.5 78.5t-24 112.5q-4 73 8.5 131.5t38.5 100.5t63.5 67.5t84.5 34.5zM239 496q-31 -10 -52 -48t-31.5 -88.5t-8.5 -106t18.5 -101t48 -73.5
t80.5 -23q55 6 82.5 44t33.5 91t-7 111.5t-37.5 105.5t-58 73.5t-68.5 14.5z" />
    <glyph glyph-name="P" unicode="P" horiz-adv-x="446" 
d="M21 559q-1 19 16.5 28t38.5 9.5t39 -6.5t18 -20q0 -8 0.5 -15.5t0.5 -12.5v-12q80 -1 142 -17q27 -7 52.5 -17.5t46 -25.5t33.5 -36t15 -49q1 -30 -9 -55.5t-28 -48t-41.5 -40.5t-48.5 -33q-58 -34 -133 -59q2 -40 5 -73q2 -29 4 -55.5t4 -34.5q1 -8 -18.5 -14.5
t-43 -8.5t-43.5 1t-21 14q-1 10 -3.5 63.5t-6 134t-8.5 180t-11 203.5zM142 470l1 -11t2 -29t2.5 -41t3.5 -47l8 -128q60 19 106 44q19 10 37.5 23t32.5 27.5t21.5 31t4.5 34.5q-4 24 -21.5 40t-42 27t-52 16.5t-50.5 8.5t-38 3.5z" />
    <glyph glyph-name="Q" unicode="Q" horiz-adv-x="523" 
d="M223 565q55 13 102.5 -3.5t83 -52t58.5 -84.5t30 -101q4 -33 2.5 -66t-9.5 -62.5t-21.5 -54.5t-32.5 -43q19 -36 34 -65q13 -25 24.5 -47t13.5 -27t-4 -12t-15 -12.5t-19.5 -6.5t-16.5 7q-11 14 -23.5 34t-23.5 38q-12 21 -24 43q-44 -26 -98.5 -34t-105.5 7.5t-91.5 57
t-55.5 115.5q-12 58 -6.5 117.5t29 110.5t65.5 89t104 52zM237 508q-32 -8 -54.5 -36t-34.5 -67t-14.5 -84t5 -87.5t24.5 -78t43 -56t62 -21t81 27.5q-14 25 -26 48q-11 20 -22 41t-18 36q-6 12 2.5 22.5t22 17t27 7t16.5 -6.5q12 -26 21.5 -47t17.5 -35q8 -17 15 -30
q24 32 31 73.5t-1 85.5q-7 40 -24.5 78.5t-43.5 66.5t-59.5 41.5t-70.5 3.5z" />
    <glyph glyph-name="R" unicode="R" horiz-adv-x="465" 
d="M36 561q-1 21 17 28.5t39.5 6t39.5 -9.5t17 -18l1 -36q80 -3 144 -19q27 -7 53 -17t47 -24.5t34.5 -34t14.5 -44.5q1 -30 -14.5 -54.5t-34.5 -41.5q-22 -20 -51 -35q16 -42 32 -81q13 -34 27 -69.5t23 -60.5q2 -6 -6.5 -13t-19.5 -12t-22.5 -5t-15.5 8q-10 20 -26 52.5
t-32 63.5l-38 76q-27 -11 -56.5 -19.5t-51.5 -12.5q-1 -41 -1 -78v-120q0 -8 -17 -14t-37.5 -7t-37.5 4.5t-17 19.5q0 53 -0.5 111.5t-1.5 117t-2.5 113.5t-2.5 100t-2 78t-2 47zM153 468v-9.5t0.5 -25t1 -35t0.5 -40.5l2 -110q63 14 112 34q21 9 41 19.5t36 23.5t25 28
t9 32q0 22 -17 37t-42 24.5t-54.5 14t-54.5 6t-42 1.5h-17z" />
    <glyph glyph-name="S" unicode="S" horiz-adv-x="476" 
d="M361 554q13 -5 16 -18t-0.5 -25.5t-12 -21t-18.5 -5.5q-44 12 -83 14.5t-67.5 -6t-43.5 -28.5t-11 -53q2 -24 27 -42.5t61 -35.5t76.5 -34.5t74.5 -40.5t55.5 -53.5t18.5 -72.5t-28.5 -69.5t-64 -42t-85.5 -18t-92 2t-83 19t-59 33.5q-10 9 -6.5 23.5t13 27t21.5 19.5
t21 1q36 -24 81 -38t86.5 -16t73 8t40.5 33q10 25 -12 41.5t-60 31t-84.5 30.5t-87 41t-66.5 62.5t-23 93.5q2 37 20 65t45.5 46.5t62 29t69.5 13.5t67.5 -1t57.5 -14z" />
    <glyph glyph-name="T" unicode="T" horiz-adv-x="446" 
d="M409 562q9 0 15 -9t7 -20t-3.5 -20.5t-15.5 -10.5t-33 -2.5t-43 -3.5q-26 -2 -53 -4q4 -118 8 -214q1 -41 2.5 -81t3 -72.5t2 -55t0.5 -27.5q0 -18 -19 -26.5t-41.5 -10t-41.5 4.5t-19 18v50v66t0.5 75.5t0.5 77.5q1 89 2 188q-36 -2 -66 -4q-26 -2 -50.5 -3t-33.5 -1
t-13 11t-3.5 24.5t4 25t9.5 11.5q4 0 32 1.5t68.5 2.5t87 2.5t87.5 2.5t70.5 2t35.5 2z" />
    <glyph glyph-name="U" unicode="U" horiz-adv-x="438" 
d="M30 526q0 20 20 29.5t44 9.5t43.5 -8t19.5 -23q0 -9 0.5 -47t3 -90t8.5 -109.5t17.5 -106t30 -80t44.5 -31.5q31 0 48 33t24.5 83t8 109t-2 112t-6 91.5t-3.5 48.5q0 14 11 19.5t23.5 4t23 -7.5t10.5 -14q0 -4 3 -29t5 -62.5t3 -84.5t-2 -96t-11.5 -95.5t-25.5 -84
t-43.5 -61.5t-64.5 -27q-57 -5 -96.5 18.5t-66 66t-41 98.5t-21.5 115t-7.5 116.5t0.5 102.5z" />
    <glyph glyph-name="V" unicode="V" horiz-adv-x="462" 
d="M15 529q-1 13 13.5 24t33 17t35 5t20.5 -11q2 -5 9.5 -27.5t18.5 -56t24.5 -75t27.5 -83.5q33 -99 72 -222q30 127 55 231q10 44 20 87t18 78t13.5 59t6.5 29q2 11 12.5 15.5t22 3t19.5 -8.5t5 -20q-2 -9 -10.5 -50.5t-20.5 -99.5t-25.5 -124.5t-25.5 -124.5t-21.5 -99.5
t-11.5 -49.5q-4 -12 -22.5 -20.5t-40.5 -13t-42 -2.5t-27 11q-6 8 -21 45.5t-34.5 90.5t-41 114t-39.5 117t-30 100t-13 61z" />
    <glyph glyph-name="W" unicode="W" horiz-adv-x="692" 
d="M21 537q-1 10 8.5 17.5t24.5 11.5t33 5t34 -1.5t27 -8t13 -14.5t6 -46t9 -87t11 -106t11.5 -103.5t10.5 -79t7 -32.5t9.5 21.5t17 58.5t20.5 79t21 82.5t18 69.5t11 40q5 14 23 20t38.5 5.5t38.5 -6t22 -14.5q3 -6 12.5 -31.5t22 -59.5t26.5 -72.5t26 -70.5t20.5 -53
t10.5 -21q1 0 5.5 28.5t10 70.5t11.5 92t11 94.5t8.5 76.5t4.5 38q1 9 11.5 12t22.5 1t22 -8.5t9 -15.5q0 -6 -4 -40.5t-9.5 -84.5t-12.5 -108t-13.5 -110.5t-12 -93t-7.5 -54.5q-1 -6 -14.5 -13.5t-30 -12.5t-32.5 -4.5t-22 11.5t-18.5 42.5t-27.5 73t-30.5 87t-28.5 83
t-22 62t-10 24.5q-3 -1 -12.5 -28.5t-21.5 -69t-25 -90t-24 -91t-18.5 -72t-8.5 -32.5q-5 -14 -27.5 -20.5t-48.5 -5.5t-49.5 8.5t-29.5 21.5q-4 9 -11 39.5t-15.5 74t-18 97t-18 108.5t-15 108.5t-10.5 96.5z" />
    <glyph glyph-name="X" unicode="X" horiz-adv-x="430" 
d="M279 564q4 10 15.5 11t22.5 -4.5t17.5 -15t1.5 -20.5l-93 -206l169 -275q6 -9 0 -20.5t-17.5 -21t-25 -14.5t-22.5 0q-6 3 -20 20t-31.5 41.5t-36 52t-34 50.5t-26 38.5t-10.5 14.5q-1 -2 -7.5 -16.5t-16 -36t-20.5 -46.5t-21 -47l-17.5 -38.5t-9.5 -20.5q-4 -6 -13 -5.5
t-18 6t-14.5 14.5t-1.5 19l98 227q-1 1 -9 14l-20 32.5t-27 43t-28.5 46.5t-24.5 42t-15 30q-6 14 4.5 30t27 28t33.5 16.5t24 -3.5l92 -163l5 11t12.5 28.5t16 39t16.5 41t14.5 35t9.5 22.5z" />
    <glyph glyph-name="Y" unicode="Y" horiz-adv-x="464" 
d="M20 514q-10 14 -2.5 30t22.5 27t32.5 13t26.5 -11q6 -9 16.5 -25.5t24 -38t29 -46t30.5 -49.5q35 -58 76 -126l117 272q4 9 15 10.5t21.5 -3t17 -13.5t0.5 -21l-126 -309v-91q0 -36 0.5 -70.5t0.5 -47.5t-17.5 -21.5t-39 -10.5t-39 3.5t-17.5 20.5q-1 15 0 45.5t2 62.5
q1 36 3 78q-46 80 -86 147q-17 28 -34 56.5t-31.5 52t-25.5 41t-16 24.5z" />
    <glyph glyph-name="Z" unicode="Z" horiz-adv-x="473" 
d="M37 507q-8 1 -12 11t-3.5 21.5t5 21t13.5 9.5q6 0 30 -0.5t57 -1.5t70.5 -2.5t71.5 -3t59.5 -2.5t34.5 -1q14 0 25.5 -10t18.5 -23t8.5 -27.5t-4.5 -23.5q-4 -6 -23.5 -38.5t-46 -77t-56.5 -95t-55 -94t-40.5 -72t-13.5 -29.5t19 1l42.5 5t55.5 7.5t57 8t47.5 7t28.5 4.5
q11 2 20 -6.5t12.5 -20t0 -22.5t-15.5 -14q-8 -2 -33.5 -5.5t-59 -8t-71.5 -9t-72 -8t-59.5 -6t-34.5 -3.5q-12 -1 -23 6.5t-19.5 18.5t-12 25t1.5 27q4 12 17 36t31 56t39.5 68.5t43.5 73t42 70.5t36 60t25 41.5t8 15.5q-2 1 -20 1.5t-45.5 1.5t-59.5 1.5t-61 1.5t-50.5 2
t-28.5 2z" />
    <glyph glyph-name="bracketleft" unicode="[" horiz-adv-x="302" 
d="M39 580q1 33 18.5 43.5t37.5 10.5l104 2q7 0 11.5 -8.5t5 -18.5t-4.5 -18.5t-16 -9.5l-48 -8q-11 -2 -13 -7t-2 -15q0 -64 1 -114t1.5 -92.5t1.5 -79.5t2 -75.5t2.5 -80t2.5 -92.5q1 -24 8.5 -30t20.5 -4l75 14q10 2 19.5 -6.5t13 -20.5t-1 -24t-20.5 -17l-157 -21
q-12 -2 -24.5 5t-16.5 31q-8 64 -13 132.5t-7.5 135.5t-3 128.5t0 111t1 83.5t1.5 45z" />
    <glyph glyph-name="backslash" unicode="\" horiz-adv-x="302" 
d="M15 529q-3 16 11 29t33.5 19.5t40 6t30.5 -12.5q7 -8 21 -49t30.5 -98.5t34.5 -124t33 -124t25 -98.5t12 -49q3 -11 -9 -20t-28.5 -13.5t-32 -3t-19.5 10.5q-2 5 -11 28.5t-21.5 59t-28.5 80t-32 90.5t-31.5 91t-28 82t-20.5 62.5t-9 33.5z" />
    <glyph glyph-name="bracketright" unicode="]" horiz-adv-x="275" 
d="M235 -15q-2 -33 -19.5 -43.5t-37.5 -10.5l-126 -2q-7 0 -11.5 8.5t-5 18.5t4.5 18.5t16 9.5l70 8q11 2 13 7t2 15q-1 64 -1.5 113.5t-1 91t-1.5 78t-2 73.5t-2.5 78.5t-2.5 92.5q-1 23 -8.5 29.5t-20.5 7.5l-55 2q-11 0 -17 10.5t-6.5 23t5.5 23t19 10.5l125 3
q12 0 24.5 -7.5t16.5 -28.5q10 -64 15.5 -132t8 -134.5t2.5 -127t-0.5 -109t-2 -82t-1.5 -44.5z" />
    <glyph glyph-name="asciicircum" unicode="^" horiz-adv-x="384" 
d="M102 256q-6 -11 -19.5 -13.5t-27 1t-24 12.5t-9.5 21q0 8 8.5 31t20.5 52.5t27 62.5t28 61.5t23 50t13 27.5q4 9 18.5 13t30.5 4t29.5 -3.5t15.5 -8.5l125 -276q3 -6 -5.5 -14t-21 -13t-25 -4t-18.5 13l-97 209q-1 -2 -7 -17t-14.5 -36.5t-18.5 -47.5t-20 -50.5
t-18.5 -44.5t-13.5 -30z" />
    <glyph glyph-name="underscore" unicode="_" 
d="M319 61q7 -2 10.5 -11.5t3 -21t-3.5 -20.5t-9 -10q-35 -5 -79 -8.5t-85 -5t-73.5 -0.5t-44.5 5q-6 2 -10.5 13.5t-5.5 24.5t2.5 24.5t12.5 13.5q14 3 39 4t54.5 1t60.5 -1t57.5 -2.5t45.5 -3t25 -2.5z" />
    <glyph glyph-name="grave" unicode="`" horiz-adv-x="100" 
d="M9 436q-4 4 -0.5 10.5t10 12.5t14 8.5t11.5 -2.5t11 -14.5t14.5 -19.5t13.5 -18.5t9 -11.5q2 -3 -0.5 -8t-7.5 -8.5t-10.5 -5t-8.5 2.5z" />
    <glyph glyph-name="a" unicode="a" horiz-adv-x="367" 
d="M218 394q0 8 12.5 13t28.5 5t29.5 -5t15.5 -17q1 -3 4 -32t7.5 -70t9.5 -88.5t9 -88.5t7 -68.5t3 -29.5q2 -12 -8.5 -20t-25.5 -11.5t-28.5 -3t-17.5 5.5t-7.5 16.5t-6 23.5t-4 21l-1.5 9q-12 -15 -41 -26.5t-62.5 -9t-64.5 24.5t-46 75q-16 59 -4.5 104t40 74t69 40.5
t83.5 2.5zM226 268q-3 1 -14.5 6t-27.5 8t-34.5 0t-34.5 -18q-15 -13 -21.5 -33.5t-6.5 -43t5.5 -44.5t16.5 -38t26 -24t33 -2q31 10 44.5 37t16.5 57.5t0.5 57.5t-3.5 37z" />
    <glyph glyph-name="b" unicode="b" 
d="M36 549q0 13 14.5 18.5t32.5 4.5t32.5 -7t14.5 -15q0 -5 -1 -22t-3 -40.5t-4 -49.5t-4 -47.5t-2.5 -35.5t0.5 -14q34 8 72 2t70.5 -25.5t54 -51.5t21.5 -76q0 -36 -24 -62.5t-56 -45t-64 -30t-49 -15.5q2 -9 4 -21t2 -20q0 -9 -12 -15.5t-27 -8t-28 1.5t-14 13
q-20 114 -24 251t-6 311zM130 92q39 9 71 23q27 12 49.5 30t23.5 44q0 19 -13 39t-32.5 34.5t-43 21t-42.5 -0.5q-14 -5 -17.5 -35t-2.5 -65q1 -40 7 -91z" />
    <glyph glyph-name="c" unicode="c" horiz-adv-x="354" 
d="M205 222q-4 8 -7.5 21t-10.5 25t-17.5 20.5t-28.5 7.5q-10 0 -18 -10.5t-12.5 -28.5t-6 -41.5t1.5 -49.5q7 -53 25 -82t44 -26q21 3 40 14.5t34.5 25t27 25t19.5 13.5q16 4 30 -9t13 -29q0 -8 -12 -23t-33.5 -30t-52.5 -27t-70 -13q-66 -3 -106 41t-42 122q-1 22 4 53
t17.5 60t35 49.5t55.5 21.5q37 2 61 -11.5t37.5 -32t19 -37t6.5 -27.5q2 -12 -5 -19.5t-17 -10.5t-19.5 -1.5t-12.5 9.5z" />
    <glyph glyph-name="d" unicode="d" horiz-adv-x="346" 
d="M201 546q0 15 16 23.5t35.5 9.5t36 -5t16.5 -20q0 -11 0.5 -54t1 -101.5t1 -125t1 -125t1 -101.5t0.5 -53q0 -6 -11 -11.5t-24 -7.5t-25 0.5t-13 12.5q-2 8 -3 19.5t-2.5 22.5t-2 19.5t-0.5 11.5q-18 -4 -40 -6.5t-45.5 -0.5t-45.5 9.5t-39 23.5t-27 41.5t-9 63.5
q0 33 11 58t28.5 43t38.5 29.5t41.5 17.5t38.5 7t29 -1q-1 16 -2.5 44t-3 57.5t-2.5 56.5t-1 42zM213 295q-29 4 -51.5 -4t-37.5 -24.5t-21.5 -39.5t-4.5 -49q3 -48 33 -68.5t93 -1.5l-6 92q-2 35 -3.5 64t-1.5 31z" />
    <glyph glyph-name="e" unicode="e" horiz-adv-x="377" 
d="M111 141q8 -37 22.5 -54.5t32.5 -20.5t38 4.5t39 20t36 27t29 24.5q8 7 18.5 2.5t18.5 -14t10 -22t-6 -20.5q-9 -8 -28 -21.5t-44.5 -26t-55.5 -21.5t-59 -9q-53 1 -89.5 33.5t-47.5 94.5q-5 27 -2.5 59.5t15.5 62.5t36.5 53t59.5 31q35 8 64.5 -0.5t51.5 -23.5
t35.5 -31.5t16.5 -24.5q6 -17 2.5 -31.5t-23.5 -22.5q-5 -2 -32 -12.5t-58 -22.5t-55.5 -22.5t-24.5 -11.5zM240 251q1 0 -3.5 7t-14.5 14.5t-26 12.5t-39 1q-17 -3 -27 -16t-14.5 -26.5t-5.5 -25l-1 -11.5l20.5 6.5t44.5 15t44.5 15.5t21.5 7z" />
    <glyph glyph-name="f" unicode="f" horiz-adv-x="342" 
d="M238 387q-5 24 -10.5 45t-12.5 36t-15.5 23t-20.5 5q-6 -2 -9.5 -11t-6 -23.5t-3 -32.5t-0.5 -37q0 -44 4 -98q32 6 59 11q23 4 44.5 7.5t29.5 4.5q7 1 12.5 -6.5t8.5 -17.5t2 -19t-7 -11q-6 -3 -29 -8t-47.5 -10.5t-44.5 -10l-20 -4.5l4 -26t9.5 -59.5t11 -66.5t8.5 -48
q2 -10 -11 -16t-29.5 -7.5t-31.5 1.5t-17 10q-2 4 -3.5 14.5t-3 25t-3.5 31.5t-4 35q-4 41 -9 92q-13 -2 -24 -5q-10 -2 -21 -4.5t-20 -4.5t-14 6.5t-6.5 19.5t1 21t8.5 12t17.5 4.5t22.5 5.5q13 4 28 7q-2 20 -3.5 48.5t-0.5 59t5.5 61t14 55.5t25 40.5t39.5 17.5
q30 2 53.5 -18t39.5 -47.5t24.5 -56t8.5 -43.5q0 -8 -7.5 -13.5t-17 -7t-18 1.5t-10.5 11z" />
    <glyph glyph-name="g" unicode="g" horiz-adv-x="316" 
d="M150 356q-1 9 12.5 15.5t30.5 9t32.5 0t17.5 -12.5q2 -7 7 -36.5t11.5 -73t12.5 -96.5t10 -106.5t4.5 -103t-5.5 -85.5q-5 -32 -20.5 -53.5t-37.5 -34t-47.5 -17t-50.5 -2.5q-49 4 -89.5 29t-59.5 60q-5 10 1.5 19t17.5 14.5t23 6.5t17 -6q24 -32 51 -48.5t51.5 -20.5
t43.5 3.5t27 23.5q9 17 9 53t-3 73q-4 43 -12 93l-6.5 -9t-19 -18.5t-31 -16.5t-43.5 -2q-41 8 -63 42.5t-18 102.5q1 33 12 59t29 45.5t41.5 33t49.5 21.5zM161 275q-23 -5 -39 -23t-25 -41.5t-11.5 -49.5t2.5 -47t16 -33.5t29 -9.5q23 4 31 32.5t7.5 63t-5 66t-5.5 42.5z
" />
    <glyph glyph-name="h" unicode="h" horiz-adv-x="352" 
d="M29 564q0 12 13.5 17.5t30 5.5t29.5 -4.5t13 -11.5q-1 -26 0 -68l2 -84q1 -48 2 -101q10 10 22 17q11 6 26.5 11t35.5 3q32 -3 54.5 -22t36.5 -47t21.5 -62.5t11 -68.5t3.5 -65.5t-1 -52.5q0 -10 -10.5 -14t-22.5 -3t-21.5 6.5t-9.5 15.5v40t-2 54t-6 58.5t-10.5 54
t-17 41t-25.5 18.5q-23 4 -38 -20t-23.5 -64.5t-11.5 -93.5t-1 -108q0 -11 -12.5 -16t-27.5 -4.5t-27.5 5.5t-12.5 14q-6 78 -14 218t-7 331z" />
    <glyph glyph-name="i" unicode="i" horiz-adv-x="177" 
d="M44 334q1 9 14.5 13.5t29.5 3.5t29.5 -6t14.5 -14q1 -10 1 -35.5v-58.5t-1 -68.5t-1.5 -65.5t-1 -50.5t-0.5 -22.5q-2 -10 -12.5 -15t-23.5 -5.5t-24 2.5t-13 9q-3 8 -5 32.5t-3.5 56.5t-2.5 68.5t-1.5 68.5t-0.5 55.5t1 31.5zM48 419q0 15 11.5 22.5t25.5 7.5t26.5 -7
t13.5 -20t-10.5 -21t-26 -9.5t-27.5 5t-13 22.5z" />
    <glyph glyph-name="j" unicode="j" horiz-adv-x="165" 
d="M26 354q-1 12 12.5 18t30 6.5t30.5 -4t16 -13.5q1 -6 3 -33t4.5 -67.5t4 -90t2 -101t-1 -100.5t-5.5 -89q-4 -31 -19 -53t-37.5 -35t-48.5 -17t-50.5 1.5t-45.5 20t-33 38.5q-4 8 1 17.5t13.5 16t18 7.5t14.5 -6q15 -23 34 -32t36 -7.5t30.5 12t18.5 28.5q7 29 5 85.5
t-8 125t-13.5 140.5t-11.5 132zM22 446q-1 15 10.5 24t25.5 10.5t26.5 -4t14.5 -18.5q2 -12 -9.5 -21.5t-26 -12.5t-27.5 1.5t-14 20.5z" />
    <glyph glyph-name="k" unicode="k" horiz-adv-x="411" 
d="M43 582q1 12 16 17t32.5 3.5t32 -8.5t14.5 -19v-308q37 26 68 48q26 18 49 34.5t28 19.5q6 3 13 -1t12.5 -11.5t7.5 -15.5t-2 -12l-75 -75q-26 -26 -58 -57l210 -109q6 -5 5 -15.5t-6 -20.5t-12.5 -16t-14.5 -3q-5 2 -17 6.5t-28.5 11t-36 14t-38.5 15.5q-46 18 -100 39
q0 -36 1 -65q1 -25 1 -47v-27q0 -8 -12.5 -13t-27 -5.5t-27.5 4t-14 15.5q-9 72 -15.5 152.5t-9.5 160t-2 153.5t6 135z" />
    <glyph glyph-name="l" unicode="l" horiz-adv-x="188" 
d="M48 544q1 16 15 23t30.5 6.5t30 -7.5t13.5 -18q0 -32 1.5 -85.5t2.5 -122t1 -149t-2 -167.5q0 -10 -11 -15t-24.5 -5t-25 3.5t-12.5 11.5q-14 92 -20.5 223.5t1.5 301.5z" />
    <glyph glyph-name="m" unicode="m" horiz-adv-x="551" 
d="M29 386q1 16 14 22t28 5.5t27.5 -7t13.5 -16.5q1 -6 1.5 -16t1.5 -19t1.5 -15t0.5 -5t5 10t15 19t26 18.5t39 7.5q24 -2 40 -16.5t26 -31.5q11 -20 17 -46q10 19 23 34q11 13 28.5 23.5t41.5 9.5q37 -1 61.5 -25.5t40.5 -61t24.5 -79t12 -80t4.5 -65t1 -32.5q1 -8 -9 -14
t-22.5 -7.5t-24 1.5t-14.5 14q-2 7 -4.5 31t-6 56t-9.5 67.5t-14 66t-19 50.5t-26 22q-18 2 -27.5 -11.5t-14 -37.5t-4.5 -55t1.5 -63.5t3 -64t1.5 -55.5q0 -10 -14 -15.5t-30.5 -5.5t-31 5t-15.5 16q-1 7 0 28t1.5 50.5t0 63t-4.5 65.5q-8 61 -25.5 83.5t-36 16.5t-32 -36
t-12.5 -73q1 -20 1.5 -41t1 -46.5t2 -57t4.5 -72.5q1 -11 -14.5 -18.5t-35 -9t-36 3t-17.5 16.5q-1 8 -2 37t-2.5 69t-3 86t-2.5 87t-1 72.5t1 41.5z" />
    <glyph glyph-name="n" unicode="n" horiz-adv-x="403" 
d="M36 339q1 12 12.5 18.5t26 7.5t26 -2.5t12.5 -10.5q1 -8 2 -14t2 -11q1 -6 2 -11q11 10 26 19q12 8 29 14t37 6q40 0 68 -17.5t46 -45.5t28.5 -64t15 -73.5t5.5 -72.5t0 -62q0 -11 -10.5 -16.5t-23.5 -6t-24 4t-12 13.5q-3 41 -6 91t-11 93.5t-24 73.5t-47 31
q-17 0 -31.5 -7.5t-25 -18.5t-16.5 -23.5t-5 -21.5q1 -14 2 -45.5t2.5 -65.5t3 -62.5t2.5 -34.5q1 -12 -15 -19.5t-36.5 -9t-37.5 3.5t-17 17q-1 8 -1.5 32.5t-1 57.5t-1.5 70t-1.5 70.5t-0.5 58v33.5z" />
    <glyph glyph-name="o" unicode="o" 
d="M87 309q33 22 71.5 20.5t73 -20t60.5 -50t36 -68.5q9 -37 -4 -71.5t-40.5 -58.5t-66.5 -35t-82 -1q-32 9 -55.5 28.5t-37.5 45.5t-18 55.5t1 58t20.5 54t41.5 42.5zM143 264q-17 -8 -26 -30.5t-7.5 -49.5t14.5 -53t41 -39q22 -10 42 -6.5t35 15t23.5 29.5t6.5 36
q-2 23 -15 44.5t-32 36.5t-41 20.5t-41 -3.5z" />
    <glyph glyph-name="p" unicode="p" horiz-adv-x="341" 
d="M29 391q0 9 11.5 15t25.5 8t26.5 -2.5t13.5 -16.5l6 -96q8 11 19 20q9 8 22 14.5t28 8.5t36.5 -3.5t42 -22.5t37 -48t21.5 -79q5 -51 -7.5 -83t-32.5 -50t-42.5 -24.5t-37.5 -6.5t-27.5 2.5t-21.5 6.5q-11 4 -19 9q5 -62 9 -113q1 -22 3 -43t3.5 -39t2.5 -31t1 -17
q0 -9 -12.5 -15t-28.5 -8t-30 0.5t-15 10.5q-2 8 -4 38t-4.5 73t-5.5 95t-7 104t-6.5 101t-3.5 89t-1.5 67t-1.5 36zM124 106q0 -1 6 -6t16.5 -10.5t23.5 -10t28 -3.5q26 2 43 24.5t15 65.5q-1 22 -5.5 45t-13.5 41t-22 29t-31 10q-15 -1 -28.5 -12.5t-22 -34.5t-11.5 -57.5
t2 -80.5z" />
    <glyph glyph-name="q" unicode="q" horiz-adv-x="321" 
d="M173 382q0 10 16 16t35.5 7t36 -5t16.5 -20q0 -62 -1 -124.5t-1.5 -121t0 -111t2.5 -92.5t7 -65.5t14 -30.5q13 -9 30 -1.5t33.5 23.5t31.5 37t25 40q5 9 17 10t23 -3.5t18 -13.5t3 -19q-6 -14 -19 -31.5t-31 -35t-39 -33t-42 -25t-41.5 -11.5t-37.5 7q-32 16 -52 82
t-28 198q-18 -9 -37 -13q-17 -4 -36.5 -3t-39.5 12q-16 9 -28.5 28.5t-19.5 46t-6 57t13 61.5q14 38 37.5 56.5t46.5 25.5q26 8 55 6v12q0 6 -0.5 14.5t-0.5 19.5zM177 293q-29 4 -47.5 -7t-28.5 -30.5t-12.5 -44t0.5 -47t11 -39.5t19 -22q10 -4 21.5 -2t21 6.5t16 9
t6.5 5.5q0 9 -1 35t-2 55t-2.5 52.5t-1.5 28.5z" />
    <glyph glyph-name="r" unicode="r" horiz-adv-x="342" 
d="M37 363q2 12 15.5 17t28.5 6t28 -3t13 -10q1 -7 1.5 -18.5t1 -22.5t1 -19t0.5 -9q1 1 6 8t15 14.5t25 14t36 7.5t39.5 -9.5t33.5 -27.5t25 -37.5t14 -40.5q1 -6 -5 -12.5t-15 -9.5t-18 -1.5t-14 9.5t-10 22.5t-12 28t-17.5 23t-26.5 7.5t-29.5 -15t-22 -45t-10.5 -86.5
t6 -138.5q1 -12 -13 -19.5t-32 -9t-34 3.5t-17 17q-2 8 -3.5 35.5t-3 64.5t-3 79t-2.5 78.5t-1.5 64t0.5 34.5z" />
    <glyph glyph-name="s" unicode="s" 
d="M240 315q-45 23 -81 26.5t-48 -23.5q-8 -17 -0.5 -32t21 -26.5t28 -19.5t20.5 -11q24 -11 51 -23t50.5 -29t38 -40.5t13.5 -57.5q-2 -37 -20.5 -62t-46.5 -38.5t-62 -16t-67.5 4t-63 22.5t-47.5 39q-6 8 -1.5 19t14 19.5t20.5 11t19 -6.5q19 -25 47.5 -37t54.5 -12t45 11
t21 32q1 19 -12.5 33t-36 26t-49.5 23.5t-52 26.5t-44 34t-25 47q-5 23 1.5 48.5t20.5 46.5q19 30 48.5 42t61.5 11t63 -13t55 -30q4 -4 3 -13.5t-6 -18.5t-14 -14t-20 1z" />
    <glyph glyph-name="t" unicode="t" horiz-adv-x="348" 
d="M108 511q0 10 14 15.5t31 5.5t31.5 -5t14.5 -17q0 -8 0.5 -34t0.5 -54v-72q25 2 46 4q18 2 36 3.5t28 2.5q10 0 16 -7.5t7 -17.5t-2 -18.5t-10 -9.5q-8 -2 -28.5 -4t-40.5 -4q-25 -3 -52 -5q0 -73 1 -133v-50.5v-45v-35v-18.5q-1 -12 -13.5 -18.5t-27 -6.5t-26.5 6
t-13 18q0 5 -1 19.5t-1.5 35t-1.5 44.5l-2 48q-2 57 -4 127q-18 -2 -35 -3l-28 -2t-20 0q-6 0 -9.5 7.5t-3.5 16.5t3 17t10 9t20 2.5t27 3.5q16 2 34 5q-1 41 -1 75v95z" />
    <glyph glyph-name="u" unicode="u" horiz-adv-x="368" 
d="M29 328q0 12 10 17t22.5 5t23 -5t10.5 -12q2 -66 2.5 -116.5t3.5 -84.5t11.5 -51.5t28.5 -17.5q21 0 34 20.5t21 57.5t12.5 86t8.5 106q1 12 17 18.5t35 7t35 -6t16 -21.5q0 -85 3 -171.5t8 -163.5q1 -9 -10.5 -15.5t-25.5 -9t-26 -1t-13 7.5q-2 11 -5 26.5t-5 29.5
q-3 16 -6 33q-14 -18 -31 -31q-14 -11 -34.5 -20t-43.5 -7q-27 2 -46 15t-31.5 48t-18.5 96.5t-6 159.5z" />
    <glyph glyph-name="v" unicode="v" horiz-adv-x="356" 
d="M23 345q-3 15 9.5 23.5t29.5 11t32 -0.5t17 -12q1 -6 7 -30t15 -56.5t18.5 -69t18 -67t13.5 -50.5l5 -20q-1 0 4 20t13 49.5t17.5 64.5t18.5 67t15.5 56.5t8.5 31.5q3 11 15 14t24.5 -0.5t22 -11.5t7.5 -18q-3 -10 -11 -38.5t-19 -66.5t-23 -79.5t-22.5 -77.5
t-18.5 -60.5t-10 -27.5q-5 -9 -21.5 -13.5t-34.5 -4.5t-33 4.5t-19 13.5q-3 6 -11 32.5t-18.5 63.5t-22.5 78.5t-22 78.5t-17 63t-8 32z" />
    <glyph glyph-name="w" unicode="w" horiz-adv-x="548" 
d="M29 350q0 11 14.5 16.5t32 6.5t32.5 -3.5t16 -14.5q4 -81 8.5 -140.5t11.5 -100.5q16 47 31 89q13 35 26.5 71t24.5 54q4 7 19 11t32 4t32 -4t19 -13q14 -32 30 -77.5t30 -87t25 -70.5t15 -29q3 0 5 20.5t3 51t1 67t-0.5 69t-1.5 56t-1 28.5q0 9 12.5 13t27.5 3.5
t28 -5.5t14 -14q3 -44 3 -93t-2.5 -95t-7.5 -83.5t-12 -59.5q-3 -9 -16.5 -16t-30 -9.5t-32.5 0.5t-23 14q-24 38 -46 83.5t-39.5 85t-29 65.5t-13.5 26t-8.5 -15.5t-15.5 -40t-19 -54t-19.5 -57.5t-17.5 -51t-12 -35q-5 -11 -20.5 -16.5t-33 -6t-32.5 4t-18 13.5
q-6 15 -13 42.5t-14 69t-11 98t-4 129.5z" />
    <glyph glyph-name="x" unicode="x" horiz-adv-x="353" 
d="M24 338q-6 8 3 19t23 20t29 12t22 -4q6 -8 20.5 -26.5t28.5 -38.5q17 -24 36 -51q8 18 17 35q7 14 14.5 30t12.5 27q3 7 12.5 8.5t18.5 -1t15.5 -8.5t5.5 -13q-2 -8 -11 -29t-19 -43q-11 -26 -26 -56q20 -26 38 -52t32 -47.5t23 -37t12 -21.5q2 -6 -5.5 -15.5
t-18.5 -16.5t-23.5 -9.5t-19.5 5.5q-8 8 -21.5 25t-27.5 35q-16 21 -34 45q-20 -33 -37 -60q-15 -23 -29 -44.5t-21 -26.5q-6 -5 -14.5 -2.5t-16 8.5t-11.5 14.5t1 16.5t18 31.5t28 49.5q17 30 38 67q-28 37 -51 69q-20 27 -38.5 52t-23.5 33z" />
    <glyph glyph-name="y" unicode="y" horiz-adv-x="384" 
d="M23 310q-4 8 3 17t17.5 14t21 5.5t14.5 -7.5q34 -78 68.5 -136.5t58.5 -83.5q6 20 13.5 50.5t16 65t17 70.5t17.5 68q3 12 19 14t32.5 -2.5t29.5 -13.5t10 -19q-5 -21 -15.5 -60.5t-25 -89t-31 -105t-33.5 -109t-33 -100t-29 -78.5q-5 -13 -17.5 -13.5t-25.5 5.5
t-22 15.5t-7 17.5q9 29 16 51.5t14 44.5t14.5 47.5t17.5 60.5q-29 33 -70 97.5t-91 173.5z" />
    <glyph glyph-name="z" unicode="z" horiz-adv-x="403" 
d="M33 350q16 4 46 8t61.5 6.5t59.5 3t40 -0.5q17 -2 30.5 -13t21 -25.5t8.5 -29.5t-6 -25q-8 -10 -22.5 -29t-31.5 -42t-35 -47t-32.5 -44t-24 -34t-8.5 -17t18.5 -0.5t46.5 8.5t68.5 14t83.5 16q11 2 18.5 -7.5t10.5 -22.5t1 -24.5t-9 -12.5q-38 -8 -87.5 -15.5t-97 -13.5
t-85 -8.5t-50.5 -0.5q-12 2 -20.5 12.5t-12.5 25t-1.5 30t12.5 27.5q4 5 18 23t32 41.5t37.5 49.5t35.5 48.5t25.5 37.5t7.5 17q-3 2 -23.5 -1t-45.5 -8l-47.5 -9.5t-29.5 -5.5q-8 -1 -14 9t-8.5 22.5t-0.5 23.5t10 13z" />
    <glyph glyph-name="braceleft" unicode="{" horiz-adv-x="422" 
d="M338 630q5 -2 7.5 -9.5t2 -16t-4 -15.5t-9.5 -7q-9 -1 -24.5 1.5t-32 4t-32 -0.5t-24.5 -12q-16 -18 -14.5 -48t8.5 -66t15.5 -75.5t7.5 -77t-16 -70.5t-54 -55q31 -13 45 -32t17.5 -40.5t-0.5 -44t-8 -43.5t-4.5 -38t8.5 -28q8 -9 28.5 -6.5t44 10t44 16.5t28.5 12
q11 5 19.5 -2t13 -18t4 -22.5t-8.5 -14.5q-8 -4 -38 -17t-69 -24t-78.5 -14.5t-65.5 13.5q-17 11 -24.5 29.5t-9.5 41t0.5 46t5 45t3 38.5t-4.5 26q-5 8 -17.5 12t-27 6t-27.5 2.5t-18 1.5t-8.5 10.5t-3.5 20.5t3.5 20t12.5 10t21.5 1.5t26.5 4t28 11t26 21.5q7 8 6 35
t-5 64t-9 79t-7 81.5t1.5 71.5t16.5 49q12 15 35.5 22t51.5 7.5t58 -4t56 -12.5z" />
    <glyph glyph-name="bar" unicode="|" horiz-adv-x="182" 
d="M44 719q0 13 14.5 19t32 6t32.5 -4.5t15 -11.5v-43.5t-0.5 -102.5t-1 -141.5t-1 -160.5t-1 -161t-1 -141t-0.5 -101.5v-43.5q0 -7 -10 -12t-23.5 -6t-25 2.5t-14.5 14.5q-1 5 -2.5 44.5t-3 100.5t-2.5 138t-2.5 157.5t-2.5 157.5t-2 139t-1 102.5v47.5z" />
    <glyph glyph-name="braceright" unicode="}" horiz-adv-x="365" 
d="M47 557q-9 -1 -15.5 6t-9 16.5t-0.5 18.5t9 13q12 6 38.5 17t58.5 16t65.5 -2t57.5 -38q21 -27 24.5 -59.5t-2.5 -66.5t-18.5 -68.5t-23 -66.5t-16 -59.5t2 -47.5t32 -31.5t73.5 -11.5q8 0 13.5 -11.5t6.5 -25t-2.5 -25t-13.5 -10.5q-56 3 -80.5 0.5t-30 -11.5t3.5 -23.5
t21 -35t21.5 -46.5t5.5 -57q-2 -17 -18 -28t-39 -18t-50 -10.5t-50.5 -4.5t-41 -0.5t-22.5 1.5q-7 1 -10 9t-2.5 17t5 16.5t11.5 8.5q10 1 33.5 0.5t46.5 0.5t40 5t15 13t-17.5 31.5t-28.5 50.5t-15.5 57.5t23.5 53.5q-36 25 -44.5 61t-0.5 76t26.5 82.5t36.5 80.5t29 69.5
t5 51.5q-5 16 -23.5 16t-42 -6.5t-47.5 -15t-40 -9.5z" />
    <glyph glyph-name="asciitilde" unicode="~" horiz-adv-x="342" 
d="M23 264q2 5 11.5 21.5t24 33.5t33 30.5t38.5 12.5q21 -1 37 -16.5t28.5 -34t22 -33t17.5 -13.5q4 1 10.5 8t13 17t12.5 20t10 16t11.5 5.5t14 -4t11 -10t1.5 -13.5q-2 -5 -13 -23t-27.5 -37.5t-36.5 -35t-40 -15.5q-25 0 -40.5 15.5t-25 34t-15.5 33.5t-12 15
q-5 0 -12.5 -8t-15.5 -18.5t-16 -20t-13 -12.5q-5 -4 -11 -1t-10.5 8.5t-7 12.5t-0.5 12z" />
    <glyph glyph-name="exclamdown" unicode="&#xa1;" horiz-adv-x="188" 
d="M145.003 16.0342q0 -13.999 -14.999 -20.499q-14.999 -6.49902 -32.998 -6.49902t-32.998 6.49902q-14.999 6.5 -16.999 19.499q-1 8.99902 -1.5 43.4971t-0.5 81.9951t0.5 101.494q0.5 53.9961 0.5 101.493q0 47.498 1 81.4951q1 33.998 1 40.998
q1 10.999 13.499 18.999q12.499 7.99902 26.998 10.499t27.499 -2.5q12.999 -5 14.999 -19.999q2 -9.99902 3.49902 -44.9971q1.5 -34.998 3 -82.4951t3.5 -101.493q2 -53.9971 3 -101.494t1.5 -81.9951t-0.5 -44.4971zM48.0088 550.002q-2 14.999 9.49902 23.998
q11.5 9 26.499 11.999q14.999 3 28.498 -1q13.499 -3.99902 15.499 -14.999q2 -15.999 -9 -26.498q-10.999 -10.499 -25.998 -14.499t-28.498 1q-13.499 4.99902 -16.499 19.999z" />
    <glyph glyph-name="cent" unicode="&#xa2;" horiz-adv-x="380" 
d="M152 552q1 11 13 17t26 6t26 -6t12 -18q0 -6 0.5 -28.5t1.5 -56.5q34 -6 55 -21t33 -31.5t16.5 -32.5t6.5 -23q2 -12 -5.5 -20t-18 -11.5t-20.5 -1.5t-13 10q-3 6 -7 15t-10.5 19t-15 19.5t-20.5 15.5l2 -210q14 9 25.5 19.5t21.5 20t17.5 16.5t13.5 9q17 5 31.5 -9.5
t14.5 -31.5q0 -7 -9 -19.5t-25 -26t-38.5 -25.5t-50.5 -19q0 -42 0.5 -70.5t0.5 -33.5q0 -10 -12 -16.5t-26 -7.5t-26 4t-13 17q-1 7 -1 34.5t-1 68.5q-45 7 -75 32.5t-44.5 60.5t-14.5 75t14.5 76t43 62.5t71.5 35.5v86zM153 400q-25 -16 -36.5 -47t-10.5 -64.5t14 -63
t36 -41.5z" />
    <glyph glyph-name="sterling" unicode="&#xa3;" horiz-adv-x="416" 
d="M290 277q7 0 12 -7.5t6 -16t-1 -16.5t-8 -9l-106 -15l-9 -102q45 -10 96.5 -23.5t109.5 -18.5q6 0 9 -7.5t2 -16.5t-6 -16.5t-15 -8.5q-57 -2 -111 6.5t-99 16.5q-5 -15 -10 -20q-16 -20 -42.5 -24.5t-51.5 2.5q-18 5 -28.5 17t-13.5 26.5t1.5 29.5t15.5 27q16 19 46 21
q1 17 1.5 37t2.5 42q-21 -2 -35 -3.5t-17 -0.5q-6 1 -10.5 9.5t-5.5 19t1.5 19t10.5 9.5l61 7q5 44 14 87.5t23 79.5t34.5 61t49.5 32q21 4 38 -2.5t29.5 -21t20.5 -35t10 -43.5q0 -6 -5.5 -11t-12.5 -7t-13.5 -0.5t-7.5 8.5q-7 35 -18 53t-27 12q-8 -3 -13.5 -21.5
t-9.5 -46t-6.5 -63t-5.5 -73.5q35 3 61.5 5.5t32.5 1.5zM82 42q2 0 2 9h-6q-4 -1 -4 -6t8 -3z" />
    <glyph glyph-name="currency" unicode="&#xa4;" horiz-adv-x="460" 
d="M158 441q29 16 60 15t59 -14q20 27 34.5 46t21.5 25q9 9 23.5 7t27 -10t19 -20t0.5 -22q-4 -6 -19.5 -27t-39.5 -53q15 -19 25 -41.5t13 -45.5q3 -38 -13 -71q25 -23 42 -38.5t22 -23.5q7 -9 2.5 -23.5t-14.5 -26.5t-23 -18t-22 1q-5 4 -24.5 21t-48.5 43
q-29 -16 -65.5 -20t-72.5 7l-67 -86q-6 -7 -16.5 -5.5t-20 7t-15.5 14t-2 16.5t20.5 34t40.5 64q-28 35 -32 81.5t15 88.5l-63 62q-6 6 -2.5 16.5t11 20t16.5 15t16 1.5q7 -5 25 -19.5t44 -34.5zM208 390q-18 -6 -30.5 -27.5t-15 -48.5t7 -54t35.5 -43q20 -12 40.5 -10.5
t37.5 12t28 27.5t12 35q1 23 -9 46t-27 39.5t-38 23.5t-41 0z" />
    <glyph glyph-name="yen" unicode="&#xa5;" horiz-adv-x="398" 
d="M349 176q7 0 12 -7.5t6 -16.5t-1 -16.5t-8 -8.5l-87 -12v-88q0 -12 -16.5 -19.5t-36 -9.5t-36.5 3t-17 19v33t1 48q-26 -4 -45 -5.5t-23 -0.5q-6 1 -10.5 9.5t-5.5 19t1.5 19t10.5 10.5l74 8v18t1 16q-26 -2 -44.5 -3t-22.5 0q-6 1 -10.5 9.5t-6 18.5t1 19t10.5 11
q5 1 20 1.5t37 2.5q-13 24 -32.5 60.5t-39.5 72.5t-37.5 65.5t-24.5 40.5q-10 13 -3 27.5t21 25t30 12.5t25 -10q11 -17 33.5 -55t45.5 -79q26 -48 57 -102l94 223q4 9 14.5 10t20 -2.5t15.5 -12t1 -19.5l-101 -251q26 1 44 1.5t23 0.5q7 0 12 -7.5t6.5 -16t0 -16.5t-7.5 -9
q-5 -1 -27.5 -3.5t-53.5 -5.5v-33q29 2 51.5 3.5t27.5 1.5z" />
    <glyph glyph-name="brokenbar" unicode="&#xa6;" horiz-adv-x="182" 
d="M44 719q0 13 14.5 19t32 6t32.5 -4.5t15 -11.5l-3 -391q0 -9 -14 -14t-30 -6t-29 4t-13 16zM60 -168q-1 5 -2.5 38.5t-3 87t-2.5 121.5t-2 143q0 10 13 15.5t29 5.5t29.5 -4t13.5 -13q0 -76 -0.5 -145.5t-1 -123.5t-0.5 -87v-37q0 -7 -10 -12t-23.5 -6t-25 2.5
t-14.5 14.5z" />
    <glyph glyph-name="section" unicode="&#xa7;" 
d="M333 276q-2 -36 -19.5 -60t-43.5 -38q13 -14 20 -29.5t6 -32.5q-3 -56 -35 -84t-75.5 -32.5t-88 12.5t-71.5 52q-6 9 -1.5 20t14 19.5t20.5 10.5t19 -7q19 -24 41.5 -36t42 -12t33 10.5t15.5 31.5q2 25 -23 42.5t-57.5 35t-62 38t-37.5 50.5q-11 41 2 72t39 51
q-16 12 -27.5 25.5t-15.5 30t0.5 36t20.5 43.5q19 30 48.5 42t61.5 11t63 -13t55 -30q4 -4 3 -13.5t-6 -18.5t-14 -14t-20 1q-45 23 -81 26.5t-48 -23.5q-6 -12 9 -26t40 -29.5t55.5 -33t57 -37.5t44 -42.5t16.5 -48.5zM246 261q1 14 -8 26t-24 22.5t-34.5 20.5t-40.5 20
q-17 -5 -29.5 -13t-16.5 -21q-3 -11 6.5 -22t26.5 -22t39.5 -23.5t44.5 -25.5q15 5 24.5 14.5t11.5 23.5z" />
    <glyph glyph-name="dieresis" unicode="&#xa8;" horiz-adv-x="112" 
d="M7 420q0 8 6 14.5t15 6.5q8 0 14.5 -6.5t6.5 -14.5q0 -9 -6.5 -15t-14.5 -6q-9 0 -15 6t-6 15zM66 420q0 8 5.5 14.5t13.5 6.5t14 -6.5t6 -14.5t-6 -13.5t-14 -5.5q-19 0 -19 19z" />
    <glyph glyph-name="copyright" unicode="&#xa9;" horiz-adv-x="581" 
d="M254 580q60 3 110 -17.5t88.5 -56.5t64 -84t35.5 -100t3 -104t-33.5 -95.5t-73.5 -75t-117 -42.5q-58 -9 -112.5 3t-97 43.5t-69 81t-29.5 113.5q-4 73 14 134t50.5 104.5t76 68.5t90.5 27zM275 511q-36 -2 -65.5 -23t-50.5 -55t-32.5 -76t-11.5 -85t12 -83t38 -68.5
t66.5 -43t98.5 -6.5q66 9 102 45.5t47.5 86t0 105t-39.5 101t-70.5 75t-94.5 27.5zM325 315q3 -6 10 -5.5t14.5 4t12.5 9t4 9.5q-1 7 -5 21t-14.5 28.5t-28.5 24.5t-47 9q-26 -1 -42.5 -17t-26.5 -37.5t-13.5 -45.5t-2.5 -40q2 -60 32.5 -93.5t80.5 -31.5q29 1 53 10
t40.5 20.5t26 23t9.5 17.5q0 12 -11 22t-22 7q-6 -2 -15 -10t-21 -18t-26.5 -18t-30.5 -10q-20 -3 -33.5 17.5t-18.5 61.5q-5 40 3 69t23 30q13 1 21.5 -5.5t14 -16t8 -19.5t5.5 -16z" />
    <glyph glyph-name="logicalnot" unicode="&#xac;" horiz-adv-x="607" 
 />
    <glyph glyph-name="registered" unicode="&#xae;" horiz-adv-x="581" 
d="M254 580q60 3 110 -17.5t88.5 -56.5t64 -84t35.5 -100t3 -104t-33.5 -95.5t-73.5 -75t-117 -42.5q-58 -9 -112.5 3t-97 43.5t-69 81t-29.5 113.5q-4 73 14 134t50.5 104.5t76 68.5t90.5 27zM275 511q-36 -2 -65.5 -23t-50.5 -55t-32.5 -76t-11.5 -85t12 -83t38 -68.5
t66.5 -43t98.5 -6.5q66 9 102 45.5t47.5 86t0 105t-39.5 101t-70.5 75t-94.5 27.5zM209 422q0 6 7.5 10.5t19.5 6.5q19 3 46.5 0.5t53 -12t43.5 -27.5t20 -45q1 -18 -5.5 -32.5t-14.5 -24.5q-10 -11 -21 -20l56 -92q4 -6 -1 -13.5t-12.5 -12.5t-15 -7t-9.5 3l-69 96l-34 -8
q-1 -23 -1 -45v-71q0 -5 -9 -9.5t-20 -6.5t-20 0t-9 10q0 46 -0.5 94t-1.5 89.5t-2 73t-1 43.5zM273 378q-1 0 -0.5 -13t1.5 -29q1 -18 1 -42q18 5 32 13q12 7 22.5 16t10.5 23q0 13 -10.5 19.5t-23.5 9.5q-15 4 -33 3z" />
    <glyph glyph-name="macron" unicode="&#xaf;" horiz-adv-x="142" 
d="M122 440q6 0 9 -6t3.5 -13.5t-1.5 -14.5t-8 -7l-106 -3q-6 0 -8.5 5.5t-3 12.5t2 13t7.5 6z" />
    <glyph glyph-name="acute" unicode="&#xb4;" horiz-adv-x="116" 
d="M71 481q4 5 12 3t14.5 -8t9.5 -13t-2 -12l-73 -63q-5 -3 -10.5 -2t-9.5 4.5t-5 9t3 10.5z" />
    <glyph glyph-name="mu" unicode="&#xb5;" horiz-adv-x="439" 
d="M47 354q1 12 15 17.5t30.5 5t30 -7.5t14.5 -22q0 -10 2 -34t6.5 -54.5t11 -63.5t15 -60t20 -44t26.5 -15q15 1 26.5 19t20 45.5t14.5 59.5t10 62.5t5.5 55t1.5 35.5q0 17 14.5 23.5t32 6t32.5 -7.5t16 -17q0 -7 1.5 -33t2.5 -61.5t2.5 -75.5t2.5 -75.5t2 -60.5t1 -31
q1 -9 -8.5 -14t-21.5 -6.5t-23 0t-12 7.5q-2 5 -4 22.5t-4 36.5q-3 22 -4 47q-12 -28 -29 -49q-14 -18 -34 -33t-46 -15q-16 0 -29.5 7.5t-23.5 17t-16 17.5t-6 9q0 -1 -1 -20.5t-2.5 -43.5t-2.5 -47t-1 -32t-15 -14t-32.5 -5.5t-33 5t-16.5 18.5q-1 8 -1 40.5t1 77.5
t2 95.5t2.5 95t2.5 76.5t2 40z" />
    <glyph glyph-name="mu" unicode="&#x3bc;" horiz-adv-x="439" 
d="M47 354q1 12 15 17.5t30.5 5t30 -7.5t14.5 -22q0 -10 2 -34t6.5 -54.5t11 -63.5t15 -60t20 -44t26.5 -15q15 1 26.5 19t20 45.5t14.5 59.5t10 62.5t5.5 55t1.5 35.5q0 17 14.5 23.5t32 6t32.5 -7.5t16 -17q0 -7 1.5 -33t2.5 -61.5t2.5 -75.5t2.5 -75.5t2 -60.5t1 -31
q1 -9 -8.5 -14t-21.5 -6.5t-23 0t-12 7.5q-2 5 -4 22.5t-4 36.5q-3 22 -4 47q-12 -28 -29 -49q-14 -18 -34 -33t-46 -15q-16 0 -29.5 7.5t-23.5 17t-16 17.5t-6 9q0 -1 -1 -20.5t-2.5 -43.5t-2.5 -47t-1 -32t-15 -14t-32.5 -5.5t-33 5t-16.5 18.5q-1 8 -1 40.5t1 77.5
t2 95.5t2.5 95t2.5 76.5t2 40z" />
    <glyph glyph-name="paragraph" unicode="&#xb6;" horiz-adv-x="497" 
d="M279 12q0 -10 -11 -15t-24.5 -5t-25 3.5t-12.5 11.5l-7 174q-35 9 -67.5 23.5t-57.5 35.5t-39 49t-13 64q1 33 14.5 58t35.5 44.5t49 33.5t56 23q67 22 151 28v12v28q-1 13 16.5 23t39 12.5t39.5 -4t18 -25.5q2 -70 4.5 -138.5t4.5 -131t4 -117t4 -96.5t2.5 -68.5
t0.5 -33.5q0 -11 -20 -16.5t-43.5 -7t-43 2t-19.5 11.5l-7 487q-4 0 -11 -1q-14 -2 -41 -6z" />
    <glyph glyph-name="periodcentered" unicode="&#xb7;" horiz-adv-x="71" 
d="M7 302q0 12 8.5 20.5t19.5 8.5q12 0 20.5 -8.5t8.5 -20.5t-8.5 -20t-20.5 -8q-11 0 -19.5 8t-8.5 20z" />
    <glyph glyph-name="cedilla" unicode="&#xb8;" horiz-adv-x="169" 
d="M9 49q1 4 10.5 6t20 1t18.5 -5t7 -11q-1 -15 -3 -27q-2 -11 -3 -20.5t0 -12.5t16.5 -2.5t34 -3t34.5 -16t17 -40.5q1 -29 -19.5 -43t-46.5 -19.5t-49.5 -6t-29.5 -0.5q-6 -1 -7.5 5t-0.5 13.5t5 14t10 6.5t22 1.5t33 5.5t29.5 10t11.5 15t-15.5 13.5t-32 7.5t-33.5 5
t-20 7t-5.5 20.5t-2.5 32t-1 30v13.5z" />
    <glyph glyph-name="questiondown" unicode="&#xbf;" horiz-adv-x="288" 
d="M239.003 111.027q11.999 1.99902 18.999 -6.5q6.99902 -8.5 8.49902 -19.499t-2 -21.499q-3.49902 -10.499 -10.499 -12.499q-21.998 -5.99902 -56.9961 -12.499t-69.9961 -3.5t-63.4961 19.499t-38.498 57.4961q-5.99902 27.999 -0.5 50.9971q5.5 22.999 17.499 41.998
q12 18.998 28.999 33.498q16.998 14.499 32.998 25.998q15.998 11.499 28.498 19.999q12.499 8.49902 16.499 13.499q2 3 0.5 13.499t-4.5 25.998t-6.5 34.998q-3.49902 19.499 -5.49902 40.498q-1 6.99902 9.99902 12.999q10.999 5.99902 25.498 8.99902q14.5 3 26.999 2
t14.499 -9.99902q4 -12.999 9.99902 -36.998q6 -23.998 11 -48.9971q4.99902 -24.998 8.49902 -45.9971t1.5 -28.998q-3 -14.999 -13.499 -20.499q-10.5 -5.5 -26.499 -12.499q-26.998 -10 -51.9961 -22.999q-24.999 -12.999 -43.998 -27.498
q-18.998 -14.499 -28.498 -30.498q-9.49902 -15.999 -6.49902 -30.998q3.99902 -18.999 24.498 -23.499q20.499 -4.49902 46.9971 -2.5q26.499 2 53.9971 8t43.4971 8zM189.006 507.003q3 -14.999 -7.49902 -24.999q-10.5 -9.99902 -24.499 -12.999t-26.998 1
t-16.999 15.999q-3 11.999 6.99902 22.499q10 10.499 24.499 15.499q14.499 4.99902 27.998 2q13.499 -3 16.499 -18.999z" />
    <glyph glyph-name="Agrave" unicode="&#xc0;" horiz-adv-x="447" 
d="M160 556q5 10 21 13.5t34 1.5t34 -8.5t22 -15.5l6 -18t11.5 -37.5t15 -50t16.5 -55.5q19 -67 43 -149q6 -21 16 -52t19.5 -61.5t17 -54.5t9.5 -30q2 -9 -7 -16t-21 -9.5t-23 0t-14 11.5l-48 142q-53 -12 -96.5 -18.5t-66.5 -9.5l-39 -132q-3 -6 -19 -8.5t-32.5 0
t-28 10.5t-7.5 22q2 7 8.5 32t15.5 61.5t20.5 81.5t23 91t23 90.5t21 80t16.5 59.5t9 29zM227 436l-65 -235q37 5 66 9q25 4 45.5 7t20.5 4zM170 657q-4 4 -0.5 10.5t10 12.5t14 8.5t11.5 -2.5t11 -14.5t14.5 -19.5t13.5 -18.5t9 -11.5q2 -3 -0.5 -8t-7.5 -8.5t-10.5 -5
t-8.5 2.5z" />
    <glyph glyph-name="Aacute" unicode="&#xc1;" horiz-adv-x="447" 
d="M160 556q5 10 21 13.5t34 1.5t34 -8.5t22 -15.5l6 -18t11.5 -37.5t15 -50t16.5 -55.5q19 -67 43 -149q6 -21 16 -52t19.5 -61.5t17 -54.5t9.5 -30q2 -9 -7 -16t-21 -9.5t-23 0t-14 11.5l-48 142q-53 -12 -96.5 -18.5t-66.5 -9.5l-39 -132q-3 -6 -19 -8.5t-32.5 0
t-28 10.5t-7.5 22q2 7 8.5 32t15.5 61.5t20.5 81.5t23 91t23 90.5t21 80t16.5 59.5t9 29zM227 436l-65 -235q37 5 66 9q25 4 45.5 7t20.5 4zM220 702q4 5 12 3t14.5 -8t9.5 -13t-2 -12l-73 -63q-5 -3 -10.5 -2t-9.5 4.5t-5 9t3 10.5z" />
    <glyph glyph-name="Acircumflex" unicode="&#xc2;" horiz-adv-x="447" 
d="M160 556q5 10 21 13.5t34 1.5t34 -8.5t22 -15.5l6 -18t11.5 -37.5t15 -50t16.5 -55.5q19 -67 43 -149q6 -21 16 -52t19.5 -61.5t17 -54.5t9.5 -30q2 -9 -7 -16t-21 -9.5t-23 0t-14 11.5l-48 142q-53 -12 -96.5 -18.5t-66.5 -9.5l-39 -132q-3 -6 -19 -8.5t-32.5 0
t-28 10.5t-7.5 22q2 7 8.5 32t15.5 61.5t20.5 81.5t23 91t23 90.5t21 80t16.5 59.5t9 29zM227 436l-65 -235q37 5 66 9q25 4 45.5 7t20.5 4zM227 702q1 -3 8 -13t14.5 -21.5t13.5 -22t7 -13.5t-3 -7.5t-9.5 -7.5t-11 -4t-7.5 2l-29 49l-25 -52q-2 -5 -8.5 -5t-13 3
t-10.5 7.5t-2 9.5q2 3 6.5 13.5t9.5 22.5t9.5 22.5t5.5 12.5q2 3 9 4.5t14.5 2.5t14 0.5t7.5 -3.5z" />
    <glyph glyph-name="Atilde" unicode="&#xc3;" horiz-adv-x="447" 
d="M160 556q5 10 21 13.5t34 1.5t34 -8.5t22 -15.5l6 -18t11.5 -37.5t15 -50t16.5 -55.5q19 -67 43 -149q6 -21 16 -52t19.5 -61.5t17 -54.5t9.5 -30q2 -9 -7 -16t-21 -9.5t-23 0t-14 11.5l-48 142q-53 -12 -96.5 -18.5t-66.5 -9.5l-39 -132q-3 -6 -19 -8.5t-32.5 0
t-28 10.5t-7.5 22q2 7 8.5 32t15.5 61.5t20.5 81.5t23 91t23 90.5t21 80t16.5 59.5t9 29zM227 436l-65 -235q37 5 66 9q25 4 45.5 7t20.5 4zM147 636q3 7 8 15.5t11.5 16t14 13t15.5 6.5q9 0 16.5 -5.5t13 -12.5t10 -13t8.5 -6q6 0 10 7.5t9 12.5q6 7 17 2t7 -16
q-5 -12 -19.5 -27t-31.5 -16q-7 0 -12.5 4t-10 9t-9 9.5t-10.5 4.5q-8 0 -14.5 -10t-10.5 -13q-2 -1 -6.5 -0.5t-9 3t-7 6.5t0.5 10z" />
    <glyph glyph-name="Adieresis" unicode="&#xc4;" horiz-adv-x="447" 
d="M160 556q5 10 21 13.5t34 1.5t34 -8.5t22 -15.5l6 -18t11.5 -37.5t15 -50t16.5 -55.5q19 -67 43 -149q6 -21 16 -52t19.5 -61.5t17 -54.5t9.5 -30q2 -9 -7 -16t-21 -9.5t-23 0t-14 11.5l-48 142q-53 -12 -96.5 -18.5t-66.5 -9.5l-39 -132q-3 -6 -19 -8.5t-32.5 0
t-28 10.5t-7.5 22q2 7 8.5 32t15.5 61.5t20.5 81.5t23 91t23 90.5t21 80t16.5 59.5t9 29zM227 436l-65 -235q37 5 66 9q25 4 45.5 7t20.5 4zM167 641q0 8 6 14.5t15 6.5q8 0 14.5 -6.5t6.5 -14.5q0 -9 -6.5 -15t-14.5 -6q-9 0 -15 6t-6 15zM226 641q0 8 5.5 14.5t13.5 6.5
t14 -6.5t6 -14.5t-6 -13.5t-14 -5.5q-19 0 -19 19z" />
    <glyph glyph-name="Aring" unicode="&#xc5;" horiz-adv-x="447" 
d="M160 556q5 10 21 13.5t34 1.5t34 -8.5t22 -15.5l6 -18t11.5 -37.5t15 -50t16.5 -55.5q19 -67 43 -149q6 -21 16 -52t19.5 -61.5t17 -54.5t9.5 -30q2 -9 -7 -16t-21 -9.5t-23 0t-14 11.5l-48 142q-53 -12 -96.5 -18.5t-66.5 -9.5l-39 -132q-3 -6 -19 -8.5t-32.5 0
t-28 10.5t-7.5 22q2 7 8.5 32t15.5 61.5t20.5 81.5t23 91t23 90.5t21 80t16.5 59.5t9 29zM227 436l-65 -235q37 5 66 9q25 4 45.5 7t20.5 4zM211 685q22 4 37 -6.5t19 -26t-4.5 -31t-33.5 -19.5q-35 -6 -50 4.5t-15.5 26.5t12.5 31.5t35 20.5zM218 657q-8 -2 -12.5 -7.5
t-4 -11.5t5.5 -9.5t17 -1.5q8 2 11 7.5t1.5 11t-6.5 9.5t-12 2z" />
    <glyph glyph-name="AE" unicode="&#xc6;" horiz-adv-x="647" 
d="M149 139l-39 -132q-3 -6 -19 -8.5t-32.5 0t-28 10.5t-7.5 22q2 7 8.5 32t15.5 61.5t20.5 81.5t23 91t23 90.5t21 80t16.5 59.5t9 29q5 10 27.5 18t48.5 10.5t48.5 -2t28.5 -19.5v-1q1 -5 2 -8.5t2 -7.5t1 -8q64 3 118 6q22 1 44.5 2.5t41 2.5t31.5 1.5t17 0.5
q7 0 13 -7.5t8.5 -17.5t-1 -19t-15.5 -10q-6 -1 -20.5 -2.5t-33.5 -3.5t-41 -4l-44 -4q-52 -4 -114 -10l12 -177q59 9 107 17q21 3 41 6t37.5 5.5t29.5 4.5t17 2q9 0 14.5 -9.5t7 -21t-1.5 -21.5t-10 -11q-4 0 -16.5 -2t-30 -4.5t-39 -6t-42.5 -6.5q-51 -8 -112 -18l15 -141
q65 8 119 15q23 3 45 6t40.5 5.5t31.5 4t17 2.5q7 1 12.5 -6.5t7.5 -18t0 -20t-9 -11.5q-35 -11 -81.5 -21t-92.5 -18.5t-84 -14.5t-54 -8q-12 -2 -21.5 -0.5t-12.5 9.5q-2 6 -6.5 44.5t-9.5 95.5q-34 -6 -61 -9.5t-43 -5.5zM248 212q-6 61 -10.5 124t-8.5 114l-67 -249
q13 2 28 4q13 2 28 3.5t30 3.5z" />
    <glyph glyph-name="Ccedilla" unicode="&#xc7;" horiz-adv-x="452" 
d="M190 574q38 6 69 -10t54 -42.5t37.5 -56t20.5 -49.5q2 -9 -6.5 -16.5t-20 -11.5t-23 -2.5t-15.5 12.5q-8 21 -17 43.5t-21.5 40t-31 27t-43.5 4.5q-23 -4 -38.5 -25.5t-23.5 -54t-9.5 -73t3 -82t14.5 -81t25 -70.5t34 -50t42 -19q33 0 55.5 15.5t37.5 39t24.5 49
t15.5 45.5q3 9 13.5 13t21 2t18 -10t4.5 -22q-3 -13 -13 -39t-29 -54.5t-48 -54t-68 -36.5q-1 -5 -2 -12.5t-1.5 -15.5t-1 -14.5t-0.5 -9.5q1 -3 16.5 -2.5t34 -3.5t34.5 -16.5t17 -40.5t-19.5 -42t-46.5 -20t-49.5 -6t-29.5 -1q-6 0 -7.5 6t-0.5 13.5t5 14t10 6.5t22.5 1.5
t33.5 5t29.5 10t11.5 15.5t-15.5 13.5t-32.5 7t-33.5 5t-19.5 7.5q-3 4 -5 12.5t-2.5 19t-1 21.5t-0.5 20q-44 2 -78.5 26.5t-59.5 62.5t-39.5 87t-18 100t5 101.5t29 91.5t53.5 69t80 36z" />
    <glyph glyph-name="Egrave" unicode="&#xc8;" horiz-adv-x="447" 
d="M22 554q0 16 14.5 22t32 5.5t33 -6t17.5 -13.5q1 -5 2 -8.5t1 -7.5v-8q64 3 116 6q22 1 44 2.5t40 2.5t30.5 1.5t16.5 0.5q7 0 13.5 -7.5t9 -17.5t-1.5 -19t-16 -10q-6 -1 -20 -2.5t-33 -3.5t-40.5 -4t-43.5 -4q-52 -4 -113 -10l12 -177q58 9 106 17q20 3 40.5 6
t37.5 5.5t29 4.5t17 2q9 0 14.5 -9.5t7 -21t-1.5 -21.5t-10 -11q-4 0 -16.5 -2t-29.5 -4.5t-38 -6t-42 -6.5q-49 -8 -110 -18l11 -141q64 8 118 15q22 3 44.5 6t41 5.5t31.5 4t17 2.5q8 1 13.5 -6.5t7.5 -18t0 -20t-9 -11.5q-35 -11 -82 -21t-92.5 -18.5t-83.5 -14.5t-54 -8
q-12 -2 -21.5 -0.5t-12.5 9.5q-2 4 -5 28.5t-6.5 61t-7.5 82t-8 93t-7.5 94t-6.5 84.5t-4.5 64t-1.5 33zM185 650q-4 4 -0.5 10.5t10 12.5t14 8.5t11.5 -2.5t11 -14.5t14.5 -19.5t13.5 -18.5t9 -11.5q2 -3 -0.5 -8t-7.5 -8.5t-10.5 -5t-8.5 2.5z" />
    <glyph glyph-name="Eacute" unicode="&#xc9;" horiz-adv-x="447" 
d="M22 554q0 16 14.5 22t32 5.5t33 -6t17.5 -13.5q1 -5 2 -8.5t1 -7.5v-8q64 3 116 6q22 1 44 2.5t40 2.5t30.5 1.5t16.5 0.5q7 0 13.5 -7.5t9 -17.5t-1.5 -19t-16 -10q-6 -1 -20 -2.5t-33 -3.5t-40.5 -4t-43.5 -4q-52 -4 -113 -10l12 -177q58 9 106 17q20 3 40.5 6
t37.5 5.5t29 4.5t17 2q9 0 14.5 -9.5t7 -21t-1.5 -21.5t-10 -11q-4 0 -16.5 -2t-29.5 -4.5t-38 -6t-42 -6.5q-49 -8 -110 -18l11 -141q64 8 118 15q22 3 44.5 6t41 5.5t31.5 4t17 2.5q8 1 13.5 -6.5t7.5 -18t0 -20t-9 -11.5q-35 -11 -82 -21t-92.5 -18.5t-83.5 -14.5t-54 -8
q-12 -2 -21.5 -0.5t-12.5 9.5q-2 4 -5 28.5t-6.5 61t-7.5 82t-8 93t-7.5 94t-6.5 84.5t-4.5 64t-1.5 33zM235 695q4 5 12 3t14.5 -8t9.5 -13t-2 -12l-73 -63q-5 -3 -10.5 -2t-9.5 4.5t-5 9t3 10.5z" />
    <glyph glyph-name="Ecircumflex" unicode="&#xca;" horiz-adv-x="447" 
d="M22 554q0 16 14.5 22t32 5.5t33 -6t17.5 -13.5q1 -5 2 -8.5t1 -7.5v-8q64 3 116 6q22 1 44 2.5t40 2.5t30.5 1.5t16.5 0.5q7 0 13.5 -7.5t9 -17.5t-1.5 -19t-16 -10q-6 -1 -20 -2.5t-33 -3.5t-40.5 -4t-43.5 -4q-52 -4 -113 -10l12 -177q58 9 106 17q20 3 40.5 6
t37.5 5.5t29 4.5t17 2q9 0 14.5 -9.5t7 -21t-1.5 -21.5t-10 -11q-4 0 -16.5 -2t-29.5 -4.5t-38 -6t-42 -6.5q-49 -8 -110 -18l11 -141q64 8 118 15q22 3 44.5 6t41 5.5t31.5 4t17 2.5q8 1 13.5 -6.5t7.5 -18t0 -20t-9 -11.5q-35 -11 -82 -21t-92.5 -18.5t-83.5 -14.5t-54 -8
q-12 -2 -21.5 -0.5t-12.5 9.5q-2 4 -5 28.5t-6.5 61t-7.5 82t-8 93t-7.5 94t-6.5 84.5t-4.5 64t-1.5 33zM242 695q1 -3 8 -13t14.5 -21.5t13.5 -22t7 -13.5t-3 -7.5t-9.5 -7.5t-11 -4t-7.5 2l-29 49l-25 -52q-2 -5 -8.5 -5t-13 3t-10.5 7.5t-2 9.5q2 3 6.5 13.5t9.5 22.5
t9.5 22.5t5.5 12.5q2 3 9 4.5t14.5 2.5t14 0.5t7.5 -3.5z" />
    <glyph glyph-name="Edieresis" unicode="&#xcb;" horiz-adv-x="447" 
d="M22 554q0 16 14.5 22t32 5.5t33 -6t17.5 -13.5q1 -5 2 -8.5t1 -7.5v-8q64 3 116 6q22 1 44 2.5t40 2.5t30.5 1.5t16.5 0.5q7 0 13.5 -7.5t9 -17.5t-1.5 -19t-16 -10q-6 -1 -20 -2.5t-33 -3.5t-40.5 -4t-43.5 -4q-52 -4 -113 -10l12 -177q58 9 106 17q20 3 40.5 6
t37.5 5.5t29 4.5t17 2q9 0 14.5 -9.5t7 -21t-1.5 -21.5t-10 -11q-4 0 -16.5 -2t-29.5 -4.5t-38 -6t-42 -6.5q-49 -8 -110 -18l11 -141q64 8 118 15q22 3 44.5 6t41 5.5t31.5 4t17 2.5q8 1 13.5 -6.5t7.5 -18t0 -20t-9 -11.5q-35 -11 -82 -21t-92.5 -18.5t-83.5 -14.5t-54 -8
q-12 -2 -21.5 -0.5t-12.5 9.5q-2 4 -5 28.5t-6.5 61t-7.5 82t-8 93t-7.5 94t-6.5 84.5t-4.5 64t-1.5 33zM175 634q0 8 6 14.5t15 6.5q8 0 14.5 -6.5t6.5 -14.5q0 -9 -6.5 -15t-14.5 -6q-9 0 -15 6t-6 15zM234 634q0 8 5.5 14.5t13.5 6.5t14 -6.5t6 -14.5t-6 -13.5t-14 -5.5
q-19 0 -19 19z" />
    <glyph glyph-name="Igrave" unicode="&#xcc;" horiz-adv-x="411" 
d="M31 550q7 1 32 3.5t58.5 5t71 5t71 5t57.5 4.5t31 3q10 1 15.5 -8t7 -21t-2 -22.5t-11.5 -11.5q-6 -1 -25 -2t-39 -3q-24 -2 -52 -5l23 -416q19 2 38 3q16 1 34.5 1t32.5 -2q8 -1 11 -10t2.5 -19.5t-4 -19t-7.5 -8.5q-97 -7 -168.5 -14t-128.5 -14q-10 -1 -15.5 6t-8 16
t-1.5 17.5t5 11.5q6 4 23.5 7.5t36.5 6.5q22 4 49 7l-27 421q-25 -2 -47 -4q-19 -2 -36.5 -3t-23.5 -1q-8 0 -12.5 9t-5.5 20t3 20.5t13 11.5zM152 650q-4 4 -0.5 10.5t10 12.5t14 8.5t11.5 -2.5t11 -14.5t14.5 -19.5t13.5 -18.5t9 -11.5q2 -3 -0.5 -8t-7.5 -8.5t-10.5 -5
t-8.5 2.5z" />
    <glyph glyph-name="Iacute" unicode="&#xcd;" horiz-adv-x="411" 
d="M31 550q7 1 32 3.5t58.5 5t71 5t71 5t57.5 4.5t31 3q10 1 15.5 -8t7 -21t-2 -22.5t-11.5 -11.5q-6 -1 -25 -2t-39 -3q-24 -2 -52 -5l23 -416q19 2 38 3q16 1 34.5 1t32.5 -2q8 -1 11 -10t2.5 -19.5t-4 -19t-7.5 -8.5q-97 -7 -168.5 -14t-128.5 -14q-10 -1 -15.5 6t-8 16
t-1.5 17.5t5 11.5q6 4 23.5 7.5t36.5 6.5q22 4 49 7l-27 421q-25 -2 -47 -4q-19 -2 -36.5 -3t-23.5 -1q-8 0 -12.5 9t-5.5 20t3 20.5t13 11.5zM203 695q4 5 12 3t14.5 -8t9.5 -13t-2 -12l-73 -63q-5 -3 -10.5 -2t-9.5 4.5t-5 9t3 10.5z" />
    <glyph glyph-name="Icircumflex" unicode="&#xce;" horiz-adv-x="411" 
d="M31 550q7 1 32 3.5t58.5 5t71 5t71 5t57.5 4.5t31 3q10 1 15.5 -8t7 -21t-2 -22.5t-11.5 -11.5q-6 -1 -25 -2t-39 -3q-24 -2 -52 -5l23 -416q19 2 38 3q16 1 34.5 1t32.5 -2q8 -1 11 -10t2.5 -19.5t-4 -19t-7.5 -8.5q-97 -7 -168.5 -14t-128.5 -14q-10 -1 -15.5 6t-8 16
t-1.5 17.5t5 11.5q6 4 23.5 7.5t36.5 6.5q22 4 49 7l-27 421q-25 -2 -47 -4q-19 -2 -36.5 -3t-23.5 -1q-8 0 -12.5 9t-5.5 20t3 20.5t13 11.5zM209 695q1 -3 8 -13t14.5 -21.5t13.5 -22t7 -13.5t-3 -7.5t-9.5 -7.5t-11 -4t-7.5 2l-29 49l-25 -52q-2 -5 -8.5 -5t-13 3
t-10.5 7.5t-2 9.5q2 3 6.5 13.5t9.5 22.5t9.5 22.5t5.5 12.5q2 3 9 4.5t14.5 2.5t14 0.5t7.5 -3.5z" />
    <glyph glyph-name="Idieresis" unicode="&#xcf;" horiz-adv-x="411" 
d="M31 550q7 1 32 3.5t58.5 5t71 5t71 5t57.5 4.5t31 3q10 1 15.5 -8t7 -21t-2 -22.5t-11.5 -11.5q-6 -1 -25 -2t-39 -3q-24 -2 -52 -5l23 -416q19 2 38 3q16 1 34.5 1t32.5 -2q8 -1 11 -10t2.5 -19.5t-4 -19t-7.5 -8.5q-97 -7 -168.5 -14t-128.5 -14q-10 -1 -15.5 6t-8 16
t-1.5 17.5t5 11.5q6 4 23.5 7.5t36.5 6.5q22 4 49 7l-27 421q-25 -2 -47 -4q-19 -2 -36.5 -3t-23.5 -1q-8 0 -12.5 9t-5.5 20t3 20.5t13 11.5zM142 634q0 8 6 14.5t15 6.5q8 0 14.5 -6.5t6.5 -14.5q0 -9 -6.5 -15t-14.5 -6q-9 0 -15 6t-6 15zM201 634q0 8 5.5 14.5t13.5 6.5
t14 -6.5t6 -14.5t-6 -13.5t-14 -5.5q-19 0 -19 19z" />
    <glyph glyph-name="Eth" unicode="&#xd0;" horiz-adv-x="484" 
d="M41 566q-1 18 17.5 24.5t40.5 5.5t40 -6.5t18 -11.5l2 -37q13 0 34.5 -1.5t46.5 -6t51 -11.5t49 -17q55 -27 86 -76.5t36 -106.5t-17.5 -114t-73.5 -99q-33 -27 -72.5 -47t-83 -34t-89 -24.5t-90.5 -18.5q-12 -2 -17 5t-5 16.5t4 18t10 9.5q9 2 16 3.5t12 2.5l10 2
q-1 25 -3 54q-2 25 -3 58t-3 71q-10 -1 -17 -1.5t-9 0.5q-6 1 -10.5 8.5t-5.5 16.5t1.5 16.5t10.5 9.5q3 0 10 0.5t17 1.5q-3 48 -5 96t-4 87.5t-3 68t-1 37.5zM235 290q7 -1 11 -7t4.5 -13.5t-2 -14t-8.5 -7.5l-58 -9l12 -166q25 8 54 20.5t59 37.5q26 21 42 50.5t22.5 63
t4 68.5t-14 65.5t-31 54.5t-47.5 36q-53 22 -118 19l14 -201q20 2 35.5 2.5t20.5 0.5z" />
    <glyph glyph-name="Ntilde" unicode="&#xd1;" horiz-adv-x="505" 
d="M42 543q2 15 19 23t38 10.5t39.5 -1t23.5 -11.5l12.5 -25l26 -52t34.5 -69.5t38 -78.5q45 -93 101 -209q2 16 2 49t-1.5 74.5t-3 87.5t-2.5 88t-1.5 76.5t1.5 52.5q1 10 13 15t26.5 5t27 -4.5t12.5 -11.5q0 -20 2.5 -64t5 -98.5t5 -113.5t4.5 -110t2.5 -87t-1.5 -44
q-2 -11 -15 -20t-29.5 -13.5t-33.5 -3t-26 12.5q-5 6 -17 28t-29 54t-36.5 71l-39.5 79q-47 93 -102 209q1 -122 2 -220q0 -42 0.5 -82t1 -72.5t1 -54t0.5 -24.5q0 -7 -16 -12.5t-35.5 -7t-36.5 1.5t-18 14q-1 7 -1 47v97t0.5 122t1.5 122.5t2 99t2 50.5zM183 643
q3 7 8 15.5t11.5 16t14 13t15.5 6.5q9 0 16.5 -5.5t13 -12.5t10 -13t8.5 -6q6 0 10 7.5t9 12.5q6 7 17 2t7 -16q-5 -12 -19.5 -27t-31.5 -16q-7 0 -12.5 4t-10 9t-9 9.5t-10.5 4.5q-8 0 -14.5 -10t-10.5 -13q-2 -1 -6.5 -0.5t-9 3t-7 6.5t0.5 10z" />
    <glyph glyph-name="Ograve" unicode="&#xd2;" horiz-adv-x="499" 
d="M218 566q46 8 86.5 -11t73.5 -56t56 -87.5t34 -105t8 -108.5t-23 -98t-59 -73.5t-99 -35.5q-59 -6 -107.5 6.5t-84 43.5t-56.5 78.5t-24 112.5q-4 73 8.5 131.5t38.5 100.5t63.5 67.5t84.5 34.5zM239 496q-31 -10 -52 -48t-31.5 -88.5t-8.5 -106t18.5 -101t48 -73.5
t80.5 -23q55 6 82.5 44t33.5 91t-7 111.5t-37.5 105.5t-58 73.5t-68.5 14.5zM210 650q-4 4 -0.5 10.5t10 12.5t14 8.5t11.5 -2.5t11 -14.5t14.5 -19.5t13.5 -18.5t9 -11.5q2 -3 -0.5 -8t-7.5 -8.5t-10.5 -5t-8.5 2.5z" />
    <glyph glyph-name="Oacute" unicode="&#xd3;" horiz-adv-x="499" 
d="M218 566q46 8 86.5 -11t73.5 -56t56 -87.5t34 -105t8 -108.5t-23 -98t-59 -73.5t-99 -35.5q-59 -6 -107.5 6.5t-84 43.5t-56.5 78.5t-24 112.5q-4 73 8.5 131.5t38.5 100.5t63.5 67.5t84.5 34.5zM239 496q-31 -10 -52 -48t-31.5 -88.5t-8.5 -106t18.5 -101t48 -73.5
t80.5 -23q55 6 82.5 44t33.5 91t-7 111.5t-37.5 105.5t-58 73.5t-68.5 14.5zM261 695q4 5 12 3t14.5 -8t9.5 -13t-2 -12l-73 -63q-5 -3 -10.5 -2t-9.5 4.5t-5 9t3 10.5z" />
    <glyph glyph-name="Ocircumflex" unicode="&#xd4;" horiz-adv-x="499" 
d="M218 566q46 8 86.5 -11t73.5 -56t56 -87.5t34 -105t8 -108.5t-23 -98t-59 -73.5t-99 -35.5q-59 -6 -107.5 6.5t-84 43.5t-56.5 78.5t-24 112.5q-4 73 8.5 131.5t38.5 100.5t63.5 67.5t84.5 34.5zM239 496q-31 -10 -52 -48t-31.5 -88.5t-8.5 -106t18.5 -101t48 -73.5
t80.5 -23q55 6 82.5 44t33.5 91t-7 111.5t-37.5 105.5t-58 73.5t-68.5 14.5zM268 695q1 -3 8 -13t14.5 -21.5t13.5 -22t7 -13.5t-3 -7.5t-9.5 -7.5t-11 -4t-7.5 2l-29 49l-25 -52q-2 -5 -8.5 -5t-13 3t-10.5 7.5t-2 9.5q2 3 6.5 13.5t9.5 22.5t9.5 22.5t5.5 12.5q2 3 9 4.5
t14.5 2.5t14 0.5t7.5 -3.5z" />
    <glyph glyph-name="Otilde" unicode="&#xd5;" horiz-adv-x="499" 
d="M218 566q46 8 86.5 -11t73.5 -56t56 -87.5t34 -105t8 -108.5t-23 -98t-59 -73.5t-99 -35.5q-59 -6 -107.5 6.5t-84 43.5t-56.5 78.5t-24 112.5q-4 73 8.5 131.5t38.5 100.5t63.5 67.5t84.5 34.5zM239 496q-31 -10 -52 -48t-31.5 -88.5t-8.5 -106t18.5 -101t48 -73.5
t80.5 -23q55 6 82.5 44t33.5 91t-7 111.5t-37.5 105.5t-58 73.5t-68.5 14.5zM180 643q3 7 8 15.5t11.5 16t14 13t15.5 6.5q9 0 16.5 -5.5t13 -12.5t10 -13t8.5 -6q6 0 10 7.5t9 12.5q6 7 17 2t7 -16q-5 -12 -19.5 -27t-31.5 -16q-7 0 -12.5 4t-10 9t-9 9.5t-10.5 4.5
q-8 0 -14.5 -10t-10.5 -13q-2 -1 -6.5 -0.5t-9 3t-7 6.5t0.5 10z" />
    <glyph glyph-name="Odieresis" unicode="&#xd6;" horiz-adv-x="499" 
d="M218 566q46 8 86.5 -11t73.5 -56t56 -87.5t34 -105t8 -108.5t-23 -98t-59 -73.5t-99 -35.5q-59 -6 -107.5 6.5t-84 43.5t-56.5 78.5t-24 112.5q-4 73 8.5 131.5t38.5 100.5t63.5 67.5t84.5 34.5zM239 496q-31 -10 -52 -48t-31.5 -88.5t-8.5 -106t18.5 -101t48 -73.5
t80.5 -23q55 6 82.5 44t33.5 91t-7 111.5t-37.5 105.5t-58 73.5t-68.5 14.5zM200 634q0 8 6 14.5t15 6.5q8 0 14.5 -6.5t6.5 -14.5q0 -9 -6.5 -15t-14.5 -6q-9 0 -15 6t-6 15zM259 634q0 8 5.5 14.5t13.5 6.5t14 -6.5t6 -14.5t-6 -13.5t-14 -5.5q-19 0 -19 19z" />
    <glyph glyph-name="multiply" unicode="&#xd7;" horiz-adv-x="245" 
d="M24 336q-5 7 -2 16.5t10 17.5t15 12t13 0l54 -48q18 20 32 36t19 20q6 6 15.5 3.5t17.5 -9t12.5 -14.5t0.5 -13l-52 -66q23 -20 40.5 -34.5t21.5 -19.5q4 -6 0 -16t-12 -18t-17 -12.5t-16 1.5q-6 5 -21 18.5t-35 32.5q-17 -20 -29.5 -35t-16.5 -18q-6 -4 -16 -0.5
t-19 10.5t-13.5 16t1.5 17q4 5 16.5 20t29.5 35q-17 17 -31 30t-18 18z" />
    <glyph glyph-name="Oslash" unicode="&#xd8;" horiz-adv-x="499" 
d="M218 566q53 9 102 -19l11 40q2 7 13.5 9t24.5 -1t22.5 -10.5t6.5 -17.5l-19 -69q32 -37 55.5 -87.5t34 -105t7 -108.5t-23.5 -97.5t-58.5 -73t-98.5 -35.5q-15 -2 -29.5 -2.5t-28.5 1.5l-15 -55q-2 -9 -12.5 -11t-22 1.5t-19.5 10.5t-6 16l14 49q-69 22 -109 80t-44 151
q-4 73 8.5 131.5t38.5 100.5t63.5 67.5t84.5 34.5zM239 496q-24 -8 -42.5 -34.5t-30.5 -63t-16.5 -79.5t-1 -85t16 -79.5t35.5 -62.5l103 392q-32 22 -64 12zM294 56q38 4 63 24t38 50.5t15.5 68t-3 77t-18.5 77.5t-31 69l-102 -364q8 -2 17.5 -2.5t20.5 0.5z" />
    <glyph glyph-name="Ugrave" unicode="&#xd9;" horiz-adv-x="438" 
d="M30 526q0 20 20 29.5t44 9.5t43.5 -8t19.5 -23q0 -9 0.5 -47t3 -90t8.5 -109.5t17.5 -106t30 -80t44.5 -31.5q31 0 48 33t24.5 83t8 109t-2 112t-6 91.5t-3.5 48.5q0 14 11 19.5t23.5 4t23 -7.5t10.5 -14q0 -4 3 -29t5 -62.5t3 -84.5t-2 -96t-11.5 -95.5t-25.5 -84
t-43.5 -61.5t-64.5 -27q-57 -5 -96.5 18.5t-66 66t-41 98.5t-21.5 115t-7.5 116.5t0.5 102.5zM195 650q-4 4 -0.5 10.5t10 12.5t14 8.5t11.5 -2.5t11 -14.5t14.5 -19.5t13.5 -18.5t9 -11.5q2 -3 -0.5 -8t-7.5 -8.5t-10.5 -5t-8.5 2.5z" />
    <glyph glyph-name="Uacute" unicode="&#xda;" horiz-adv-x="438" 
d="M30 526q0 20 20 29.5t44 9.5t43.5 -8t19.5 -23q0 -9 0.5 -47t3 -90t8.5 -109.5t17.5 -106t30 -80t44.5 -31.5q31 0 48 33t24.5 83t8 109t-2 112t-6 91.5t-3.5 48.5q0 14 11 19.5t23.5 4t23 -7.5t10.5 -14q0 -4 3 -29t5 -62.5t3 -84.5t-2 -96t-11.5 -95.5t-25.5 -84
t-43.5 -61.5t-64.5 -27q-57 -5 -96.5 18.5t-66 66t-41 98.5t-21.5 115t-7.5 116.5t0.5 102.5zM260 695q4 5 12 3t14.5 -8t9.5 -13t-2 -12l-73 -63q-5 -3 -10.5 -2t-9.5 4.5t-5 9t3 10.5z" />
    <glyph glyph-name="Ucircumflex" unicode="&#xdb;" horiz-adv-x="438" 
d="M30 526q0 20 20 29.5t44 9.5t43.5 -8t19.5 -23q0 -9 0.5 -47t3 -90t8.5 -109.5t17.5 -106t30 -80t44.5 -31.5q31 0 48 33t24.5 83t8 109t-2 112t-6 91.5t-3.5 48.5q0 14 11 19.5t23.5 4t23 -7.5t10.5 -14q0 -4 3 -29t5 -62.5t3 -84.5t-2 -96t-11.5 -95.5t-25.5 -84
t-43.5 -61.5t-64.5 -27q-57 -5 -96.5 18.5t-66 66t-41 98.5t-21.5 115t-7.5 116.5t0.5 102.5zM260 695q1 -3 8 -13t14.5 -21.5t13.5 -22t7 -13.5t-3 -7.5t-9.5 -7.5t-11 -4t-7.5 2l-29 49l-25 -52q-2 -5 -8.5 -5t-13 3t-10.5 7.5t-2 9.5q2 3 6.5 13.5t9.5 22.5t9.5 22.5
t5.5 12.5q2 3 9 4.5t14.5 2.5t14 0.5t7.5 -3.5z" />
    <glyph glyph-name="Udieresis" unicode="&#xdc;" horiz-adv-x="438" 
d="M30 526q0 20 20 29.5t44 9.5t43.5 -8t19.5 -23q0 -9 0.5 -47t3 -90t8.5 -109.5t17.5 -106t30 -80t44.5 -31.5q31 0 48 33t24.5 83t8 109t-2 112t-6 91.5t-3.5 48.5q0 14 11 19.5t23.5 4t23 -7.5t10.5 -14q0 -4 3 -29t5 -62.5t3 -84.5t-2 -96t-11.5 -95.5t-25.5 -84
t-43.5 -61.5t-64.5 -27q-57 -5 -96.5 18.5t-66 66t-41 98.5t-21.5 115t-7.5 116.5t0.5 102.5zM192 634q0 8 6 14.5t15 6.5q8 0 14.5 -6.5t6.5 -14.5q0 -9 -6.5 -15t-14.5 -6q-9 0 -15 6t-6 15zM251 634q0 8 5.5 14.5t13.5 6.5t14 -6.5t6 -14.5t-6 -13.5t-14 -5.5
q-19 0 -19 19z" />
    <glyph glyph-name="Yacute" unicode="&#xdd;" horiz-adv-x="464" 
d="M20 514q-10 14 -2.5 30t22.5 27t32.5 13t26.5 -11q6 -9 16.5 -25.5t24 -38t29 -46t30.5 -49.5q35 -58 76 -126l117 272q4 9 15 10.5t21.5 -3t17 -13.5t0.5 -21l-126 -309v-91q0 -36 0.5 -70.5t0.5 -47.5t-17.5 -21.5t-39 -10.5t-39 3.5t-17.5 20.5q-1 15 0 45.5t2 62.5
q1 36 3 78q-46 80 -86 147q-17 28 -34 56.5t-31.5 52t-25.5 41t-16 24.5zM287 688q4 5 12 3t14.5 -8t9.5 -13t-2 -12l-73 -63q-5 -3 -10.5 -2t-9.5 4.5t-5 9t3 10.5z" />
    <glyph glyph-name="Thorn" unicode="&#xde;" horiz-adv-x="449" 
d="M28 559q0 19 17.5 28t38.5 9.5t39 -6.5t18 -20q0 -8 0.5 -28.5t1.5 -41.5q1 -25 2 -54q78 7 140 -2q26 -4 51.5 -11.5t45.5 -21t32.5 -33t13.5 -47.5q0 -30 -11 -54.5t-29.5 -44t-42.5 -35t-49 -26.5q-59 -27 -134 -41q1 -35 2 -64q1 -25 1.5 -48.5t2.5 -31.5
q1 -8 -18.5 -14.5t-43 -8.5t-43.5 1t-21 14q-1 10 -2 63.5t-2.5 134t-4 180t-5.5 203.5zM157 196q60 9 108 26q20 7 39 16.5t33 21.5t22 26.5t6 32.5q-3 24 -20 38t-41 21.5t-51.5 10t-50.5 2t-38.5 -2.5l-15.5 -2z" />
    <glyph glyph-name="germandbls" unicode="&#xdf;" horiz-adv-x="427" 
d="M135 -9q-1 -11 -16 -18.5t-33.5 -10t-33.5 0.5t-16 14q0 5 -2 34t-3 72t0 97t7.5 109t19 107t33.5 93t53 66t76 25q29 0 51.5 -11t36.5 -29t20 -40t3 -44q-4 -24 -18.5 -40t-30.5 -30t-29.5 -28t-15.5 -35q-1 -12 10.5 -21t30 -18.5t40.5 -21.5t41.5 -28t32.5 -37.5
t13 -52.5q0 -30 -13 -51t-33.5 -35t-45.5 -22t-48.5 -12t-42.5 -5.5t-28 -2.5q-8 -1 -11.5 7.5t-3.5 19t4.5 20.5t12.5 13q12 3 37 4.5t50.5 7.5t45.5 19t20 39q0 18 -12.5 30.5t-32 22.5t-42 20t-41.5 23t-32 30.5t-13 42.5q0 30 17 51.5t36.5 39.5t34.5 36t11 42
q-2 14 -7.5 22.5t-13 13t-15 5.5t-14.5 0q-21 -2 -40.5 -22t-33.5 -72q-13 -48 -15.5 -100.5t-1.5 -108t2.5 -114t-1.5 -117.5z" />
    <glyph glyph-name="agrave" unicode="&#xe0;" horiz-adv-x="367" 
d="M218 394q0 8 12.5 13t28.5 5t29.5 -5t15.5 -17q1 -3 4 -32t7.5 -70t9.5 -88.5t9 -88.5t7 -68.5t3 -29.5q2 -12 -8.5 -20t-25.5 -11.5t-28.5 -3t-17.5 5.5t-7.5 16.5t-6 23.5t-4 21l-1.5 9q-12 -15 -41 -26.5t-62.5 -9t-64.5 24.5t-46 75q-16 59 -4.5 104t40 74t69 40.5
t83.5 2.5zM226 268q-3 1 -14.5 6t-27.5 8t-34.5 0t-34.5 -18q-15 -13 -21.5 -33.5t-6.5 -43t5.5 -44.5t16.5 -38t26 -24t33 -2q31 10 44.5 37t16.5 57.5t0.5 57.5t-3.5 37zM108 451q-4 4 -0.5 10.5t10 12.5t14 8.5t11.5 -2.5t11 -14.5t14.5 -19.5t13.5 -18.5t9 -11.5
q2 -3 -0.5 -8t-7.5 -8.5t-10.5 -5t-8.5 2.5z" />
    <glyph glyph-name="aacute" unicode="&#xe1;" horiz-adv-x="367" 
d="M218 394q0 8 12.5 13t28.5 5t29.5 -5t15.5 -17q1 -3 4 -32t7.5 -70t9.5 -88.5t9 -88.5t7 -68.5t3 -29.5q2 -12 -8.5 -20t-25.5 -11.5t-28.5 -3t-17.5 5.5t-7.5 16.5t-6 23.5t-4 21l-1.5 9q-12 -15 -41 -26.5t-62.5 -9t-64.5 24.5t-46 75q-16 59 -4.5 104t40 74t69 40.5
t83.5 2.5zM226 268q-3 1 -14.5 6t-27.5 8t-34.5 0t-34.5 -18q-15 -13 -21.5 -33.5t-6.5 -43t5.5 -44.5t16.5 -38t26 -24t33 -2q31 10 44.5 37t16.5 57.5t0.5 57.5t-3.5 37zM180 488q4 5 12 3t14.5 -8t9.5 -13t-2 -12l-73 -63q-5 -3 -10.5 -2t-9.5 4.5t-5 9t3 10.5z" />
    <glyph glyph-name="acircumflex" unicode="&#xe2;" horiz-adv-x="367" 
d="M218 394q0 8 12.5 13t28.5 5t29.5 -5t15.5 -17q1 -3 4 -32t7.5 -70t9.5 -88.5t9 -88.5t7 -68.5t3 -29.5q2 -12 -8.5 -20t-25.5 -11.5t-28.5 -3t-17.5 5.5t-7.5 16.5t-6 23.5t-4 21l-1.5 9q-12 -15 -41 -26.5t-62.5 -9t-64.5 24.5t-46 75q-16 59 -4.5 104t40 74t69 40.5
t83.5 2.5zM226 268q-3 1 -14.5 6t-27.5 8t-34.5 0t-34.5 -18q-15 -13 -21.5 -33.5t-6.5 -43t5.5 -44.5t16.5 -38t26 -24t33 -2q31 10 44.5 37t16.5 57.5t0.5 57.5t-3.5 37zM166 496q1 -3 8 -13t14.5 -21.5t13.5 -22t7 -13.5t-3 -7.5t-9.5 -7.5t-11 -4t-7.5 2l-29 49l-25 -52
q-2 -5 -8.5 -5t-13 3t-10.5 7.5t-2 9.5q2 3 6.5 13.5t9.5 22.5t9.5 22.5t5.5 12.5q2 3 9 4.5t14.5 2.5t14 0.5t7.5 -3.5z" />
    <glyph glyph-name="atilde" unicode="&#xe3;" horiz-adv-x="367" 
d="M218 394q0 8 12.5 13t28.5 5t29.5 -5t15.5 -17q1 -3 4 -32t7.5 -70t9.5 -88.5t9 -88.5t7 -68.5t3 -29.5q2 -12 -8.5 -20t-25.5 -11.5t-28.5 -3t-17.5 5.5t-7.5 16.5t-6 23.5t-4 21l-1.5 9q-12 -15 -41 -26.5t-62.5 -9t-64.5 24.5t-46 75q-16 59 -4.5 104t40 74t69 40.5
t83.5 2.5zM226 268q-3 1 -14.5 6t-27.5 8t-34.5 0t-34.5 -18q-15 -13 -21.5 -33.5t-6.5 -43t5.5 -44.5t16.5 -38t26 -24t33 -2q31 10 44.5 37t16.5 57.5t0.5 57.5t-3.5 37zM85 436q3 7 8 15.5t11.5 16t14 13t15.5 6.5q9 0 16.5 -5.5t13 -12.5t10 -13t8.5 -6q6 0 10 7.5
t9 12.5q6 7 17 2t7 -16q-5 -12 -19.5 -27t-31.5 -16q-7 0 -12.5 4t-10 9t-9 9.5t-10.5 4.5q-8 0 -14.5 -10t-10.5 -13q-2 -1 -6.5 -0.5t-9 3t-7 6.5t0.5 10z" />
    <glyph glyph-name="adieresis" unicode="&#xe4;" horiz-adv-x="367" 
d="M218 394q0 8 12.5 13t28.5 5t29.5 -5t15.5 -17q1 -3 4 -32t7.5 -70t9.5 -88.5t9 -88.5t7 -68.5t3 -29.5q2 -12 -8.5 -20t-25.5 -11.5t-28.5 -3t-17.5 5.5t-7.5 16.5t-6 23.5t-4 21l-1.5 9q-12 -15 -41 -26.5t-62.5 -9t-64.5 24.5t-46 75q-16 59 -4.5 104t40 74t69 40.5
t83.5 2.5zM226 268q-3 1 -14.5 6t-27.5 8t-34.5 0t-34.5 -18q-15 -13 -21.5 -33.5t-6.5 -43t5.5 -44.5t16.5 -38t26 -24t33 -2q31 10 44.5 37t16.5 57.5t0.5 57.5t-3.5 37zM105 435q0 8 6 14.5t15 6.5q8 0 14.5 -6.5t6.5 -14.5q0 -9 -6.5 -15t-14.5 -6q-9 0 -15 6t-6 15z
M164 435q0 8 5.5 14.5t13.5 6.5t14 -6.5t6 -14.5t-6 -13.5t-14 -5.5q-19 0 -19 19z" />
    <glyph glyph-name="aring" unicode="&#xe5;" horiz-adv-x="367" 
d="M218 394q0 8 12.5 13t28.5 5t29.5 -5t15.5 -17q1 -3 4 -32t7.5 -70t9.5 -88.5t9 -88.5t7 -68.5t3 -29.5q2 -12 -8.5 -20t-25.5 -11.5t-28.5 -3t-17.5 5.5t-7.5 16.5t-6 23.5t-4 21l-1.5 9q-12 -15 -41 -26.5t-62.5 -9t-64.5 24.5t-46 75q-16 59 -4.5 104t40 74t69 40.5
t83.5 2.5zM226 268q-3 1 -14.5 6t-27.5 8t-34.5 0t-34.5 -18q-15 -13 -21.5 -33.5t-6.5 -43t5.5 -44.5t16.5 -38t26 -24t33 -2q31 10 44.5 37t16.5 57.5t0.5 57.5t-3.5 37zM142 481q22 4 37 -6.5t19 -26t-4.5 -31t-33.5 -19.5q-35 -6 -50 4.5t-15.5 26.5t12.5 31.5t35 20.5z
M149 453q-8 -2 -12.5 -7.5t-4 -11.5t5.5 -9.5t17 -1.5q8 2 11 7.5t1.5 11t-6.5 9.5t-12 2z" />
    <glyph glyph-name="ae" unicode="&#xe6;" horiz-adv-x="599" 
d="M332 141q8 -37 22.5 -54.5t33 -20.5t38.5 4.5t39 20t35.5 27t28.5 24.5q8 7 19 2.5t18.5 -14t10 -22t-6.5 -20.5t-28 -21.5t-44.5 -26t-55.5 -21.5t-59 -9q-19 0 -39 5v-2q2 -12 -8.5 -20t-25.5 -11.5t-28.5 -3t-17.5 5.5t-7.5 16.5t-6 23.5t-4 21l-1.5 9
q-12 -15 -41 -26.5t-62.5 -9t-64.5 24.5t-46 75q-16 59 -4.5 104t40 74t69 40.5t83.5 2.5l-1 62q0 8 12.5 13t28.5 5.5t29.5 -4.5t15.5 -17q1 -3 3.5 -19.5t5.5 -52.5q10 6 20 11t22 7q35 8 64.5 -0.5t51.5 -23.5t35.5 -31.5t16.5 -24.5q7 -17 3.5 -31.5t-23.5 -22.5
q-3 -1 -17 -6.5t-33 -13t-40.5 -16t-39.5 -15.5t-29.5 -12t-11.5 -6zM226 268q-3 1 -14.5 6t-27.5 8t-34.5 0t-34.5 -18q-14 -13 -21 -33.5t-7 -43t5.5 -44.5t16.5 -38t26 -24t33 -2q31 10 44.5 37t16.5 57.5t0.5 57.5t-3.5 37zM461 251q1 0 -3.5 7t-14 14.5t-26 12.5
t-39.5 1q-17 -3 -26.5 -16t-14 -26.5t-5.5 -25l-1 -11.5l9.5 3t24 8t31 10.5t31 10.5t24 8.5t10.5 3.5z" />
    <glyph glyph-name="ccedilla" unicode="&#xe7;" horiz-adv-x="354" 
d="M205 222q-4 8 -7.5 21t-10.5 25t-17.5 20.5t-28.5 7.5q-10 0 -18 -10.5t-12.5 -28.5t-6 -41.5t1.5 -49.5q7 -53 25 -82t44 -26q21 3 40 14.5t34.5 25t27 25t19.5 13.5q16 4 30 -9t13 -29q0 -8 -12 -23t-33.5 -30t-52.5 -27t-70 -13q-66 -3 -106 41t-42 122q-1 22 4 53
t17.5 60t35 49.5t55.5 21.5q37 2 61 -11.5t37.5 -32t19 -37t6.5 -27.5q2 -12 -5 -19.5t-17 -10.5t-19.5 -1.5t-12.5 9.5zM140 34q1 4 10.5 6t20 1t18.5 -5t7 -11q-1 -15 -3 -27q-2 -11 -3 -20.5t0 -12.5t16.5 -2.5t34 -3t34.5 -16t17 -40.5q1 -29 -19.5 -43t-46.5 -19.5
t-49.5 -6t-29.5 -0.5q-6 -1 -7.5 5t-0.5 13.5t5 14t10 6.5t22 1.5t33 5.5t29.5 10t11.5 15t-15.5 13.5t-32 7.5t-33.5 5t-20 7t-5.5 20.5t-2.5 32t-1 30v13.5z" />
    <glyph glyph-name="egrave" unicode="&#xe8;" horiz-adv-x="377" 
d="M111 141q8 -37 22.5 -54.5t32.5 -20.5t38 4.5t39 20t36 27t29 24.5q8 7 18.5 2.5t18.5 -14t10 -22t-6 -20.5q-9 -8 -28 -21.5t-44.5 -26t-55.5 -21.5t-59 -9q-53 1 -89.5 33.5t-47.5 94.5q-5 27 -2.5 59.5t15.5 62.5t36.5 53t59.5 31q35 8 64.5 -0.5t51.5 -23.5
t35.5 -31.5t16.5 -24.5q6 -17 2.5 -31.5t-23.5 -22.5q-5 -2 -32 -12.5t-58 -22.5t-55.5 -22.5t-24.5 -11.5zM240 251q1 0 -3.5 7t-14.5 14.5t-26 12.5t-39 1q-17 -3 -27 -16t-14.5 -26.5t-5.5 -25l-1 -11.5l20.5 6.5t44.5 15t44.5 15.5t21.5 7zM84 429q-4 4 -0.5 10.5
t10 12.5t14 8.5t11.5 -2.5t11 -14.5t14.5 -19.5t13.5 -18.5t9 -11.5q2 -3 -0.5 -8t-7.5 -8.5t-10.5 -5t-8.5 2.5z" />
    <glyph glyph-name="eacute" unicode="&#xe9;" horiz-adv-x="377" 
d="M111 141q8 -37 22.5 -54.5t32.5 -20.5t38 4.5t39 20t36 27t29 24.5q8 7 18.5 2.5t18.5 -14t10 -22t-6 -20.5q-9 -8 -28 -21.5t-44.5 -26t-55.5 -21.5t-59 -9q-53 1 -89.5 33.5t-47.5 94.5q-5 27 -2.5 59.5t15.5 62.5t36.5 53t59.5 31q35 8 64.5 -0.5t51.5 -23.5
t35.5 -31.5t16.5 -24.5q6 -17 2.5 -31.5t-23.5 -22.5q-5 -2 -32 -12.5t-58 -22.5t-55.5 -22.5t-24.5 -11.5zM240 251q1 0 -3.5 7t-14.5 14.5t-26 12.5t-39 1q-17 -3 -27 -16t-14.5 -26.5t-5.5 -25l-1 -11.5l20.5 6.5t44.5 15t44.5 15.5t21.5 7zM156 474q4 5 12 3t14.5 -8
t9.5 -13t-2 -12l-73 -63q-5 -3 -10.5 -2t-9.5 4.5t-5 9t3 10.5z" />
    <glyph glyph-name="ecircumflex" unicode="&#xea;" horiz-adv-x="377" 
d="M111 141q8 -37 22.5 -54.5t32.5 -20.5t38 4.5t39 20t36 27t29 24.5q8 7 18.5 2.5t18.5 -14t10 -22t-6 -20.5q-9 -8 -28 -21.5t-44.5 -26t-55.5 -21.5t-59 -9q-53 1 -89.5 33.5t-47.5 94.5q-5 27 -2.5 59.5t15.5 62.5t36.5 53t59.5 31q35 8 64.5 -0.5t51.5 -23.5
t35.5 -31.5t16.5 -24.5q6 -17 2.5 -31.5t-23.5 -22.5q-5 -2 -32 -12.5t-58 -22.5t-55.5 -22.5t-24.5 -11.5zM240 251q1 0 -3.5 7t-14.5 14.5t-26 12.5t-39 1q-17 -3 -27 -16t-14.5 -26.5t-5.5 -25l-1 -11.5l20.5 6.5t44.5 15t44.5 15.5t21.5 7zM163 474q1 -3 8 -13
t14.5 -21.5t13.5 -22t7 -13.5t-3 -7.5t-9.5 -7.5t-11 -4t-7.5 2l-29 49l-25 -52q-2 -5 -8.5 -5t-13 3t-10.5 7.5t-2 9.5q2 3 6.5 13.5t9.5 22.5t9.5 22.5t5.5 12.5q2 3 9 4.5t14.5 2.5t14 0.5t7.5 -3.5z" />
    <glyph glyph-name="edieresis" unicode="&#xeb;" horiz-adv-x="377" 
d="M111 141q8 -37 22.5 -54.5t32.5 -20.5t38 4.5t39 20t36 27t29 24.5q8 7 18.5 2.5t18.5 -14t10 -22t-6 -20.5q-9 -8 -28 -21.5t-44.5 -26t-55.5 -21.5t-59 -9q-53 1 -89.5 33.5t-47.5 94.5q-5 27 -2.5 59.5t15.5 62.5t36.5 53t59.5 31q35 8 64.5 -0.5t51.5 -23.5
t35.5 -31.5t16.5 -24.5q6 -17 2.5 -31.5t-23.5 -22.5q-5 -2 -32 -12.5t-58 -22.5t-55.5 -22.5t-24.5 -11.5zM240 251q1 0 -3.5 7t-14.5 14.5t-26 12.5t-39 1q-17 -3 -27 -16t-14.5 -26.5t-5.5 -25l-1 -11.5l20.5 6.5t44.5 15t44.5 15.5t21.5 7zM96 413q0 8 6 14.5t15 6.5
q8 0 14.5 -6.5t6.5 -14.5q0 -9 -6.5 -15t-14.5 -6q-9 0 -15 6t-6 15zM155 413q0 8 5.5 14.5t13.5 6.5t14 -6.5t6 -14.5t-6 -13.5t-14 -5.5q-19 0 -19 19z" />
    <glyph glyph-name="igrave" unicode="&#xec;" horiz-adv-x="177" 
d="M44 334q1 9 14.5 13.5t29.5 3.5t29.5 -6t14.5 -14q1 -10 1 -35.5v-58.5t-1 -68.5t-1.5 -65.5t-1 -50.5t-0.5 -22.5q-2 -10 -12.5 -15t-23.5 -5.5t-24 2.5t-13 9q-3 8 -5 32.5t-3.5 56.5t-2.5 68.5t-1.5 68.5t-0.5 55.5t1 31.5zM49 436q-4 4 -0.5 10.5t10 12.5t14 8.5
t11.5 -2.5t11 -14.5t14.5 -19.5t13.5 -18.5t9 -11.5q2 -3 -0.5 -8t-7.5 -8.5t-10.5 -5t-8.5 2.5z" />
    <glyph glyph-name="iacute" unicode="&#xed;" horiz-adv-x="177" 
d="M44 334q1 9 14.5 13.5t29.5 3.5t29.5 -6t14.5 -14q1 -10 1 -35.5v-58.5t-1 -68.5t-1.5 -65.5t-1 -50.5t-0.5 -22.5q-2 -10 -12.5 -15t-23.5 -5.5t-24 2.5t-13 9q-3 8 -5 32.5t-3.5 56.5t-2.5 68.5t-1.5 68.5t-0.5 55.5t1 31.5zM100 481q4 5 12 3t14.5 -8t9.5 -13t-2 -12
l-73 -63q-5 -3 -10.5 -2t-9.5 4.5t-5 9t3 10.5z" />
    <glyph glyph-name="icircumflex" unicode="&#xee;" horiz-adv-x="177" 
d="M44 334q1 9 14.5 13.5t29.5 3.5t29.5 -6t14.5 -14q1 -10 1 -35.5v-58.5t-1 -68.5t-1.5 -65.5t-1 -50.5t-0.5 -22.5q-2 -10 -12.5 -15t-23.5 -5.5t-24 2.5t-13 9q-3 8 -5 32.5t-3.5 56.5t-2.5 68.5t-1.5 68.5t-0.5 55.5t1 31.5zM107 481q1 -3 8 -13t14.5 -21.5t13.5 -22
t7 -13.5t-3 -7.5t-9.5 -7.5t-11 -4t-7.5 2l-29 49l-25 -52q-2 -5 -8.5 -5t-13 3t-10.5 7.5t-2 9.5q2 3 6.5 13.5t9.5 22.5t9.5 22.5t5.5 12.5q2 3 9 4.5t14.5 2.5t14 0.5t7.5 -3.5z" />
    <glyph glyph-name="idieresis" unicode="&#xef;" horiz-adv-x="177" 
d="M44 334q1 9 14.5 13.5t29.5 3.5t29.5 -6t14.5 -14q1 -10 1 -35.5v-58.5t-1 -68.5t-1.5 -65.5t-1 -50.5t-0.5 -22.5q-2 -10 -12.5 -15t-23.5 -5.5t-24 2.5t-13 9q-3 8 -5 32.5t-3.5 56.5t-2.5 68.5t-1.5 68.5t-0.5 55.5t1 31.5zM39 420q0 8 6 14.5t15 6.5q8 0 14.5 -6.5
t6.5 -14.5q0 -9 -6.5 -15t-14.5 -6q-9 0 -15 6t-6 15zM98 420q0 8 5.5 14.5t13.5 6.5t14 -6.5t6 -14.5t-6 -13.5t-14 -5.5q-19 0 -19 19z" />
    <glyph glyph-name="eth" unicode="&#xf0;" horiz-adv-x="358" 
d="M287 487q8 2 15.5 -4t12.5 -15t6 -18.5t-5 -12.5l-58 -31q21 -45 41 -96.5t29.5 -99.5t4 -87t-34.5 -60q-30 -21 -65.5 -31t-70 -9.5t-64.5 12t-49.5 33t-25 53t9.5 72.5q8 24 33.5 42.5t51.5 30.5q31 14 68 25q-5 8 -10 18q-5 8 -10.5 19t-11.5 24q-21 -11 -36 -18
t-20 -8q-7 -1 -14.5 6.5t-12.5 17.5t-5.5 20t7.5 15l50 25l-33 66q-11 22 0.5 38.5t31 24.5t40.5 7t28 -12l40 -72q21 10 36.5 16.5t20.5 8.5zM216 240q-45 -11 -78 -28q-28 -15 -47.5 -38.5t-8.5 -57.5q9 -26 29.5 -36.5t44.5 -9.5t46.5 10.5t34.5 23.5q17 20 13 51.5
t-34 84.5z" />
    <glyph glyph-name="ntilde" unicode="&#xf1;" horiz-adv-x="403" 
d="M36 339q1 12 12.5 18.5t26 7.5t26 -2.5t12.5 -10.5q1 -8 2 -14t2 -11q1 -6 2 -11q11 10 26 19q12 8 29 14t37 6q40 0 68 -17.5t46 -45.5t28.5 -64t15 -73.5t5.5 -72.5t0 -62q0 -11 -10.5 -16.5t-23.5 -6t-24 4t-12 13.5q-3 41 -6 91t-11 93.5t-24 73.5t-47 31
q-17 0 -31.5 -7.5t-25 -18.5t-16.5 -23.5t-5 -21.5q1 -14 2 -45.5t2.5 -65.5t3 -62.5t2.5 -34.5q1 -12 -15 -19.5t-36.5 -9t-37.5 3.5t-17 17q-1 8 -1.5 32.5t-1 57.5t-1.5 70t-1.5 70.5t-0.5 58v33.5zM139 429q3 7 8 15.5t11.5 16t14 13t15.5 6.5q9 0 16.5 -5.5t13 -12.5
t10 -13t8.5 -6q6 0 10 7.5t9 12.5q6 7 17 2t7 -16q-5 -12 -19.5 -27t-31.5 -16q-7 0 -12.5 4t-10 9t-9 9.5t-10.5 4.5q-8 0 -14.5 -10t-10.5 -13q-2 -1 -6.5 -0.5t-9 3t-7 6.5t0.5 10z" />
    <glyph glyph-name="ograve" unicode="&#xf2;" 
d="M87 309q33 22 71.5 20.5t73 -20t60.5 -50t36 -68.5q9 -37 -4 -71.5t-40.5 -58.5t-66.5 -35t-82 -1q-32 9 -55.5 28.5t-37.5 45.5t-18 55.5t1 58t20.5 54t41.5 42.5zM143 264q-17 -8 -26 -30.5t-7.5 -49.5t14.5 -53t41 -39q22 -10 42 -6.5t35 15t23.5 29.5t6.5 36
q-2 23 -15 44.5t-32 36.5t-41 20.5t-41 -3.5zM80 414q-4 4 -0.5 10.5t10 12.5t14 8.5t11.5 -2.5t11 -14.5t14.5 -19.5t13.5 -18.5t9 -11.5q2 -3 -0.5 -8t-7.5 -8.5t-10.5 -5t-8.5 2.5z" />
    <glyph glyph-name="oacute" unicode="&#xf3;" 
d="M87 309q33 22 71.5 20.5t73 -20t60.5 -50t36 -68.5q9 -37 -4 -71.5t-40.5 -58.5t-66.5 -35t-82 -1q-32 9 -55.5 28.5t-37.5 45.5t-18 55.5t1 58t20.5 54t41.5 42.5zM143 264q-17 -8 -26 -30.5t-7.5 -49.5t14.5 -53t41 -39q22 -10 42 -6.5t35 15t23.5 29.5t6.5 36
q-2 23 -15 44.5t-32 36.5t-41 20.5t-41 -3.5zM153 459q4 5 12 3t14.5 -8t9.5 -13t-2 -12l-73 -63q-5 -3 -10.5 -2t-9.5 4.5t-5 9t3 10.5z" />
    <glyph glyph-name="ocircumflex" unicode="&#xf4;" 
d="M87 309q33 22 71.5 20.5t73 -20t60.5 -50t36 -68.5q9 -37 -4 -71.5t-40.5 -58.5t-66.5 -35t-82 -1q-32 9 -55.5 28.5t-37.5 45.5t-18 55.5t1 58t20.5 54t41.5 42.5zM143 264q-17 -8 -26 -30.5t-7.5 -49.5t14.5 -53t41 -39q22 -10 42 -6.5t35 15t23.5 29.5t6.5 36
q-2 23 -15 44.5t-32 36.5t-41 20.5t-41 -3.5zM174 459q1 -3 8 -13t14.5 -21.5t13.5 -22t7 -13.5t-3 -7.5t-9.5 -7.5t-11 -4t-7.5 2l-29 49l-25 -52q-2 -5 -8.5 -5t-13 3t-10.5 7.5t-2 9.5q2 3 6.5 13.5t9.5 22.5t9.5 22.5t5.5 12.5q2 3 9 4.5t14.5 2.5t14 0.5t7.5 -3.5z" />
    <glyph glyph-name="otilde" unicode="&#xf5;" 
d="M87 309q33 22 71.5 20.5t73 -20t60.5 -50t36 -68.5q9 -37 -4 -71.5t-40.5 -58.5t-66.5 -35t-82 -1q-32 9 -55.5 28.5t-37.5 45.5t-18 55.5t1 58t20.5 54t41.5 42.5zM143 264q-17 -8 -26 -30.5t-7.5 -49.5t14.5 -53t41 -39q22 -10 42 -6.5t35 15t23.5 29.5t6.5 36
q-2 23 -15 44.5t-32 36.5t-41 20.5t-41 -3.5zM64 400q3 7 8 15.5t11.5 16t14 13t15.5 6.5q9 0 16.5 -5.5t13 -12.5t10 -13t8.5 -6q6 0 10 7.5t9 12.5q6 7 17 2t7 -16q-5 -12 -19.5 -27t-31.5 -16q-7 0 -12.5 4t-10 9t-9 9.5t-10.5 4.5q-8 0 -14.5 -10t-10.5 -13
q-2 -1 -6.5 -0.5t-9 3t-7 6.5t0.5 10z" />
    <glyph glyph-name="odieresis" unicode="&#xf6;" 
d="M87 309q33 22 71.5 20.5t73 -20t60.5 -50t36 -68.5q9 -37 -4 -71.5t-40.5 -58.5t-66.5 -35t-82 -1q-32 9 -55.5 28.5t-37.5 45.5t-18 55.5t1 58t20.5 54t41.5 42.5zM143 264q-17 -8 -26 -30.5t-7.5 -49.5t14.5 -53t41 -39q22 -10 42 -6.5t35 15t23.5 29.5t6.5 36
q-2 23 -15 44.5t-32 36.5t-41 20.5t-41 -3.5zM99 398q0 8 6 14.5t15 6.5q8 0 14.5 -6.5t6.5 -14.5q0 -9 -6.5 -15t-14.5 -6q-9 0 -15 6t-6 15zM158 398q0 8 5.5 14.5t13.5 6.5t14 -6.5t6 -14.5t-6 -13.5t-14 -5.5q-19 0 -19 19z" />
    <glyph glyph-name="divide" unicode="&#xf7;" horiz-adv-x="288" 
d="M247 321q8 -1 13 -9.5t5.5 -19t-2.5 -19t-10 -9.5q-5 0 -21 -1t-39 -2.5t-48.5 -3t-47.5 -2.5t-39 -1.5t-21 0.5q-7 2 -11 11.5t-4.5 21t3.5 21t13 10.5t39.5 1.5t65.5 1.5t65.5 1t38.5 -1zM117 200q0 13 8.5 22.5t20.5 9.5q14 0 23 -9.5t9 -22.5q0 -12 -9 -21t-23 -9
q-12 0 -20.5 9t-8.5 21zM112 378q0 13 9 22t21 9q13 0 22 -9t9 -22t-9 -21.5t-22 -8.5q-12 0 -21 8.5t-9 21.5z" />
    <glyph glyph-name="oslash" unicode="&#xf8;" 
d="M87 309q26 17 54 19.5t56 -5.5q10 27 16 36q4 6 14 6t20.5 -3t17.5 -8t6 -10l-18 -49q27 -20 47 -47t28 -57q9 -36 -2.5 -69t-37 -57t-62 -36.5t-76.5 -6.5l-14 -37q-2 -6 -9.5 -7t-15.5 1t-14 6.5t-5 10.5q0 4 3 15t8 27q-38 20 -58 56t-22.5 76t13.5 77.5t51 61.5z
M176 88q20 -6 38 -1.5t31.5 16.5t20.5 29t6 34q-2 20 -12.5 39.5t-26.5 34.5zM143 264q-13 -6 -21.5 -22.5t-11 -36.5t1.5 -42.5t17 -40.5q11 37 23.5 75t24.5 72q-9 1 -17.5 0t-16.5 -5z" />
    <glyph glyph-name="ugrave" unicode="&#xf9;" horiz-adv-x="368" 
d="M29 328q0 12 10 17t22.5 5t23 -5t10.5 -12q2 -66 2.5 -116.5t3.5 -84.5t11.5 -51.5t28.5 -17.5q21 0 34 20.5t21 57.5t12.5 86t8.5 106q1 12 17 18.5t35 7t35 -6t16 -21.5q0 -85 3 -171.5t8 -163.5q1 -9 -10.5 -15.5t-25.5 -9t-26 -1t-13 7.5q-2 11 -5 26.5t-5 29.5
q-3 16 -6 33q-14 -18 -31 -31q-14 -11 -34.5 -20t-43.5 -7q-27 2 -46 15t-31.5 48t-18.5 96.5t-6 159.5zM101 436q-4 4 -0.5 10.5t10 12.5t14 8.5t11.5 -2.5t11 -14.5t14.5 -19.5t13.5 -18.5t9 -11.5q2 -3 -0.5 -8t-7.5 -8.5t-10.5 -5t-8.5 2.5z" />
    <glyph glyph-name="uacute" unicode="&#xfa;" horiz-adv-x="368" 
d="M29 328q0 12 10 17t22.5 5t23 -5t10.5 -12q2 -66 2.5 -116.5t3.5 -84.5t11.5 -51.5t28.5 -17.5q21 0 34 20.5t21 57.5t12.5 86t8.5 106q1 12 17 18.5t35 7t35 -6t16 -21.5q0 -85 3 -171.5t8 -163.5q1 -9 -10.5 -15.5t-25.5 -9t-26 -1t-13 7.5q-2 11 -5 26.5t-5 29.5
q-3 16 -6 33q-14 -18 -31 -31q-14 -11 -34.5 -20t-43.5 -7q-27 2 -46 15t-31.5 48t-18.5 96.5t-6 159.5zM181 481q4 5 12 3t14.5 -8t9.5 -13t-2 -12l-73 -63q-5 -3 -10.5 -2t-9.5 4.5t-5 9t3 10.5z" />
    <glyph glyph-name="ucircumflex" unicode="&#xfb;" horiz-adv-x="368" 
d="M29 328q0 12 10 17t22.5 5t23 -5t10.5 -12q2 -66 2.5 -116.5t3.5 -84.5t11.5 -51.5t28.5 -17.5q21 0 34 20.5t21 57.5t12.5 86t8.5 106q1 12 17 18.5t35 7t35 -6t16 -21.5q0 -85 3 -171.5t8 -163.5q1 -9 -10.5 -15.5t-25.5 -9t-26 -1t-13 7.5q-2 11 -5 26.5t-5 29.5
q-3 16 -6 33q-14 -18 -31 -31q-14 -11 -34.5 -20t-43.5 -7q-27 2 -46 15t-31.5 48t-18.5 96.5t-6 159.5zM174 481q1 -3 8 -13t14.5 -21.5t13.5 -22t7 -13.5t-3 -7.5t-9.5 -7.5t-11 -4t-7.5 2l-29 49l-25 -52q-2 -5 -8.5 -5t-13 3t-10.5 7.5t-2 9.5q2 3 6.5 13.5t9.5 22.5
t9.5 22.5t5.5 12.5q2 3 9 4.5t14.5 2.5t14 0.5t7.5 -3.5z" />
    <glyph glyph-name="udieresis" unicode="&#xfc;" horiz-adv-x="368" 
d="M29 328q0 12 10 17t22.5 5t23 -5t10.5 -12q2 -66 2.5 -116.5t3.5 -84.5t11.5 -51.5t28.5 -17.5q21 0 34 20.5t21 57.5t12.5 86t8.5 106q1 12 17 18.5t35 7t35 -6t16 -21.5q0 -85 3 -171.5t8 -163.5q1 -9 -10.5 -15.5t-25.5 -9t-26 -1t-13 7.5q-2 11 -5 26.5t-5 29.5
q-3 16 -6 33q-14 -18 -31 -31q-14 -11 -34.5 -20t-43.5 -7q-27 2 -46 15t-31.5 48t-18.5 96.5t-6 159.5zM110 420q0 8 6 14.5t15 6.5q8 0 14.5 -6.5t6.5 -14.5q0 -9 -6.5 -15t-14.5 -6q-9 0 -15 6t-6 15zM169 420q0 8 5.5 14.5t13.5 6.5t14 -6.5t6 -14.5t-6 -13.5t-14 -5.5
q-19 0 -19 19z" />
    <glyph glyph-name="yacute" unicode="&#xfd;" horiz-adv-x="384" 
d="M23 310q-4 8 3 17t17.5 14t21 5.5t14.5 -7.5q34 -78 68.5 -136.5t58.5 -83.5q6 20 13.5 50.5t16 65t17 70.5t17.5 68q3 12 19 14t32.5 -2.5t29.5 -13.5t10 -19q-5 -21 -15.5 -60.5t-25 -89t-31 -105t-33.5 -109t-33 -100t-29 -78.5q-5 -13 -17.5 -13.5t-25.5 5.5
t-22 15.5t-7 17.5q9 29 16 51.5t14 44.5t14.5 47.5t17.5 60.5q-29 33 -70 97.5t-91 173.5zM196 481q4 5 12 3t14.5 -8t9.5 -13t-2 -12l-73 -63q-5 -3 -10.5 -2t-9.5 4.5t-5 9t3 10.5z" />
    <glyph glyph-name="thorn" unicode="&#xfe;" horiz-adv-x="341" 
d="M20 545q0 9 11.5 15.5t26 8t26.5 -2.5t13 -16q0 -8 1.5 -29.5t3 -49t3.5 -57.5t3.5 -55t2.5 -42t1 -18q1 1 6.5 7.5t14.5 13.5t21.5 13.5t26.5 8.5q15 2 36.5 -3.5t42 -22.5t37 -48t21.5 -79q5 -51 -7.5 -83t-32.5 -50t-42.5 -24.5t-37.5 -6.5t-27.5 2.5t-21.5 6.5
q-11 4 -19 9q5 -62 9 -113q1 -22 3 -43t3.5 -39t2.5 -31t1 -17q0 -9 -12.5 -15t-28.5 -8t-30 0.5t-15 10.5q-6 30 -11.5 92.5t-10 140t-7.5 162t-6 158.5t-5 129.5t-3 74.5zM124 106q0 -1 6 -6t16.5 -10.5t23.5 -10t28 -3.5q26 2 43 24.5t15 65.5q-1 22 -5.5 45t-13.5 41
t-22 29t-31 10q-15 -1 -28.5 -12.5t-22 -34.5t-11.5 -57.5t2 -80.5z" />
    <glyph glyph-name="ydieresis" unicode="&#xff;" horiz-adv-x="384" 
d="M129 406q-2 9 3.5 15.5t13.5 8.5t15 -3t9 -14t-3.5 -15.5t-13.5 -7.5q-9 -2 -15.5 3t-8.5 13zM186 417q-1 8 3.5 14.5t12.5 8.5q8 1 15 -4.5t9 -13.5q1 -8 -4 -14t-13 -8q-9 -2 -15 3.5t-8 13.5zM23 310q-4 8 3 17t17.5 14t21 5.5t14.5 -7.5q34 -78 68.5 -136.5
t58.5 -83.5q6 20 13.5 50.5t16 65t17 70.5t17.5 68q3 12 19 14t32.5 -2.5t29.5 -13.5t10 -19q-5 -21 -15.5 -60.5t-25 -89t-31 -105t-33.5 -109t-33 -100t-29 -78.5q-5 -13 -17.5 -13.5t-25.5 5.5t-22 15.5t-7 17.5q9 29 16 51.5t14 44.5t14.5 47.5t17.5 60.5
q-29 33 -70 97.5t-91 173.5z" />
    <glyph glyph-name="Amacron" unicode="&#x100;" horiz-adv-x="447" 
d="M160 556q5 10 21 13.5t34 1.5t34 -8.5t22 -15.5l6 -18t11.5 -37.5t15 -50t16.5 -55.5q19 -67 43 -149q6 -21 16 -52t19.5 -61.5t17 -54.5t9.5 -30q2 -9 -7 -16t-21 -9.5t-23 0t-14 11.5l-48 142q-53 -12 -96.5 -18.5t-66.5 -9.5l-39 -132q-3 -6 -19 -8.5t-32.5 0
t-28 10.5t-7.5 22q2 7 8.5 32t15.5 61.5t20.5 81.5t23 91t23 90.5t21 80t16.5 59.5t9 29zM227 436l-65 -235q37 5 66 9q25 4 45.5 7t20.5 4zM266 661q6 0 9 -6t3.5 -13.5t-1.5 -14.5t-8 -7l-106 -3q-6 0 -8.5 5.5t-3 12.5t2 13t7.5 6z" />
    <glyph glyph-name="amacron" unicode="&#x101;" horiz-adv-x="367" 
d="M218 394q0 8 12.5 13t28.5 5t29.5 -5t15.5 -17q1 -3 4 -32t7.5 -70t9.5 -88.5t9 -88.5t7 -68.5t3 -29.5q2 -12 -8.5 -20t-25.5 -11.5t-28.5 -3t-17.5 5.5t-7.5 16.5t-6 23.5t-4 21l-1.5 9q-12 -15 -41 -26.5t-62.5 -9t-64.5 24.5t-46 75q-16 59 -4.5 104t40 74t69 40.5
t83.5 2.5zM226 268q-3 1 -14.5 6t-27.5 8t-34.5 0t-34.5 -18q-15 -13 -21.5 -33.5t-6.5 -43t5.5 -44.5t16.5 -38t26 -24t33 -2q31 10 44.5 37t16.5 57.5t0.5 57.5t-3.5 37zM204 469q6 0 9 -6t3.5 -13.5t-1.5 -14.5t-8 -7l-106 -3q-6 0 -8.5 5.5t-3 12.5t2 13t7.5 6z" />
    <glyph glyph-name="Abreve" unicode="&#x102;" horiz-adv-x="447" 
d="M160 556q5 10 21 13.5t34 1.5t34 -8.5t22 -15.5l6 -18t11.5 -37.5t15 -50t16.5 -55.5q19 -67 43 -149q6 -21 16 -52t19.5 -61.5t17 -54.5t9.5 -30q2 -9 -7 -16t-21 -9.5t-23 0t-14 11.5l-48 142q-53 -12 -96.5 -18.5t-66.5 -9.5l-39 -132q-3 -6 -19 -8.5t-32.5 0
t-28 10.5t-7.5 22q2 7 8.5 32t15.5 61.5t20.5 81.5t23 91t23 90.5t21 80t16.5 59.5t9 29zM227 436l-65 -235q37 5 66 9q25 4 45.5 7t20.5 4zM149 666q0 4 6.5 6.5t14 3.5t14 -0.5t6.5 -5.5q2 -14 3.5 -23t11.5 -10q9 -1 16 7t7 26q0 4 6.5 6.5t14 2.5t14 -2t6.5 -7
q-1 -12 -4 -23.5t-10 -20.5t-19 -14.5t-31 -5.5q-17 0 -28 5.5t-17 14t-8 19t-3 21.5z" />
    <glyph glyph-name="abreve" unicode="&#x103;" horiz-adv-x="367" 
d="M218 394q0 8 12.5 13t28.5 5t29.5 -5t15.5 -17q1 -3 4 -32t7.5 -70t9.5 -88.5t9 -88.5t7 -68.5t3 -29.5q2 -12 -8.5 -20t-25.5 -11.5t-28.5 -3t-17.5 5.5t-7.5 16.5t-6 23.5t-4 21l-1.5 9q-12 -15 -41 -26.5t-62.5 -9t-64.5 24.5t-46 75q-16 59 -4.5 104t40 74t69 40.5
t83.5 2.5zM226 268q-3 1 -14.5 6t-27.5 8t-34.5 0t-34.5 -18q-15 -13 -21.5 -33.5t-6.5 -43t5.5 -44.5t16.5 -38t26 -24t33 -2q31 10 44.5 37t16.5 57.5t0.5 57.5t-3.5 37zM94 474q0 4 6.5 6.5t14 3.5t14 -0.5t6.5 -5.5q2 -14 3.5 -23t11.5 -10q9 -1 16 7t7 26q0 4 6.5 6.5
t14 2.5t14 -2t6.5 -7q-1 -12 -4 -23.5t-10 -20.5t-19 -14.5t-31 -5.5q-17 0 -28 5.5t-17 14t-8 19t-3 21.5z" />
    <glyph glyph-name="Aogonek" unicode="&#x104;" horiz-adv-x="447" 
d="M160 556q5 10 21 13.5t34 1.5t34 -8.5t22 -15.5l6 -18t11.5 -37.5t15 -50t16.5 -55.5q19 -67 43 -149q6 -21 16 -52t19.5 -61.5t17 -54.5t9.5 -30q0 -9 -4 -14q-5 -8 -12.5 -18t-14 -21t-10 -21t0.5 -17t14.5 -9t23.5 -0.5t25 4.5t18 5t10.5 -4t6.5 -14.5t1.5 -16
t-4.5 -8.5q-5 -2 -21 -6.5t-36 -6t-40 2t-33 18.5q-11 12 -13 27t0.5 30.5t9 30t12.5 25.5l-41 141q-53 -12 -99.5 -18.5t-69.5 -9.5l-39 -132q-3 -6 -19 -8.5t-32.5 0t-28 10.5t-7.5 22q2 7 8.5 32t15.5 61.5t20.5 81.5t23 91t23 90.5t21 80t16.5 59.5t9 29zM299 221
q-2 10 -6.5 25t-9.5 33t-11 38t-12 39q-14 45 -31 96l-67 -251q38 5 68 9q26 4 47.5 7t21.5 4z" />
    <glyph glyph-name="aogonek" unicode="&#x105;" horiz-adv-x="367" 
d="M218 394q0 8 12.5 13t28.5 5t29.5 -5t15.5 -17q1 -3 4 -32t7.5 -70t9.5 -88.5t9 -88.5t7 -68.5t3 -29.5v-7q-1 -6 -8.5 -17t-16 -24t-13.5 -25t-1 -20q4 -7 14.5 -8.5t23.5 0t25 4.5t18 5t10.5 -4t6.5 -14.5t1.5 -16.5t-4.5 -9q-5 -2 -21 -6t-36 -6t-40 2t-33 19
q-9 10 -13.5 23.5t-5 28t2 29t5.5 26.5q-3 7 -5.5 18t-4.5 20.5t-3 16l-1 6.5q-12 -15 -41 -26.5t-62.5 -9t-64.5 24.5t-46 75q-16 59 -4.5 104t40 74t69 40.5t83.5 2.5zM226 268q-3 1 -14.5 6t-27.5 8t-34.5 0t-34.5 -18q-15 -13 -21.5 -33.5t-6.5 -43t5.5 -44.5t16.5 -38
t26 -24t33 -2q31 10 44.5 37t16.5 57.5t0.5 57.5t-3.5 37z" />
    <glyph glyph-name="Cacute" unicode="&#x106;" horiz-adv-x="452" 
d="M190 574q38 6 69 -10t54 -42.5t37.5 -56t20.5 -49.5q2 -9 -6.5 -16.5t-20 -11.5t-23 -2.5t-15.5 12.5q-8 21 -17 43.5t-21.5 40t-31 27t-43.5 4.5q-23 -4 -38.5 -25.5t-23.5 -54t-9.5 -73t3 -82t14.5 -81t25 -70.5t34 -50t42 -19q33 0 55.5 15.5t37.5 39t24.5 49
t15.5 45.5q3 9 13.5 13t21 2t18 -10t4.5 -22t-15.5 -45t-36.5 -62.5t-60.5 -56.5t-86.5 -26q-46 -1 -82.5 21t-63 59.5t-42.5 86.5t-20 101.5t3.5 103.5t28 93.5t54 71.5t81.5 37zM209 702q4 5 12 3t14.5 -8t9.5 -13t-2 -12l-73 -63q-5 -3 -10.5 -2t-9.5 4.5t-5 9t3 10.5z
" />
    <glyph glyph-name="cacute" unicode="&#x107;" horiz-adv-x="354" 
d="M205 222q-4 8 -7.5 21t-10.5 25t-17.5 20.5t-28.5 7.5q-10 0 -18 -10.5t-12.5 -28.5t-6 -41.5t1.5 -49.5q7 -53 25 -82t44 -26q21 3 40 14.5t34.5 25t27 25t19.5 13.5q16 4 30 -9t13 -29q0 -8 -12 -23t-33.5 -30t-52.5 -27t-70 -13q-66 -3 -106 41t-42 122q-1 22 4 53
t17.5 60t35 49.5t55.5 21.5q37 2 61 -11.5t37.5 -32t19 -37t6.5 -27.5q2 -12 -5 -19.5t-17 -10.5t-19.5 -1.5t-12.5 9.5zM145 474q4 5 12 3t14.5 -8t9.5 -13t-2 -12l-73 -63q-5 -3 -10.5 -2t-9.5 4.5t-5 9t3 10.5z" />
    <glyph glyph-name="Ccircumflex" unicode="&#x108;" horiz-adv-x="452" 
d="M190 574q38 6 69 -10t54 -42.5t37.5 -56t20.5 -49.5q2 -9 -6.5 -16.5t-20 -11.5t-23 -2.5t-15.5 12.5q-8 21 -17 43.5t-21.5 40t-31 27t-43.5 4.5q-23 -4 -38.5 -25.5t-23.5 -54t-9.5 -73t3 -82t14.5 -81t25 -70.5t34 -50t42 -19q33 0 55.5 15.5t37.5 39t24.5 49
t15.5 45.5q3 9 13.5 13t21 2t18 -10t4.5 -22t-15.5 -45t-36.5 -62.5t-60.5 -56.5t-86.5 -26q-46 -1 -82.5 21t-63 59.5t-42.5 86.5t-20 101.5t3.5 103.5t28 93.5t54 71.5t81.5 37zM222 702q1 -3 8 -13t14.5 -21.5t13.5 -22t7 -13.5t-3 -7.5t-9.5 -7.5t-11 -4t-7.5 2l-29 49
l-25 -52q-2 -5 -8.5 -5t-13 3t-10.5 7.5t-2 9.5q2 3 6.5 13.5t9.5 22.5t9.5 22.5t5.5 12.5q2 3 9 4.5t14.5 2.5t14 0.5t7.5 -3.5z" />
    <glyph glyph-name="ccircumflex" unicode="&#x109;" horiz-adv-x="354" 
d="M205 222q-4 8 -7.5 21t-10.5 25t-17.5 20.5t-28.5 7.5q-10 0 -18 -10.5t-12.5 -28.5t-6 -41.5t1.5 -49.5q7 -53 25 -82t44 -26q21 3 40 14.5t34.5 25t27 25t19.5 13.5q16 4 30 -9t13 -29q0 -8 -12 -23t-33.5 -30t-52.5 -27t-70 -13q-66 -3 -106 41t-42 122q-1 22 4 53
t17.5 60t35 49.5t55.5 21.5q37 2 61 -11.5t37.5 -32t19 -37t6.5 -27.5q2 -12 -5 -19.5t-17 -10.5t-19.5 -1.5t-12.5 9.5zM159 481q1 -3 8 -13t14.5 -21.5t13.5 -22t7 -13.5t-3 -7.5t-9.5 -7.5t-11 -4t-7.5 2l-29 49l-25 -52q-2 -5 -8.5 -5t-13 3t-10.5 7.5t-2 9.5
q2 3 6.5 13.5t9.5 22.5t9.5 22.5t5.5 12.5q2 3 9 4.5t14.5 2.5t14 0.5t7.5 -3.5z" />
    <glyph glyph-name="Cdotaccent" unicode="&#x10a;" horiz-adv-x="452" 
d="M190 574q38 6 69 -10t54 -42.5t37.5 -56t20.5 -49.5q2 -9 -6.5 -16.5t-20 -11.5t-23 -2.5t-15.5 12.5q-8 21 -17 43.5t-21.5 40t-31 27t-43.5 4.5q-23 -4 -38.5 -25.5t-23.5 -54t-9.5 -73t3 -82t14.5 -81t25 -70.5t34 -50t42 -19q33 0 55.5 15.5t37.5 39t24.5 49
t15.5 45.5q3 9 13.5 13t21 2t18 -10t4.5 -22t-15.5 -45t-36.5 -62.5t-60.5 -56.5t-86.5 -26q-46 -1 -82.5 21t-63 59.5t-42.5 86.5t-20 101.5t3.5 103.5t28 93.5t54 71.5t81.5 37zM176 634q0 8 6 14.5t15 6.5q8 0 14.5 -6.5t6.5 -14.5q0 -9 -6.5 -15t-14.5 -6q-9 0 -15 6
t-6 15z" />
    <glyph glyph-name="cdotaccent" unicode="&#x10b;" horiz-adv-x="354" 
d="M205 222q-4 8 -7.5 21t-10.5 25t-17.5 20.5t-28.5 7.5q-10 0 -18 -10.5t-12.5 -28.5t-6 -41.5t1.5 -49.5q7 -53 25 -82t44 -26q21 3 40 14.5t34.5 25t27 25t19.5 13.5q16 4 30 -9t13 -29q0 -8 -12 -23t-33.5 -30t-52.5 -27t-70 -13q-66 -3 -106 41t-42 122q-1 22 4 53
t17.5 60t35 49.5t55.5 21.5q37 2 61 -11.5t37.5 -32t19 -37t6.5 -27.5q2 -12 -5 -19.5t-17 -10.5t-19.5 -1.5t-12.5 9.5zM119 420q0 8 6 14.5t15 6.5q8 0 14.5 -6.5t6.5 -14.5q0 -9 -6.5 -15t-14.5 -6q-9 0 -15 6t-6 15z" />
    <glyph glyph-name="Ccaron" unicode="&#x10c;" horiz-adv-x="452" 
d="M190 574q38 6 69 -10t54 -42.5t37.5 -56t20.5 -49.5q2 -9 -6.5 -16.5t-20 -11.5t-23 -2.5t-15.5 12.5q-8 21 -17 43.5t-21.5 40t-31 27t-43.5 4.5q-23 -4 -38.5 -25.5t-23.5 -54t-9.5 -73t3 -82t14.5 -81t25 -70.5t34 -50t42 -19q33 0 55.5 15.5t37.5 39t24.5 49
t15.5 45.5q3 9 13.5 13t21 2t18 -10t4.5 -22t-15.5 -45t-36.5 -62.5t-60.5 -56.5t-86.5 -26q-46 -1 -82.5 21t-63 59.5t-42.5 86.5t-20 101.5t3.5 103.5t28 93.5t54 71.5t81.5 37zM164 614q-2 3 -8.5 13t-14 21.5t-14 22t-7.5 13.5q0 3 4 7.5t9.5 7.5t11 4t7.5 -2l29 -49
l25 52q2 5 8.5 5t13 -3t10.5 -8t2 -9q-2 -3 -7 -13.5t-10 -22.5t-9.5 -22.5t-5.5 -12.5q-2 -3 -8.5 -5t-14 -2.5t-14 0t-7.5 3.5z" />
    <glyph glyph-name="ccaron" unicode="&#x10d;" horiz-adv-x="354" 
d="M205 222q-4 8 -7.5 21t-10.5 25t-17.5 20.5t-28.5 7.5q-10 0 -18 -10.5t-12.5 -28.5t-6 -41.5t1.5 -49.5q7 -53 25 -82t44 -26q21 3 40 14.5t34.5 25t27 25t19.5 13.5q16 4 30 -9t13 -29q0 -8 -12 -23t-33.5 -30t-52.5 -27t-70 -13q-66 -3 -106 41t-42 122q-1 22 4 53
t17.5 60t35 49.5t55.5 21.5q37 2 61 -11.5t37.5 -32t19 -37t6.5 -27.5q2 -12 -5 -19.5t-17 -10.5t-19.5 -1.5t-12.5 9.5zM115 385q-2 3 -8.5 13t-14 21.5t-14 22t-7.5 13.5q0 3 4 7.5t9.5 7.5t11 4t7.5 -2l29 -49l25 52q2 5 8.5 5t13 -3t10.5 -8t2 -9q-2 -3 -7 -13.5
t-10 -22.5t-9.5 -22.5t-5.5 -12.5q-2 -3 -8.5 -5t-14 -2.5t-14 0t-7.5 3.5z" />
    <glyph glyph-name="Dcaron" unicode="&#x10e;" horiz-adv-x="484" 
d="M41 566q-1 18 17.5 24.5t40.5 5.5t40 -6.5t18 -11.5l2 -37q13 0 34.5 -1.5t46.5 -6t51 -11.5t49 -17q55 -27 86 -76.5t36 -106.5t-17.5 -114t-73.5 -99q-33 -27 -72.5 -47t-83 -34t-89 -24.5t-90.5 -18.5q-12 -2 -17 5t-5 16.5t4 18t10 9.5q9 2 16 3.5t12 2.5l10 2
q-7 134 -12 244q-2 47 -4.5 93t-4.5 84.5t-3 66t-1 36.5zM194 73q25 8 54 20.5t59 37.5q26 20 42 50t22.5 63.5t4 68.5t-14 65.5t-31 54.5t-47.5 36q-53 22 -118 19zM202 592q-2 3 -8.5 13t-14 21.5t-14 22t-7.5 13.5q0 3 4 7.5t9.5 7.5t11 4t7.5 -2l29 -49l25 52q2 5 8.5 5
t13 -3t10.5 -8t2 -9q-2 -3 -7 -13.5t-10 -22.5t-9.5 -22.5t-5.5 -12.5q-2 -3 -8.5 -5t-14 -2.5t-14 0t-7.5 3.5z" />
    <glyph glyph-name="dcaron" unicode="&#x10f;" horiz-adv-x="422" 
d="M201 546q0 15 16 23.5t35.5 9.5t36 -5t16.5 -20q0 -11 0.5 -54t1 -101.5t1 -125t1 -125t1 -101.5t0.5 -53q0 -6 -11 -11.5t-24 -7.5t-25 0.5t-13 12.5q-2 8 -3 19.5t-2.5 22.5t-2 19.5t-0.5 11.5q-18 -4 -40 -6.5t-45.5 -0.5t-45.5 9.5t-39 23.5t-27 41.5t-9 63.5
q0 33 11 58t28.5 43t38.5 29.5t41.5 17.5t38.5 7t29 -1q-1 16 -2.5 44t-3 57.5t-2.5 56.5t-1 42zM213 295q-29 4 -51.5 -4t-37.5 -24.5t-21.5 -39.5t-4.5 -49q3 -48 33 -68.5t93 -1.5l-6 92q-2 35 -3.5 64t-1.5 31zM338 403q0 16 11 27t26 11q16 0 28 -11t12 -27
q2 -26 -10 -50.5t-24 -40.5q-3 -5 -8.5 -4.5t-10 4t-6.5 8.5t1 11q7 11 10.5 23t-4.5 14q-13 4 -19 13.5t-6 21.5z" />
    <glyph glyph-name="Dcroat" unicode="&#x110;" horiz-adv-x="484" 
d="M41 566q-1 18 17.5 24.5t40.5 5.5t40 -6.5t18 -11.5l2 -37q13 0 34.5 -1.5t46.5 -6t51 -11.5t49 -17q55 -27 86 -76.5t36 -106.5t-17.5 -114t-73.5 -99q-33 -27 -72.5 -47t-83 -34t-89 -24.5t-90.5 -18.5q-12 -2 -17 5t-5 16.5t4 18t10 9.5q9 2 16 3.5t12 2.5l10 2
q-1 25 -3 54q-2 25 -3 58t-3 71q-10 -1 -17 -1.5t-9 0.5q-6 1 -10.5 8.5t-5.5 16.5t1.5 16.5t10.5 9.5q3 0 10 0.5t17 1.5q-3 48 -5 96t-4 87.5t-3 68t-1 37.5zM235 290q7 -1 11 -7t4.5 -13.5t-2 -14t-8.5 -7.5l-58 -9l12 -166q25 8 54 20.5t59 37.5q26 21 42 50.5t22.5 63
t4 68.5t-14 65.5t-31 54.5t-47.5 36q-53 22 -118 19l14 -201q20 2 35.5 2.5t20.5 0.5z" />
    <glyph glyph-name="dcroat" unicode="&#x111;" horiz-adv-x="356" 
d="M333 456q7 -1 11 -7t4.5 -13.5t-1.5 -14t-8 -7.5l-32 -5q0 -59 0.5 -127t1 -128.5t1 -105t0.5 -54.5q0 -6 -11 -11.5t-24 -7.5t-25 0.5t-13 12.5q-2 8 -3 19.5t-2.5 22.5t-2 19.5t-0.5 11.5q-18 -4 -40 -6.5t-45.5 -0.5t-45.5 9.5t-39 23.5t-27 41.5t-9 63.5
q1 33 11.5 58t28 43t38.5 29.5t41.5 17.5t38.5 7t29 -1l-3 52q-23 -3 -31 -1q-6 1 -10.5 8.5t-5.5 16.5t2 16.5t11 8.5q4 0 12 1t19 2q-2 29 -3 55t0 41q0 15 16 23.5t35.5 9.5t36 -5t16.5 -20q0 -8 0.5 -34.5t0.5 -63.5h27zM213 295q-29 4 -51.5 -4t-37.5 -24.5
t-21.5 -39.5t-4.5 -49q3 -48 33 -68.5t93 -1.5l-6 92q-2 35 -3.5 64t-1.5 31z" />
    <glyph glyph-name="Emacron" unicode="&#x112;" horiz-adv-x="447" 
d="M22 554q0 16 14.5 22t32 5.5t33 -6t17.5 -13.5q1 -5 2 -8.5t1 -7.5v-8q64 3 116 6q22 1 44 2.5t40 2.5t30.5 1.5t16.5 0.5q7 0 13.5 -7.5t9 -17.5t-1.5 -19t-16 -10q-6 -1 -20 -2.5t-33 -3.5t-40.5 -4t-43.5 -4q-52 -4 -113 -10l12 -177q58 9 106 17q20 3 40.5 6
t37.5 5.5t29 4.5t17 2q9 0 14.5 -9.5t7 -21t-1.5 -21.5t-10 -11q-4 0 -16.5 -2t-29.5 -4.5t-38 -6t-42 -6.5q-49 -8 -110 -18l11 -141q64 8 118 15q22 3 44.5 6t41 5.5t31.5 4t17 2.5q8 1 13.5 -6.5t7.5 -18t0 -20t-9 -11.5q-35 -11 -82 -21t-92.5 -18.5t-83.5 -14.5t-54 -8
q-12 -2 -21.5 -0.5t-12.5 9.5q-2 4 -5 28.5t-6.5 61t-7.5 82t-8 93t-7.5 94t-6.5 84.5t-4.5 64t-1.5 33zM273 654q6 0 9 -6t3.5 -13.5t-1.5 -14.5t-8 -7l-106 -3q-6 0 -8.5 5.5t-3 12.5t2 13t7.5 6z" />
    <glyph glyph-name="emacron" unicode="&#x113;" horiz-adv-x="377" 
d="M111 141q8 -37 22.5 -54.5t32.5 -20.5t38 4.5t39 20t36 27t29 24.5q8 7 18.5 2.5t18.5 -14t10 -22t-6 -20.5q-9 -8 -28 -21.5t-44.5 -26t-55.5 -21.5t-59 -9q-53 1 -89.5 33.5t-47.5 94.5q-5 27 -2.5 59.5t15.5 62.5t36.5 53t59.5 31q35 8 64.5 -0.5t51.5 -23.5
t35.5 -31.5t16.5 -24.5q6 -17 2.5 -31.5t-23.5 -22.5q-5 -2 -32 -12.5t-58 -22.5t-55.5 -22.5t-24.5 -11.5zM240 251q1 0 -3.5 7t-14.5 14.5t-26 12.5t-39 1q-17 -3 -27 -16t-14.5 -26.5t-5.5 -25l-1 -11.5l20.5 6.5t44.5 15t44.5 15.5t21.5 7zM195 440q6 0 9 -6t3.5 -13.5
t-1.5 -14.5t-8 -7l-106 -3q-6 0 -8.5 5.5t-3 12.5t2 13t7.5 6z" />
    <glyph glyph-name="Ebreve" unicode="&#x114;" horiz-adv-x="447" 
d="M22 554q0 16 14.5 22t32 5.5t33 -6t17.5 -13.5q1 -5 2 -8.5t1 -7.5v-8q64 3 116 6q22 1 44 2.5t40 2.5t30.5 1.5t16.5 0.5q7 0 13.5 -7.5t9 -17.5t-1.5 -19t-16 -10q-6 -1 -20 -2.5t-33 -3.5t-40.5 -4t-43.5 -4q-52 -4 -113 -10l12 -177q58 9 106 17q20 3 40.5 6
t37.5 5.5t29 4.5t17 2q9 0 14.5 -9.5t7 -21t-1.5 -21.5t-10 -11q-4 0 -16.5 -2t-29.5 -4.5t-38 -6t-42 -6.5q-49 -8 -110 -18l11 -141q64 8 118 15q22 3 44.5 6t41 5.5t31.5 4t17 2.5q8 1 13.5 -6.5t7.5 -18t0 -20t-9 -11.5q-35 -11 -82 -21t-92.5 -18.5t-83.5 -14.5t-54 -8
q-12 -2 -21.5 -0.5t-12.5 9.5q-2 4 -5 28.5t-6.5 61t-7.5 82t-8 93t-7.5 94t-6.5 84.5t-4.5 64t-1.5 33zM164 659q0 4 6.5 6.5t14 3.5t14 -0.5t6.5 -5.5q2 -14 3.5 -23t11.5 -10q9 -1 16 7t7 26q0 4 6.5 6.5t14 2.5t14 -2t6.5 -7q-1 -12 -4 -23.5t-10 -20.5t-19 -14.5
t-31 -5.5q-17 0 -28 5.5t-17 14t-8 19t-3 21.5z" />
    <glyph glyph-name="ebreve" unicode="&#x115;" horiz-adv-x="377" 
d="M111 141q8 -37 22.5 -54.5t32.5 -20.5t38 4.5t39 20t36 27t29 24.5q8 7 18.5 2.5t18.5 -14t10 -22t-6 -20.5q-9 -8 -28 -21.5t-44.5 -26t-55.5 -21.5t-59 -9q-53 1 -89.5 33.5t-47.5 94.5q-5 27 -2.5 59.5t15.5 62.5t36.5 53t59.5 31q35 8 64.5 -0.5t51.5 -23.5
t35.5 -31.5t16.5 -24.5q6 -17 2.5 -31.5t-23.5 -22.5q-5 -2 -32 -12.5t-58 -22.5t-55.5 -22.5t-24.5 -11.5zM240 251q1 0 -3.5 7t-14.5 14.5t-26 12.5t-39 1q-17 -3 -27 -16t-14.5 -26.5t-5.5 -25l-1 -11.5l20.5 6.5t44.5 15t44.5 15.5t21.5 7zM78 438q0 4 6.5 6.5t14 3.5
t14 -0.5t6.5 -5.5q2 -14 3.5 -23t11.5 -10q9 -1 16 7t7 26q0 4 6.5 6.5t14 2.5t14 -2t6.5 -7q-1 -12 -4 -23.5t-10 -20.5t-19 -14.5t-31 -5.5q-17 0 -28 5.5t-17 14t-8 19t-3 21.5z" />
    <glyph glyph-name="Edotaccent" unicode="&#x116;" horiz-adv-x="447" 
d="M22 554q0 16 14.5 22t32 5.5t33 -6t17.5 -13.5q1 -5 2 -8.5t1 -7.5v-8q64 3 116 6q22 1 44 2.5t40 2.5t30.5 1.5t16.5 0.5q7 0 13.5 -7.5t9 -17.5t-1.5 -19t-16 -10q-6 -1 -20 -2.5t-33 -3.5t-40.5 -4t-43.5 -4q-52 -4 -113 -10l12 -177q58 9 106 17q20 3 40.5 6
t37.5 5.5t29 4.5t17 2q9 0 14.5 -9.5t7 -21t-1.5 -21.5t-10 -11q-4 0 -16.5 -2t-29.5 -4.5t-38 -6t-42 -6.5q-49 -8 -110 -18l11 -141q64 8 118 15q22 3 44.5 6t41 5.5t31.5 4t17 2.5q8 1 13.5 -6.5t7.5 -18t0 -20t-9 -11.5q-35 -11 -82 -21t-92.5 -18.5t-83.5 -14.5t-54 -8
q-12 -2 -21.5 -0.5t-12.5 9.5q-2 4 -5 28.5t-6.5 61t-7.5 82t-8 93t-7.5 94t-6.5 84.5t-4.5 64t-1.5 33zM202 634q0 8 6 14.5t15 6.5q8 0 14.5 -6.5t6.5 -14.5q0 -9 -6.5 -15t-14.5 -6q-9 0 -15 6t-6 15z" />
    <glyph glyph-name="edotaccent" unicode="&#x117;" horiz-adv-x="377" 
d="M111 141q8 -37 22.5 -54.5t32.5 -20.5t38 4.5t39 20t36 27t29 24.5q8 7 18.5 2.5t18.5 -14t10 -22t-6 -20.5q-9 -8 -28 -21.5t-44.5 -26t-55.5 -21.5t-59 -9q-53 1 -89.5 33.5t-47.5 94.5q-5 27 -2.5 59.5t15.5 62.5t36.5 53t59.5 31q35 8 64.5 -0.5t51.5 -23.5
t35.5 -31.5t16.5 -24.5q6 -17 2.5 -31.5t-23.5 -22.5q-5 -2 -32 -12.5t-58 -22.5t-55.5 -22.5t-24.5 -11.5zM240 251q1 0 -3.5 7t-14.5 14.5t-26 12.5t-39 1q-17 -3 -27 -16t-14.5 -26.5t-5.5 -25l-1 -11.5l20.5 6.5t44.5 15t44.5 15.5t21.5 7zM116 413q0 8 6 14.5t15 6.5
q8 0 14.5 -6.5t6.5 -14.5q0 -9 -6.5 -15t-14.5 -6q-9 0 -15 6t-6 15z" />
    <glyph glyph-name="Eogonek" unicode="&#x118;" horiz-adv-x="447" 
d="M22 554q0 16 14.5 22t32 5.5t33 -6t17.5 -13.5q1 -5 2 -8.5t1 -7.5v-8q64 3 116 6q22 1 44 2.5t40 2.5t30.5 1.5t16.5 0.5q7 0 13.5 -7.5t9 -17.5t-1.5 -19t-16 -10q-6 -1 -20 -2.5t-33 -3.5t-40.5 -4t-43.5 -4q-52 -4 -113 -10l12 -177q58 9 106 17q20 3 40.5 6
t37.5 5.5t29 4.5t17 2q9 0 14.5 -9.5t7 -21t-1.5 -21.5t-10 -11q-4 0 -16.5 -2t-29.5 -4.5t-38 -6t-42 -6.5q-49 -8 -110 -18l11 -141q64 8 118 15q22 3 44.5 6t41 5.5t31.5 4t17 2.5q8 1 13.5 -6.5t7.5 -18t0 -20t-9 -11.5q-9 -3 -36.5 -12.5t-56 -23.5t-50 -31t-19.5 -34
q1 -8 10.5 -10.5t22 -2.5t25 1.5t18.5 2.5q7 1 11.5 -5.5t6.5 -14.5t1 -15.5t-5 -8.5q-40 -8 -73 -6t-52.5 15.5t-21.5 38t20 62.5q-38 -7 -68.5 -11.5t-44.5 -6.5q-12 -2 -21.5 -0.5t-12.5 9.5q-2 4 -5 28.5t-6.5 61t-7.5 82t-8 93t-7.5 94t-6.5 84.5t-4.5 64t-1.5 33z" />
    <glyph glyph-name="eogonek" unicode="&#x119;" horiz-adv-x="377" 
d="M111 141q8 -37 22.5 -54.5t32.5 -20.5t38 4.5t39 20t36 27t29 24.5q8 7 18.5 2.5t18.5 -14t10 -22t-6 -20.5q-6 -5 -23 -18.5t-33.5 -30.5t-26.5 -35t-2 -32q3 -7 14 -8.5t23.5 0t24.5 4.5t18 5t11 -4t7 -14.5t1.5 -16.5t-5.5 -9q-5 -2 -21 -6t-35.5 -5.5t-39.5 2
t-33 18.5q-16 17 -15 39.5t9 42.5q-35 -10 -67.5 -8t-59 16.5t-45.5 41.5t-26 68q-5 27 -2.5 59.5t15.5 62.5t36.5 53t59.5 31q35 8 64.5 -0.5t51.5 -23.5t35.5 -31.5t16.5 -24.5q6 -17 2.5 -31.5t-23.5 -22.5q-5 -2 -32 -12.5t-58 -22.5t-55.5 -22.5t-24.5 -11.5zM240 251
q1 0 -3.5 7t-14.5 14.5t-26 12.5t-39 1q-17 -3 -27 -16t-14.5 -26.5t-5.5 -25l-1 -11.5l20.5 6.5t44.5 15t44.5 15.5t21.5 7z" />
    <glyph glyph-name="Ecaron" unicode="&#x11a;" horiz-adv-x="447" 
d="M22 554q0 16 14.5 22t32 5.5t33 -6t17.5 -13.5q1 -5 2 -8.5t1 -7.5v-8q64 3 116 6q22 1 44 2.5t40 2.5t30.5 1.5t16.5 0.5q7 0 13.5 -7.5t9 -17.5t-1.5 -19t-16 -10q-6 -1 -20 -2.5t-33 -3.5t-40.5 -4t-43.5 -4q-52 -4 -113 -10l12 -177q58 9 106 17q20 3 40.5 6
t37.5 5.5t29 4.5t17 2q9 0 14.5 -9.5t7 -21t-1.5 -21.5t-10 -11q-4 0 -16.5 -2t-29.5 -4.5t-38 -6t-42 -6.5q-49 -8 -110 -18l11 -141q64 8 118 15q22 3 44.5 6t41 5.5t31.5 4t17 2.5q8 1 13.5 -6.5t7.5 -18t0 -20t-9 -11.5q-35 -11 -82 -21t-92.5 -18.5t-83.5 -14.5t-54 -8
q-12 -2 -21.5 -0.5t-12.5 9.5q-2 4 -5 28.5t-6.5 61t-7.5 82t-8 93t-7.5 94t-6.5 84.5t-4.5 64t-1.5 33zM205 599q-2 3 -8.5 13t-14 21.5t-14 22t-7.5 13.5q0 3 4 7.5t9.5 7.5t11 4t7.5 -2l29 -49l25 52q2 5 8.5 5t13 -3t10.5 -8t2 -9q-2 -3 -7 -13.5t-10 -22.5t-9.5 -22.5
t-5.5 -12.5q-2 -3 -8.5 -5t-14 -2.5t-14 0t-7.5 3.5z" />
    <glyph glyph-name="ecaron" unicode="&#x11b;" horiz-adv-x="377" 
d="M111 141q8 -37 22.5 -54.5t32.5 -20.5t38 4.5t39 20t36 27t29 24.5q8 7 18.5 2.5t18.5 -14t10 -22t-6 -20.5q-9 -8 -28 -21.5t-44.5 -26t-55.5 -21.5t-59 -9q-53 1 -89.5 33.5t-47.5 94.5q-5 27 -2.5 59.5t15.5 62.5t36.5 53t59.5 31q35 8 64.5 -0.5t51.5 -23.5
t35.5 -31.5t16.5 -24.5q6 -17 2.5 -31.5t-23.5 -22.5q-5 -2 -32 -12.5t-58 -22.5t-55.5 -22.5t-24.5 -11.5zM240 251q1 0 -3.5 7t-14.5 14.5t-26 12.5t-39 1q-17 -3 -27 -16t-14.5 -26.5t-5.5 -25l-1 -11.5l20.5 6.5t44.5 15t44.5 15.5t21.5 7zM119 378q-2 3 -8.5 13
t-14 21.5t-14 22t-7.5 13.5q0 3 4 7.5t9.5 7.5t11 4t7.5 -2l29 -49l25 52q2 5 8.5 5t13 -3t10.5 -8t2 -9q-2 -3 -7 -13.5t-10 -22.5t-9.5 -22.5t-5.5 -12.5q-2 -3 -8.5 -5t-14 -2.5t-14 0t-7.5 3.5z" />
    <glyph glyph-name="Gcircumflex" unicode="&#x11c;" horiz-adv-x="422" 
d="M338 429q2 -9 -6.5 -14t-19.5 -6.5t-21 0t-11 7.5q-11 46 -26 74t-40 27q-25 -2 -41.5 -23.5t-26 -55t-13.5 -74t-4 -80.5t4.5 -82.5t15.5 -76t29.5 -53.5t45.5 -14q19 4 29 18t13.5 37t3 55t-2.5 72l-43 -10q-6 -2 -11.5 5t-8.5 17t-2 19t7 12l178 44q7 1 11.5 -3.5
t7 -11t1.5 -13t-5 -8.5l-36 -15q2 -38 -1 -81t-18 -80.5t-44 -64t-80 -32.5q-43 -5 -74.5 5.5t-54 31.5t-37 49.5t-22.5 59t-10.5 61t-2.5 55.5q1 82 17 136.5t41.5 87t58.5 46t69 14.5q33 1 56 -14.5t38.5 -37t24 -45t11.5 -38.5zM215 702q1 -3 8 -13t14.5 -21.5t13.5 -22
t7 -13.5t-3 -7.5t-9.5 -7.5t-11 -4t-7.5 2l-29 49l-25 -52q-2 -5 -8.5 -5t-13 3t-10.5 7.5t-2 9.5q2 3 6.5 13.5t9.5 22.5t9.5 22.5t5.5 12.5q2 3 9 4.5t14.5 2.5t14 0.5t7.5 -3.5z" />
    <glyph glyph-name="gcircumflex" unicode="&#x11d;" horiz-adv-x="316" 
d="M150 356q-1 9 12.5 15.5t30.5 9t32.5 0t17.5 -12.5q2 -7 7 -36.5t11.5 -73t12.5 -96.5t10 -106.5t4.5 -103t-5.5 -85.5q-5 -32 -20.5 -53.5t-37.5 -34t-47.5 -17t-50.5 -2.5q-49 4 -89.5 29t-59.5 60q-5 10 1.5 19t17.5 14.5t23 6.5t17 -6q24 -32 51 -48.5t51.5 -20.5
t43.5 3.5t27 23.5q9 17 9 53t-3 73q-4 43 -12 93l-6.5 -9t-19 -18.5t-31 -16.5t-43.5 -2q-41 8 -63 42.5t-18 102.5q1 33 12 59t29 45.5t41.5 33t49.5 21.5zM161 275q-23 -5 -39 -23t-25 -41.5t-11.5 -49.5t2.5 -47t16 -33.5t29 -9.5q23 4 31 32.5t7.5 63t-5 66t-5.5 42.5z
M148 491q1 -3 8 -13t14.5 -21.5t13.5 -22t7 -13.5t-3 -7.5t-9.5 -7.5t-11 -4t-7.5 2l-29 49l-25 -52q-2 -5 -8.5 -5t-13 3t-10.5 7.5t-2 9.5q2 3 6.5 13.5t9.5 22.5t9.5 22.5t5.5 12.5q2 3 9 4.5t14.5 2.5t14 0.5t7.5 -3.5z" />
    <glyph glyph-name="Gbreve" unicode="&#x11e;" horiz-adv-x="422" 
d="M338 429q2 -9 -6.5 -14t-19.5 -6.5t-21 0t-11 7.5q-11 46 -26 74t-40 27q-25 -2 -41.5 -23.5t-26 -55t-13.5 -74t-4 -80.5t4.5 -82.5t15.5 -76t29.5 -53.5t45.5 -14q19 4 29 18t13.5 37t3 55t-2.5 72l-43 -10q-6 -2 -11.5 5t-8.5 17t-2 19t7 12l178 44q7 1 11.5 -3.5
t7 -11t1.5 -13t-5 -8.5l-36 -15q2 -38 -1 -81t-18 -80.5t-44 -64t-80 -32.5q-43 -5 -74.5 5.5t-54 31.5t-37 49.5t-22.5 59t-10.5 61t-2.5 55.5q1 82 17 136.5t41.5 87t58.5 46t69 14.5q33 1 56 -14.5t38.5 -37t24 -45t11.5 -38.5zM137 666q0 4 6.5 6.5t14 3.5t14 -0.5
t6.5 -5.5q2 -14 3.5 -23t11.5 -10q9 -1 16 7t7 26q0 4 6.5 6.5t14 2.5t14 -2t6.5 -7q-1 -12 -4 -23.5t-10 -20.5t-19 -14.5t-31 -5.5q-17 0 -28 5.5t-17 14t-8 19t-3 21.5z" />
    <glyph glyph-name="gbreve" unicode="&#x11f;" horiz-adv-x="316" 
d="M150 356q-1 9 12.5 15.5t30.5 9t32.5 0t17.5 -12.5q2 -7 7 -36.5t11.5 -73t12.5 -96.5t10 -106.5t4.5 -103t-5.5 -85.5q-5 -32 -20.5 -53.5t-37.5 -34t-47.5 -17t-50.5 -2.5q-49 4 -89.5 29t-59.5 60q-5 10 1.5 19t17.5 14.5t23 6.5t17 -6q24 -32 51 -48.5t51.5 -20.5
t43.5 3.5t27 23.5q9 17 9 53t-3 73q-4 43 -12 93l-6.5 -9t-19 -18.5t-31 -16.5t-43.5 -2q-41 8 -63 42.5t-18 102.5q1 33 12 59t29 45.5t41.5 33t49.5 21.5zM161 275q-23 -5 -39 -23t-25 -41.5t-11.5 -49.5t2.5 -47t16 -33.5t29 -9.5q23 4 31 32.5t7.5 63t-5 66t-5.5 42.5z
M71 468q0 4 6.5 6.5t14 3.5t14 -0.5t6.5 -5.5q2 -14 3.5 -23t11.5 -10q9 -1 16 7t7 26q0 4 6.5 6.5t14 2.5t14 -2t6.5 -7q-1 -12 -4 -23.5t-10 -20.5t-19 -14.5t-31 -5.5q-17 0 -28 5.5t-17 14t-8 19t-3 21.5z" />
    <glyph glyph-name="Gdotaccent" unicode="&#x120;" horiz-adv-x="422" 
d="M338 429q2 -9 -6.5 -14t-19.5 -6.5t-21 0t-11 7.5q-11 46 -26 74t-40 27q-25 -2 -41.5 -23.5t-26 -55t-13.5 -74t-4 -80.5t4.5 -82.5t15.5 -76t29.5 -53.5t45.5 -14q19 4 29 18t13.5 37t3 55t-2.5 72l-43 -10q-6 -2 -11.5 5t-8.5 17t-2 19t7 12l178 44q7 1 11.5 -3.5
t7 -11t1.5 -13t-5 -8.5l-36 -15q2 -38 -1 -81t-18 -80.5t-44 -64t-80 -32.5q-43 -5 -74.5 5.5t-54 31.5t-37 49.5t-22.5 59t-10.5 61t-2.5 55.5q1 82 17 136.5t41.5 87t58.5 46t69 14.5q33 1 56 -14.5t38.5 -37t24 -45t11.5 -38.5zM175 641q0 8 6 14.5t15 6.5q8 0 14.5 -6.5
t6.5 -14.5q0 -9 -6.5 -15t-14.5 -6q-9 0 -15 6t-6 15z" />
    <glyph glyph-name="gdotaccent" unicode="&#x121;" horiz-adv-x="316" 
d="M150 356q-1 9 12.5 15.5t30.5 9t32.5 0t17.5 -12.5q2 -7 7 -36.5t11.5 -73t12.5 -96.5t10 -106.5t4.5 -103t-5.5 -85.5q-5 -32 -20.5 -53.5t-37.5 -34t-47.5 -17t-50.5 -2.5q-49 4 -89.5 29t-59.5 60q-5 10 1.5 19t17.5 14.5t23 6.5t17 -6q24 -32 51 -48.5t51.5 -20.5
t43.5 3.5t27 23.5q9 17 9 53t-3 73q-4 43 -12 93l-6.5 -9t-19 -18.5t-31 -16.5t-43.5 -2q-41 8 -63 42.5t-18 102.5q1 33 12 59t29 45.5t41.5 33t49.5 21.5zM161 275q-23 -5 -39 -23t-25 -41.5t-11.5 -49.5t2.5 -47t16 -33.5t29 -9.5q23 4 31 32.5t7.5 63t-5 66t-5.5 42.5z
M86 413q0 8 6 14.5t15 6.5q8 0 14.5 -6.5t6.5 -14.5q0 -9 -6.5 -15t-14.5 -6q-9 0 -15 6t-6 15z" />
    <glyph glyph-name="Gcommaaccent" unicode="&#x122;" horiz-adv-x="422" 
d="M338 429q2 -9 -6.5 -14t-19.5 -6.5t-21 0t-11 7.5q-11 46 -26 74t-40 27q-25 -2 -41.5 -23.5t-26 -55t-13.5 -74t-4 -80.5t4.5 -82.5t15.5 -76t29.5 -53.5t45.5 -14q19 4 29 18t13.5 37t3 55t-2.5 72l-43 -10q-6 -2 -11.5 5t-8.5 17t-2 19t7 12l178 44q7 1 11.5 -3.5
t7 -11t1.5 -13t-5 -8.5l-36 -15q2 -38 -1 -81t-18 -80.5t-44 -64t-80 -32.5q-43 -5 -74.5 5.5t-54 31.5t-37 49.5t-22.5 59t-10.5 61t-2.5 55.5q1 82 17 136.5t41.5 87t58.5 46t69 14.5q33 1 56 -14.5t38.5 -37t24 -45t11.5 -38.5zM172 -55q0 16 11 27t26 11q16 0 28 -11
t12 -27q2 -26 -10 -50.5t-24 -40.5q-3 -5 -8.5 -4.5t-10 4t-6.5 8.5t1 11q7 11 10.5 23t-4.5 14q-13 4 -19 13.5t-6 21.5z" />
    <glyph glyph-name="gcommaaccent" unicode="&#x123;" horiz-adv-x="316" 
d="M150 356q-1 9 12.5 15.5t30.5 9t32.5 0t17.5 -12.5q2 -7 7 -36.5t11.5 -73t12.5 -96.5t10 -106.5t4.5 -103t-5.5 -85.5q-5 -32 -20.5 -53.5t-37.5 -34t-47.5 -17t-50.5 -2.5q-49 4 -89.5 29t-59.5 60q-5 10 1.5 19t17.5 14.5t23 6.5t17 -6q24 -32 51 -48.5t51.5 -20.5
t43.5 3.5t27 23.5q9 17 9 53t-3 73q-4 43 -12 93l-6.5 -9t-19 -18.5t-31 -16.5t-43.5 -2q-41 8 -63 42.5t-18 102.5q1 33 12 59t29 45.5t41.5 33t49.5 21.5zM161 275q-23 -5 -39 -23t-25 -41.5t-11.5 -49.5t2.5 -47t16 -33.5t29 -9.5q23 4 31 32.5t7.5 63t-5 66t-5.5 42.5z
M178 434.993q0 -15.999 -10.999 -26.998t-25.998 -10.999q-15.999 0 -27.999 10.999q-11.999 10.999 -11.999 26.998q-2 25.999 10 50.4971q11.999 24.499 23.998 40.498q3 4.99902 8.5 4.49902q5.49902 -0.5 9.99902 -3.99902q4.5 -3.5 6.5 -8.5q1.99902 -5 -1 -10.999
q-7 -10.999 -10.5 -22.999q-3.5 -11.999 4.5 -13.999q12.999 -4 18.999 -13.499q5.99902 -9.49902 5.99902 -21.499z" />
    <glyph glyph-name="Hcircumflex" unicode="&#x124;" horiz-adv-x="484" 
d="M29 575q0 13 18.5 19t40 5.5t40 -7t18.5 -17.5q0 -8 1 -29.5t2 -50t2.5 -59.5t2.5 -56.5t1.5 -42.5l0.5 -17l14.5 1.5t36.5 3.5t48 4.5t48 4.5t37 3l15 1v13t-0.5 34t-0.5 45.5t-0.5 47.5t-0.5 40.5v24.5q0 9 11.5 14t25.5 6t26 -3t13 -12q2 -29 3.5 -71t2.5 -90.5
t1.5 -100t1 -98t1 -86t1.5 -63.5q0 -9 -12 -14.5t-27.5 -6.5t-28.5 2t-14 10q-1 4 -1 24.5t-0.5 48t-0.5 59v58v43.5v17l-197 -27q1 -59 2 -107q0 -21 0.5 -41.5t1 -37.5t1 -29.5t1.5 -16.5q1 -9 -16.5 -16.5t-38.5 -10t-39 1.5t-18 18q0 9 -2 52t-4.5 102t-6 126.5t-6 127
t-4 102t-1.5 51.5zM275 695q1 -3 8 -13t14.5 -21.5t13.5 -22t7 -13.5t-3 -7.5t-9.5 -7.5t-11 -4t-7.5 2l-29 49l-25 -52q-2 -5 -8.5 -5t-13 3t-10.5 7.5t-2 9.5q2 3 6.5 13.5t9.5 22.5t9.5 22.5t5.5 12.5q2 3 9 4.5t14.5 2.5t14 0.5t7.5 -3.5z" />
    <glyph glyph-name="hcircumflex" unicode="&#x125;" horiz-adv-x="352" 
d="M29 564q0 12 13.5 17.5t30 5.5t29.5 -4.5t13 -11.5q-1 -26 0 -68l2 -84q1 -48 2 -101q10 10 22 17q11 6 26.5 11t35.5 3q32 -3 54.5 -22t36.5 -47t21.5 -62.5t11 -68.5t3.5 -65.5t-1 -52.5q0 -10 -10.5 -14t-22.5 -3t-21.5 6.5t-9.5 15.5v40t-2 54t-6 58.5t-10.5 54
t-17 41t-25.5 18.5q-23 4 -38 -20t-23.5 -64.5t-11.5 -93.5t-1 -108q0 -11 -12.5 -16t-27.5 -4.5t-27.5 5.5t-12.5 14q-6 78 -14 218t-7 331zM221 481q1 -3 8 -13t14.5 -21.5t13.5 -22t7 -13.5t-3 -7.5t-9.5 -7.5t-11 -4t-7.5 2l-29 49l-25 -52q-2 -5 -8.5 -5t-13 3
t-10.5 7.5t-2 9.5q2 3 6.5 13.5t9.5 22.5t9.5 22.5t5.5 12.5q2 3 9 4.5t14.5 2.5t14 0.5t7.5 -3.5z" />
    <glyph glyph-name="Hbar" unicode="&#x126;" horiz-adv-x="492" 
d="M39 575q0 13 19.5 19t43.5 5.5t44 -7t20 -17.5q0 -6 0.5 -20t1.5 -33.5t2 -42t2 -45.5l202 23v86q0 9 9.5 14t21.5 6t22 -3t11 -12q2 -17 2.5 -38t1.5 -45l27 3q7 0 11 -8t5 -18t-2.5 -18.5t-10.5 -8.5l-28 -3q1 -50 1.5 -105t1 -106t1 -93.5t1.5 -68.5q0 -9 -10.5 -14.5
t-23.5 -6.5t-24 2t-12 10q-1 4 -1 24.5t-0.5 48t-0.5 59v58v43.5v17l-198 -27q1 -59 2 -107q0 -21 0.5 -41.5t1.5 -37.5t1.5 -29.5t0.5 -16.5q1 -9 -18 -16.5t-42 -10t-42.5 1.5t-19.5 18q0 8 -1.5 44t-4 87t-5.5 110.5t-5 116.5l-26 -2q-8 0 -11.5 7t-3.5 16t3 16.5t9 7.5
l26 3q-2 60 -4 102.5t-1 52.5zM176 320l99 9q19 2 37 3t32 3q17 2 31 3q0 -1 -0.5 19t-0.5 48l-200 -20q1 -14 1.5 -25.5t0.5 -20.5v-19z" />
    <glyph glyph-name="hbar" unicode="&#x127;" horiz-adv-x="374" 
d="M180 456q7 -1 11 -7t5 -13.5t-1.5 -14t-8.5 -7.5l-55 -8q0 -19 0.5 -34.5t0.5 -27.5q0 -14 1 -26q10 10 22 17q11 6 26.5 11t36.5 3q32 -3 54 -22t36.5 -47t22 -62.5t11 -68.5t3.5 -65.5t-1 -52.5q0 -10 -10.5 -14t-22.5 -3t-21.5 6.5t-9.5 15.5v40t-2 54t-6 58.5t-11 54
t-17.5 40.5t-25.5 19q-23 4 -38 -20t-23 -64.5t-11 -93.5t-2 -108q0 -11 -12 -16t-27 -4.5t-27.5 5.5t-13.5 14q-5 60 -11 156.5t-8 225.5q-17 -2 -22 0q-6 1 -10 8.5t-5 16.5t1.5 16.5t10.5 8.5q3 0 9.5 0.5t14.5 1.5v115q0 12 13.5 17.5t29.5 5.5t29.5 -4.5t13.5 -11.5
q-1 -20 -1 -51.5t1 -65.5q17 1 31 1.5t19 0.5z" />
    <glyph glyph-name="Itilde" unicode="&#x128;" horiz-adv-x="411" 
d="M31 550q7 1 32 3.5t58.5 5t71 5t71 5t57.5 4.5t31 3q10 1 15.5 -8t7 -21t-2 -22.5t-11.5 -11.5q-6 -1 -25 -2t-39 -3q-24 -2 -52 -5l23 -416q19 2 38 3q16 1 34.5 1t32.5 -2q8 -1 11 -10t2.5 -19.5t-4 -19t-7.5 -8.5q-97 -7 -168.5 -14t-128.5 -14q-10 -1 -15.5 6t-8 16
t-1.5 17.5t5 11.5q6 4 23.5 7.5t36.5 6.5q22 4 49 7l-27 421q-25 -2 -47 -4q-19 -2 -36.5 -3t-23.5 -1q-8 0 -12.5 9t-5.5 20t3 20.5t13 11.5zM122 643q3 7 8 15.5t11.5 16t14 13t15.5 6.5q9 0 16.5 -5.5t13 -12.5t10 -13t8.5 -6q6 0 10 7.5t9 12.5q6 7 17 2t7 -16
q-5 -12 -19.5 -27t-31.5 -16q-7 0 -12.5 4t-10 9t-9 9.5t-10.5 4.5q-8 0 -14.5 -10t-10.5 -13q-2 -1 -6.5 -0.5t-9 3t-7 6.5t0.5 10z" />
    <glyph glyph-name="itilde" unicode="&#x129;" horiz-adv-x="177" 
d="M44 334q1 9 14.5 13.5t29.5 3.5t29.5 -6t14.5 -14q1 -10 1 -35.5v-58.5t-1 -68.5t-1.5 -65.5t-1 -50.5t-0.5 -22.5q-2 -10 -12.5 -15t-23.5 -5.5t-24 2.5t-13 9q-3 8 -5 32.5t-3.5 56.5t-2.5 68.5t-1.5 68.5t-0.5 55.5t1 31.5zM19 429q3 7 8 15.5t11.5 16t14 13t15.5 6.5
q9 0 16.5 -5.5t13 -12.5t10 -13t8.5 -6q6 0 10 7.5t9 12.5q6 7 17 2t7 -16q-5 -12 -19.5 -27t-31.5 -16q-7 0 -12.5 4t-10 9t-9 9.5t-10.5 4.5q-8 0 -14.5 -10t-10.5 -13q-2 -1 -6.5 -0.5t-9 3t-7 6.5t0.5 10z" />
    <glyph glyph-name="Imacron" unicode="&#x12a;" horiz-adv-x="411" 
d="M31 550q7 1 32 3.5t58.5 5t71 5t71 5t57.5 4.5t31 3q10 1 15.5 -8t7 -21t-2 -22.5t-11.5 -11.5q-6 -1 -25 -2t-39 -3q-24 -2 -52 -5l23 -416q19 2 38 3q16 1 34.5 1t32.5 -2q8 -1 11 -10t2.5 -19.5t-4 -19t-7.5 -8.5q-97 -7 -168.5 -14t-128.5 -14q-10 -1 -15.5 6t-8 16
t-1.5 17.5t5 11.5q6 4 23.5 7.5t36.5 6.5q22 4 49 7l-27 421q-25 -2 -47 -4q-19 -2 -36.5 -3t-23.5 -1q-8 0 -12.5 9t-5.5 20t3 20.5t13 11.5zM241 654q6 0 9 -6t3.5 -13.5t-1.5 -14.5t-8 -7l-106 -3q-6 0 -8.5 5.5t-3 12.5t2 13t7.5 6z" />
    <glyph glyph-name="imacron" unicode="&#x12b;" horiz-adv-x="177" 
d="M44 334q1 9 14.5 13.5t29.5 3.5t29.5 -6t14.5 -14q1 -10 1 -35.5v-58.5t-1 -68.5t-1.5 -65.5t-1 -50.5t-0.5 -22.5q-2 -10 -12.5 -15t-23.5 -5.5t-24 2.5t-13 9q-3 8 -5 32.5t-3.5 56.5t-2.5 68.5t-1.5 68.5t-0.5 55.5t1 31.5zM139 440q6 0 9 -6t3.5 -13.5t-1.5 -14.5
t-8 -7l-106 -3q-6 0 -8.5 5.5t-3 12.5t2 13t7.5 6z" />
    <glyph glyph-name="Ibreve" unicode="&#x12c;" horiz-adv-x="411" 
d="M31 550q7 1 32 3.5t58.5 5t71 5t71 5t57.5 4.5t31 3q10 1 15.5 -8t7 -21t-2 -22.5t-11.5 -11.5q-6 -1 -25 -2t-39 -3q-24 -2 -52 -5l23 -416q19 2 38 3q16 1 34.5 1t32.5 -2q8 -1 11 -10t2.5 -19.5t-4 -19t-7.5 -8.5q-97 -7 -168.5 -14t-128.5 -14q-10 -1 -15.5 6t-8 16
t-1.5 17.5t5 11.5q6 4 23.5 7.5t36.5 6.5q22 4 49 7l-27 421q-25 -2 -47 -4q-19 -2 -36.5 -3t-23.5 -1q-8 0 -12.5 9t-5.5 20t3 20.5t13 11.5zM131 659q0 4 6.5 6.5t14 3.5t14 -0.5t6.5 -5.5q2 -14 3.5 -23t11.5 -10q9 -1 16 7t7 26q0 4 6.5 6.5t14 2.5t14 -2t6.5 -7
q-1 -12 -4 -23.5t-10 -20.5t-19 -14.5t-31 -5.5q-17 0 -28 5.5t-17 14t-8 19t-3 21.5z" />
    <glyph glyph-name="ibreve" unicode="&#x12d;" horiz-adv-x="177" 
d="M44 334q1 9 14.5 13.5t29.5 3.5t29.5 -6t14.5 -14q1 -10 1 -35.5v-58.5t-1 -68.5t-1.5 -65.5t-1 -50.5t-0.5 -22.5q-2 -10 -12.5 -15t-23.5 -5.5t-24 2.5t-13 9q-3 8 -5 32.5t-3.5 56.5t-2.5 68.5t-1.5 68.5t-0.5 55.5t1 31.5zM28 445q0 4 6.5 6.5t14 3.5t14 -0.5
t6.5 -5.5q2 -14 3.5 -23t11.5 -10q9 -1 16 7t7 26q0 4 6.5 6.5t14 2.5t14 -2t6.5 -7q-1 -12 -4 -23.5t-10 -20.5t-19 -14.5t-31 -5.5q-17 0 -28 5.5t-17 14t-8 19t-3 21.5z" />
    <glyph glyph-name="Iogonek" unicode="&#x12e;" horiz-adv-x="411" 
d="M34 550q8 1 33 3t58 4.5t71 5.5t71 5.5t57 4.5t31 3q10 1 17 -8t9 -21t-2 -22.5t-14 -11.5q-6 0 -25 -1.5t-39 -3.5q-24 -3 -52 -5l23 -416l38 2q16 1 34.5 1t32.5 -1q12 -1 16 -10t3.5 -19.5t-5.5 -19t-12 -8.5h-30t-28 -1q-19 -2 -37.5 -9t-32 -17.5t-20.5 -23
t-3 -24.5q3 -7 13.5 -8.5t23.5 0t25.5 4.5t18.5 5t10.5 -4t6.5 -14.5t1.5 -16.5t-4.5 -9q-14 -5 -33 -8t-38.5 -1.5t-36.5 7.5t-27 19.5t-9.5 35.5t15.5 54q-32 -3 -59 -7.5t-53 -9.5q-12 -2 -19 4.5t-9 15.5t0 18.5t8 12.5t23.5 6.5t36.5 6.5q22 4 48 8l-27 421
q-25 -2 -47 -4q-19 -2 -36.5 -3t-23.5 -1q-9 -1 -14.5 8t-6.5 20t3.5 21t15.5 12z" />
    <glyph glyph-name="iogonek" unicode="&#x12f;" horiz-adv-x="177" 
d="M44 334q1 9 14.5 13.5t29.5 3.5t29.5 -6t14.5 -14q1 -10 1 -35.5v-58.5t-1 -68.5t-1.5 -65.5t-1 -50.5t-0.5 -22.5q0 -10 -10.5 -23t-22.5 -26.5t-20 -26t-3 -21.5q3 -7 14 -8.5t24 0t25 4.5t18 5t10.5 -4t6.5 -14.5t1.5 -16.5t-4.5 -9q-5 -2 -21 -6t-36 -6t-40 2t-33 19
q-13 14 -14 32t3.5 35.5t13 33t14.5 25.5q-3 12 -5 37.5t-3.5 57t-2.5 66.5t-1 65v52.5t1 30.5zM48 419q0 15 11.5 22.5t25.5 7.5t26.5 -7t13.5 -20t-10.5 -21t-26 -9.5t-27.5 5t-13 22.5z" />
    <glyph glyph-name="Idotaccent" unicode="&#x130;" horiz-adv-x="411" 
d="M31 550q7 1 32 3.5t58.5 5t71 5t71 5t57.5 4.5t31 3q10 1 15.5 -8t7 -21t-2 -22.5t-11.5 -11.5q-6 -1 -25 -2t-39 -3q-24 -2 -52 -5l23 -416q19 2 38 3q16 1 34.5 1t32.5 -2q8 -1 11 -10t2.5 -19.5t-4 -19t-7.5 -8.5q-97 -7 -168.5 -14t-128.5 -14q-10 -1 -15.5 6t-8 16
t-1.5 17.5t5 11.5q6 4 23.5 7.5t36.5 6.5q22 4 49 7l-27 421q-25 -2 -47 -4q-19 -2 -36.5 -3t-23.5 -1q-8 0 -12.5 9t-5.5 20t3 20.5t13 11.5zM170 634q0 8 6 14.5t15 6.5q8 0 14.5 -6.5t6.5 -14.5q0 -9 -6.5 -15t-14.5 -6q-9 0 -15 6t-6 15z" />
    <glyph glyph-name="dotlessi" unicode="&#x131;" horiz-adv-x="177" 
d="M44 334q1 9 14.5 13.5t29.5 3.5t29.5 -6t14.5 -14q1 -10 1 -35.5v-58.5t-1 -68.5t-1.5 -65.5t-1 -50.5t-0.5 -22.5q-2 -10 -12.5 -15t-23.5 -5.5t-24 2.5t-13 9q-3 8 -5 32.5t-3.5 56.5t-2.5 68.5t-1.5 68.5t-0.5 55.5t1 31.5z" />
    <glyph glyph-name="Jcircumflex" unicode="&#x134;" horiz-adv-x="371" 
d="M162 529q-2 21 17 35t42.5 18.5t44.5 -1.5t23 -25q8 -63 20.5 -125.5t22.5 -121t14.5 -110.5t-1.5 -94t-26 -72t-59 -44q-43 -15 -83.5 -9.5t-73.5 21t-56 36t-30 34.5q-7 13 -0.5 23t18 15.5t24 5t17.5 -6.5q7 -9 25 -25.5t40 -30t45.5 -18.5t41.5 8q12 9 16 32t0 59
t-14 84t-25 106q-15 57 -23 88.5t-11.5 50.5t-5 32.5t-3.5 34.5zM228 716q1 -3 8 -13t14.5 -21.5t13.5 -22t7 -13.5t-3 -7.5t-9.5 -7.5t-11 -4t-7.5 2l-29 49l-25 -52q-2 -5 -8.5 -5t-13 3t-10.5 7.5t-2 9.5q2 3 6.5 13.5t9.5 22.5t9.5 22.5t5.5 12.5q2 3 9 4.5t14.5 2.5
t14 0.5t7.5 -3.5z" />
    <glyph glyph-name="jcircumflex" unicode="&#x135;" horiz-adv-x="165" 
d="M26 354q-1 12 12.5 18t30 6.5t30.5 -4t16 -13.5q1 -6 3 -33t4.5 -67.5t4 -90t2 -101t-1 -100.5t-5.5 -89q-4 -31 -19 -53t-37.5 -35t-48.5 -17t-50.5 1.5t-45.5 20t-33 38.5q-4 8 1 17.5t13.5 16t18 7.5t14.5 -6q15 -23 34 -32t36 -7.5t30.5 12t18.5 28.5q7 29 5 85.5
t-8 125t-13.5 140.5t-11.5 132zM83 517q1 -3 8 -13t14.5 -21.5t13.5 -22t7 -13.5t-3 -7.5t-9.5 -7.5t-11 -4t-7.5 2l-29 49l-25 -52q-2 -5 -8.5 -5t-13 3t-10.5 7.5t-2 9.5q2 3 6.5 13.5t9.5 22.5t9.5 22.5t5.5 12.5q2 3 9 4.5t14.5 2.5t14 0.5t7.5 -3.5z" />
    <glyph glyph-name="Kcommaaccent" unicode="&#x136;" horiz-adv-x="566" 
d="M29 580q-1 14 17 20t39.5 5t40 -7.5t19.5 -17.5v-20t0.5 -35.5t1 -45.5t0.5 -50q1 -59 1 -130q48 62 88 112q17 21 33.5 42t30 38.5t23 29t11.5 14.5q5 6 16.5 4.5t22.5 -7.5t17.5 -15t0.5 -19l-137 -201q32 -26 68.5 -58.5t68.5 -61t55.5 -49.5t28.5 -25q8 -6 6 -16.5
t-9 -20t-17 -14.5t-19 0q-6 4 -32 21.5t-61 42t-73.5 51.5t-69.5 50l-49 -71q2 -30 5 -56q2 -23 3.5 -44t2.5 -29q0 -9 -16 -16.5t-35.5 -10.5t-35.5 -0.5t-17 13.5q0 4 -1.5 29.5t-3.5 64.5t-4.5 87.5t-5 100t-5 101.5t-4.5 90.5t-3.5 68.5t-1.5 35zM247 -6q0 16 11 27
t26 11q16 0 28 -11t12 -27q2 -26 -10 -50.5t-24 -40.5q-3 -5 -8.5 -4.5t-10 4t-6.5 8.5t1 11q7 11 10.5 23t-4.5 14q-13 4 -19 13.5t-6 21.5z" />
    <glyph glyph-name="kcommaaccent" unicode="&#x137;" horiz-adv-x="427" 
d="M43 582q1 12 16 17t32.5 3.5t32 -8.5t14.5 -19v-308q37 26 68 48q26 18 49 34.5t28 19.5q6 3 13 -1t12.5 -11.5t7.5 -15.5t-2 -12l-75 -75q-26 -26 -58 -57l210 -109q6 -5 5 -15.5t-6 -20.5t-12.5 -16t-14.5 -3q-5 2 -17 6.5t-28.5 11t-36 14t-38.5 15.5q-46 18 -100 39
q0 -36 1 -65q1 -25 1 -47v-27q0 -8 -12.5 -13t-27 -5.5t-27.5 4t-14 15.5q-9 72 -15.5 152.5t-9.5 160t-2 153.5t6 135zM196 -19q0 16 11 27t26 11q16 0 28 -11t12 -27q2 -26 -10 -50.5t-24 -40.5q-3 -5 -8.5 -4.5t-10 4t-6.5 8.5t1 11q7 11 10.5 23t-4.5 14q-13 4 -19 13.5
t-6 21.5z" />
    <glyph glyph-name="kgreenlandic" unicode="&#x138;" horiz-adv-x="411" 
d="M43 407q0 12 15 17.5t32.5 4t32.5 -8.5t15 -19v-156q37 26 68 48q26 18 49 34.5t28 19.5q6 3 13 -1t12.5 -11.5t7.5 -15.5t-2 -12l-75 -75q-26 -26 -58 -57l210 -109q6 -5 5 -15.5t-6 -20t-12.5 -16t-14.5 -3.5q-5 2 -17 6.5t-28.5 11t-36 14t-38.5 15.5q-46 18 -100 39
q0 -29 1 -54q1 -21 1 -39.5v-23.5q0 -8 -12.5 -13t-27 -5.5t-27.5 4t-14 15.5q-8 69 -13 122t-7 101t-2 96t1 107z" />
    <glyph glyph-name="Lacute" unicode="&#x139;" horiz-adv-x="403" 
d="M29 538q-1 19 19 27t45 6.5t45.5 -10.5t20.5 -24q1 -42 -1.5 -91t-5.5 -99t-6 -97t-2 -86t7.5 -66t20.5 -36q7 -5 29 -1t49 10.5t53.5 13t42.5 8.5q15 2 25.5 -8t14.5 -23t0.5 -25t-15.5 -14q-15 -2 -40.5 -6t-55 -7t-61 -5.5t-58.5 -1.5t-47 5.5t-27 14.5
q-14 18 -22.5 60t-14.5 95t-9 111t-4 109t-1.5 89t-1.5 51zM104 695q4 5 12 3t14.5 -8t9.5 -13t-2 -12l-73 -63q-5 -3 -10.5 -2t-9.5 4.5t-5 9t3 10.5z" />
    <glyph glyph-name="lacute" unicode="&#x13a;" horiz-adv-x="188" 
d="M48 544q1 16 15 23t30.5 6.5t30 -7.5t13.5 -18q0 -32 1.5 -85.5t2.5 -122t1 -149t-2 -167.5q0 -10 -11 -15t-24.5 -5t-25 3.5t-12.5 11.5q-14 92 -20.5 223.5t1.5 301.5zM98 699q4 5 12 3t14.5 -8t9.5 -13t-2 -12l-73 -63q-5 -3 -10.5 -2t-9.5 4.5t-5 9t3 10.5z" />
    <glyph glyph-name="Lcommaaccent" unicode="&#x13b;" horiz-adv-x="403" 
d="M29 538q-1 19 19 27t45 6.5t45.5 -10.5t20.5 -24q1 -42 -1.5 -91t-5.5 -99t-6 -97t-2 -86t7.5 -66t20.5 -36q7 -5 29 -1t49 10.5t53.5 13t42.5 8.5q15 2 25.5 -8t14.5 -23t0.5 -25t-15.5 -14q-15 -2 -40.5 -6t-55 -7t-61 -5.5t-58.5 -1.5t-47 5.5t-27 14.5
q-14 18 -22.5 60t-14.5 95t-9 111t-4 109t-1.5 89t-1.5 51zM184 -70q0 16 11 27t26 11q16 0 28 -11t12 -27q2 -26 -10 -50.5t-24 -40.5q-3 -5 -8.5 -4.5t-10 4t-6.5 8.5t1 11q7 11 10.5 23t-4.5 14q-13 4 -19 13.5t-6 21.5z" />
    <glyph glyph-name="lcommaaccent" unicode="&#x13c;" horiz-adv-x="188" 
d="M48 544q1 16 15 23t30.5 6.5t30 -7.5t13.5 -18q0 -32 1.5 -85.5t2.5 -122t1 -149t-2 -167.5q0 -10 -11 -15t-24.5 -5t-25 3.5t-12.5 11.5q-14 92 -20.5 223.5t1.5 301.5zM69 -72q0 16 11 27t26 11q16 0 28 -11t12 -27q2 -26 -10 -50.5t-24 -40.5q-3 -5 -8.5 -4.5t-10 4
t-6.5 8.5t1 11q7 11 10.5 23t-4.5 14q-13 4 -19 13.5t-6 21.5z" />
    <glyph glyph-name="Lcaron" unicode="&#x13d;" horiz-adv-x="403" 
d="M29 538q-1 19 19 27t45 6.5t45.5 -10.5t20.5 -24q1 -42 -1.5 -91t-5.5 -99t-6 -97t-2 -86t7.5 -66t20.5 -36q7 -5 29 -1t49 10.5t53.5 13t42.5 8.5q15 2 25.5 -8t14.5 -23t0.5 -25t-15.5 -14q-15 -2 -40.5 -6t-55 -7t-61 -5.5t-58.5 -1.5t-47 5.5t-27 14.5
q-14 18 -22.5 60t-14.5 95t-9 111t-4 109t-1.5 89t-1.5 51zM79 612q-2 3 -8.5 13t-14 21.5t-14 22t-7.5 13.5q0 3 4 7.5t9.5 7.5t11 4t7.5 -2l29 -49l25 52q2 5 8.5 5t13 -3t10.5 -8t2 -9q-2 -3 -7 -13.5t-10 -22.5t-9.5 -22.5t-5.5 -12.5q-2 -3 -8.5 -5t-14 -2.5t-14 0
t-7.5 3.5z" />
    <glyph glyph-name="lcaron" unicode="&#x13e;" horiz-adv-x="255" 
d="M48 544q1 16 15 23t30.5 6.5t30 -7.5t13.5 -18q0 -32 1.5 -85.5t2.5 -122t1 -149t-2 -167.5q0 -10 -11 -15t-24.5 -5t-25 3.5t-12.5 11.5q-14 92 -20.5 223.5t1.5 301.5zM170 403q0 16 11 27t26 11q16 0 28 -11t12 -27q2 -26 -10 -50.5t-24 -40.5q-3 -5 -8.5 -4.5t-10 4
t-6.5 8.5t1 11q7 11 10.5 23t-4.5 14q-13 4 -19 13.5t-6 21.5z" />
    <glyph glyph-name="Ldot" unicode="&#x13f;" horiz-adv-x="403" 
d="M29 538q-1 19 19 27t45 6.5t45.5 -10.5t20.5 -24q1 -42 -1.5 -91t-5.5 -99t-6 -97t-2 -86t7.5 -66t20.5 -36q7 -5 29 -1t49 10.5t53.5 13t42.5 8.5q15 2 25.5 -8t14.5 -23t0.5 -25t-15.5 -14q-15 -2 -40.5 -6t-55 -7t-61 -5.5t-58.5 -1.5t-47 5.5t-27 14.5
q-14 18 -22.5 60t-14.5 95t-9 111t-4 109t-1.5 89t-1.5 51zM182 302q0 12 8.5 20.5t19.5 8.5q12 0 20.5 -8.5t8.5 -20.5t-8.5 -20t-20.5 -8q-11 0 -19.5 8t-8.5 20z" />
    <glyph glyph-name="ldot" unicode="&#x140;" horiz-adv-x="228" 
d="M48 544q1 16 15 23t30.5 6.5t30 -7.5t13.5 -18q0 -32 1.5 -85.5t2.5 -122t1 -149t-2 -167.5q0 -10 -11 -15t-24.5 -5t-25 3.5t-12.5 11.5q-14 92 -20.5 223.5t1.5 301.5zM164 302q0 12 8.5 20.5t19.5 8.5q12 0 20.5 -8.5t8.5 -20.5t-8.5 -20t-20.5 -8q-11 0 -19.5 8
t-8.5 20z" />
    <glyph glyph-name="Lslash" unicode="&#x141;" horiz-adv-x="406" 
d="M32 538q-1 19 19 27t45 6.5t45.5 -10.5t20.5 -24q1 -31 -0.5 -65.5t-3.5 -70.5t-4.5 -72.5t-4.5 -70.5l32 21q5 6 12 2.5t12 -11.5t6 -17.5t-5 -15.5l-59 -39q-1 -51 5 -88t23 -48q7 -5 29 -1t49 10.5t53.5 13t42.5 8.5q15 2 25.5 -8t14.5 -23t0.5 -25t-15.5 -14
q-16 -2 -41 -6t-55 -7t-61 -5.5t-58 -1.5t-47 5.5t-28 14.5q-11 14 -19 44t-13 69l-17 -11q-5 -4 -11 0t-10.5 11t-6.5 15t3 14l36 24q-5 52 -7.5 108.5t-3.5 106t-1.5 86t-1.5 48.5z" />
    <glyph glyph-name="lslash" unicode="&#x142;" horiz-adv-x="227" 
d="M61 544q1 16 15 23t30.5 6.5t30 -7.5t13.5 -18q0 -41 2 -114t3 -168l26 20q5 6 12 2.5t12 -11.5t6.5 -17.5t-4.5 -14.5l-52 -38q0 -45 -0.5 -90t-1.5 -93q0 -10 -11 -15t-24.5 -5t-25 3.5t-12.5 11.5q-9 53 -15 122l-22 -16q-5 -4 -11 0t-10.5 11t-6.5 15t3 14l43 32
q-5 74 -5 160.5t5 186.5z" />
    <glyph glyph-name="Nacute" unicode="&#x143;" horiz-adv-x="505" 
d="M42 543q2 15 19 23t38 10.5t39.5 -1t23.5 -11.5l12.5 -25l26 -52t34.5 -69.5t38 -78.5q45 -93 101 -209q2 16 2 49t-1.5 74.5t-3 87.5t-2.5 88t-1.5 76.5t1.5 52.5q1 10 13 15t26.5 5t27 -4.5t12.5 -11.5q0 -20 2.5 -64t5 -98.5t5 -113.5t4.5 -110t2.5 -87t-1.5 -44
q-2 -11 -15 -20t-29.5 -13.5t-33.5 -3t-26 12.5q-5 6 -17 28t-29 54t-36.5 71l-39.5 79q-47 93 -102 209q1 -122 2 -220q0 -42 0.5 -82t1 -72.5t1 -54t0.5 -24.5q0 -7 -16 -12.5t-35.5 -7t-36.5 1.5t-18 14q-1 7 -1 47v97t0.5 122t1.5 122.5t2 99t2 50.5zM264 695q4 5 12 3
t14.5 -8t9.5 -13t-2 -12l-73 -63q-5 -3 -10.5 -2t-9.5 4.5t-5 9t3 10.5z" />
    <glyph glyph-name="nacute" unicode="&#x144;" horiz-adv-x="403" 
d="M36 339q1 12 12.5 18.5t26 7.5t26 -2.5t12.5 -10.5q1 -8 2 -14t2 -11q1 -6 2 -11q11 10 26 19q12 8 29 14t37 6q40 0 68 -17.5t46 -45.5t28.5 -64t15 -73.5t5.5 -72.5t0 -62q0 -11 -10.5 -16.5t-23.5 -6t-24 4t-12 13.5q-3 41 -6 91t-11 93.5t-24 73.5t-47 31
q-17 0 -31.5 -7.5t-25 -18.5t-16.5 -23.5t-5 -21.5q1 -14 2 -45.5t2.5 -65.5t3 -62.5t2.5 -34.5q1 -12 -15 -19.5t-36.5 -9t-37.5 3.5t-17 17q-1 8 -1.5 32.5t-1 57.5t-1.5 70t-1.5 70.5t-0.5 58v33.5zM213 481q4 5 12 3t14.5 -8t9.5 -13t-2 -12l-73 -63q-5 -3 -10.5 -2
t-9.5 4.5t-5 9t3 10.5z" />
    <glyph glyph-name="Ncommaaccent" unicode="&#x145;" horiz-adv-x="505" 
d="M42 543q2 15 19 23t38 10.5t39.5 -1t23.5 -11.5l12.5 -25l26 -52t34.5 -69.5t38 -78.5q45 -93 101 -209q2 16 2 49t-1.5 74.5t-3 87.5t-2.5 88t-1.5 76.5t1.5 52.5q1 10 13 15t26.5 5t27 -4.5t12.5 -11.5q0 -20 2.5 -64t5 -98.5t5 -113.5t4.5 -110t2.5 -87t-1.5 -44
q-2 -11 -15 -20t-29.5 -13.5t-33.5 -3t-26 12.5q-5 6 -17 28t-29 54t-36.5 71l-39.5 79q-47 93 -102 209q1 -122 2 -220q0 -42 0.5 -82t1 -72.5t1 -54t0.5 -24.5q0 -7 -16 -12.5t-35.5 -7t-36.5 1.5t-18 14q-1 7 -1 47v97t0.5 122t1.5 122.5t2 99t2 50.5zM212 -62
q0 16 11 27t26 11q16 0 28 -11t12 -27q2 -26 -10 -50.5t-24 -40.5q-3 -5 -8.5 -4.5t-10 4t-6.5 8.5t1 11q7 11 10.5 23t-4.5 14q-13 4 -19 13.5t-6 21.5z" />
    <glyph glyph-name="ncommaaccent" unicode="&#x146;" horiz-adv-x="403" 
d="M36 339q1 12 12.5 18.5t26 7.5t26 -2.5t12.5 -10.5q1 -8 2 -14t2 -11q1 -6 2 -11q11 10 26 19q12 8 29 14t37 6q40 0 68 -17.5t46 -45.5t28.5 -64t15 -73.5t5.5 -72.5t0 -62q0 -11 -10.5 -16.5t-23.5 -6t-24 4t-12 13.5q-3 41 -6 91t-11 93.5t-24 73.5t-47 31
q-17 0 -31.5 -7.5t-25 -18.5t-16.5 -23.5t-5 -21.5q1 -14 2 -45.5t2.5 -65.5t3 -62.5t2.5 -34.5q1 -12 -15 -19.5t-36.5 -9t-37.5 3.5t-17 17q-1 8 -1.5 32.5t-1 57.5t-1.5 70t-1.5 70.5t-0.5 58v33.5zM183 -72q0 16 11 27t26 11q16 0 28 -11t12 -27q2 -26 -10 -50.5
t-24 -40.5q-3 -5 -8.5 -4.5t-10 4t-6.5 8.5t1 11q7 11 10.5 23t-4.5 14q-13 4 -19 13.5t-6 21.5z" />
    <glyph glyph-name="Ncaron" unicode="&#x147;" horiz-adv-x="505" 
d="M42 543q2 15 19 23t38 10.5t39.5 -1t23.5 -11.5l12.5 -25l26 -52t34.5 -69.5t38 -78.5q45 -93 101 -209q2 16 2 49t-1.5 74.5t-3 87.5t-2.5 88t-1.5 76.5t1.5 52.5q1 10 13 15t26.5 5t27 -4.5t12.5 -11.5q0 -20 2.5 -64t5 -98.5t5 -113.5t4.5 -110t2.5 -87t-1.5 -44
q-2 -11 -15 -20t-29.5 -13.5t-33.5 -3t-26 12.5q-5 6 -17 28t-29 54t-36.5 71l-39.5 79q-47 93 -102 209q1 -122 2 -220q0 -42 0.5 -82t1 -72.5t1 -54t0.5 -24.5q0 -7 -16 -12.5t-35.5 -7t-36.5 1.5t-18 14q-1 7 -1 47v97t0.5 122t1.5 122.5t2 99t2 50.5zM234 599
q-2 3 -8.5 13t-14 21.5t-14 22t-7.5 13.5q0 3 4 7.5t9.5 7.5t11 4t7.5 -2l29 -49l25 52q2 5 8.5 5t13 -3t10.5 -8t2 -9q-2 -3 -7 -13.5t-10 -22.5t-9.5 -22.5t-5.5 -12.5q-2 -3 -8.5 -5t-14 -2.5t-14 0t-7.5 3.5z" />
    <glyph glyph-name="ncaron" unicode="&#x148;" horiz-adv-x="403" 
d="M36 339q1 12 12.5 18.5t26 7.5t26 -2.5t12.5 -10.5q1 -8 2 -14t2 -11q1 -6 2 -11q11 10 26 19q12 8 29 14t37 6q40 0 68 -17.5t46 -45.5t28.5 -64t15 -73.5t5.5 -72.5t0 -62q0 -11 -10.5 -16.5t-23.5 -6t-24 4t-12 13.5q-3 41 -6 91t-11 93.5t-24 73.5t-47 31
q-17 0 -31.5 -7.5t-25 -18.5t-16.5 -23.5t-5 -21.5q1 -14 2 -45.5t2.5 -65.5t3 -62.5t2.5 -34.5q1 -12 -15 -19.5t-36.5 -9t-37.5 3.5t-17 17q-1 8 -1.5 32.5t-1 57.5t-1.5 70t-1.5 70.5t-0.5 58v33.5zM184 385q-2 3 -8.5 13t-14 21.5t-14 22t-7.5 13.5q0 3 4 7.5t9.5 7.5
t11 4t7.5 -2l29 -49l25 52q2 5 8.5 5t13 -3t10.5 -8t2 -9q-2 -3 -7 -13.5t-10 -22.5t-9.5 -22.5t-5.5 -12.5q-2 -3 -8.5 -5t-14 -2.5t-14 0t-7.5 3.5z" />
    <glyph glyph-name="napostrophe" unicode="&#x149;" horiz-adv-x="475" 
d="M107 339q1 12 12.5 18.5t26 7.5t26 -2.5t12.5 -10.5q1 -8 2 -14t2 -11q1 -6 2 -11q11 10 26 19q12 8 29 14t37 6q40 0 68 -17.5t46 -45.5t28.5 -64t15 -73.5t5.5 -72.5t0 -62q0 -11 -10.5 -16.5t-23.5 -6t-24 4t-12 13.5q-3 41 -6 91t-11 93.5t-24 73.5t-47 31
q-17 0 -31.5 -7.5t-25 -18.5t-16.5 -23.5t-5 -21.5q1 -14 2 -45.5t2.5 -65.5t3 -62.5t2.5 -34.5q1 -12 -15 -19.5t-36.5 -9t-37.5 3.5t-17 17q-1 8 -1.5 32.5t-1 57.5t-1.5 70t-1.5 70.5t-0.5 58v33.5zM7 394q0 16 11 27t26 11q16 0 28 -11t12 -27q2 -26 -10 -50.5
t-24 -40.5q-3 -5 -8.5 -4.5t-10 4t-6.5 8.5t1 11q7 11 10.5 23t-4.5 14q-13 4 -19 13.5t-6 21.5z" />
    <glyph glyph-name="Eng" unicode="&#x14a;" horiz-adv-x="505" 
d="M42 543q2 15 19 23t38 10.5t39.5 -1t23.5 -11.5l12.5 -25l26 -52t34.5 -69.5t38 -78.5q45 -93 101 -209q2 16 2 49t-1.5 74.5t-3 87.5t-2.5 88t-1.5 76.5t1.5 52.5q1 10 13 15t26.5 5t27 -4.5t12.5 -11.5q0 -20 2 -61t4 -92.5t4.5 -107.5t4.5 -106.5t3 -88.5t1 -54
q-1 -39 -4.5 -73t-14 -61t-29 -46t-48.5 -28q-43 -14 -83.5 -6.5t-72.5 25t-54 38.5t-28 35t0.5 23.5t18 14.5t23.5 4.5t17 -7.5q7 -10 24 -27t39 -31.5t45 -20.5t42 6q15 11 18.5 44t-3.5 86q-8 11 -21 36t-29.5 57.5t-35.5 70.5l-38 76q-44 89 -95 194q1 -122 2 -220
q0 -42 0.5 -82t1 -72.5t1 -54t0.5 -24.5q0 -7 -16 -12.5t-35.5 -7t-36.5 1.5t-18 14q-1 7 -1 47v97t0.5 122t1.5 122.5t2 99t2 50.5z" />
    <glyph glyph-name="eng" unicode="&#x14b;" horiz-adv-x="399" 
d="M36 339q1 12 12.5 18.5t26 7.5t26 -2.5t12.5 -10.5q1 -8 2 -14t2 -11q1 -6 2 -11q11 10 26 19q12 8 29 14t37 6q47 0 77.5 -22.5t47.5 -59.5q33 -66 39 -169q2 -33 2.5 -73.5t-8 -78.5t-29.5 -68t-61 -41q-21 -5 -42 -4t-40.5 8.5t-35.5 20.5t-26 33q-4 8 1.5 17.5t14 16
t18 7.5t14.5 -6q17 -26 37 -34.5t38 -4.5q25 6 36 29.5t14 54t0 64t-6 60.5q-4 37 -11 72.5t-17.5 63.5t-25 45t-32.5 18q-17 0 -31.5 -7.5t-25 -18.5t-16.5 -23.5t-5 -21.5q1 -14 2 -45.5t2.5 -65.5t3 -62.5t2.5 -34.5q1 -12 -15 -19.5t-36.5 -9t-37.5 3.5t-17 17
q-1 8 -1.5 32.5t-1 57.5t-1.5 70t-1.5 70.5t-0.5 58v33.5z" />
    <glyph glyph-name="Omacron" unicode="&#x14c;" horiz-adv-x="499" 
d="M218 566q46 8 86.5 -11t73.5 -56t56 -87.5t34 -105t8 -108.5t-23 -98t-59 -73.5t-99 -35.5q-59 -6 -107.5 6.5t-84 43.5t-56.5 78.5t-24 112.5q-4 73 8.5 131.5t38.5 100.5t63.5 67.5t84.5 34.5zM239 496q-31 -10 -52 -48t-31.5 -88.5t-8.5 -106t18.5 -101t48 -73.5
t80.5 -23q55 6 82.5 44t33.5 91t-7 111.5t-37.5 105.5t-58 73.5t-68.5 14.5zM300 654q6 0 9 -6t3.5 -13.5t-1.5 -14.5t-8 -7l-106 -3q-6 0 -8.5 5.5t-3 12.5t2 13t7.5 6z" />
    <glyph glyph-name="omacron" unicode="&#x14d;" 
d="M87 309q33 22 71.5 20.5t73 -20t60.5 -50t36 -68.5q9 -37 -4 -71.5t-40.5 -58.5t-66.5 -35t-82 -1q-32 9 -55.5 28.5t-37.5 45.5t-18 55.5t1 58t20.5 54t41.5 42.5zM143 264q-17 -8 -26 -30.5t-7.5 -49.5t14.5 -53t41 -39q22 -10 42 -6.5t35 15t23.5 29.5t6.5 36
q-2 23 -15 44.5t-32 36.5t-41 20.5t-41 -3.5zM191 425q6 0 9 -6t3.5 -13.5t-1.5 -14.5t-8 -7l-106 -3q-6 0 -8.5 5.5t-3 12.5t2 13t7.5 6z" />
    <glyph glyph-name="Obreve" unicode="&#x14e;" horiz-adv-x="499" 
d="M218 566q46 8 86.5 -11t73.5 -56t56 -87.5t34 -105t8 -108.5t-23 -98t-59 -73.5t-99 -35.5q-59 -6 -107.5 6.5t-84 43.5t-56.5 78.5t-24 112.5q-4 73 8.5 131.5t38.5 100.5t63.5 67.5t84.5 34.5zM239 496q-31 -10 -52 -48t-31.5 -88.5t-8.5 -106t18.5 -101t48 -73.5
t80.5 -23q55 6 82.5 44t33.5 91t-7 111.5t-37.5 105.5t-58 73.5t-68.5 14.5zM189 659q0 4 6.5 6.5t14 3.5t14 -0.5t6.5 -5.5q2 -14 3.5 -23t11.5 -10q9 -1 16 7t7 26q0 4 6.5 6.5t14 2.5t14 -2t6.5 -7q-1 -12 -4 -23.5t-10 -20.5t-19 -14.5t-31 -5.5q-17 0 -28 5.5t-17 14
t-8 19t-3 21.5z" />
    <glyph glyph-name="obreve" unicode="&#x14f;" 
d="M87 309q33 22 71.5 20.5t73 -20t60.5 -50t36 -68.5q9 -37 -4 -71.5t-40.5 -58.5t-66.5 -35t-82 -1q-32 9 -55.5 28.5t-37.5 45.5t-18 55.5t1 58t20.5 54t41.5 42.5zM143 264q-17 -8 -26 -30.5t-7.5 -49.5t14.5 -53t41 -39q22 -10 42 -6.5t35 15t23.5 29.5t6.5 36
q-2 23 -15 44.5t-32 36.5t-41 20.5t-41 -3.5zM88 423q0 4 6.5 6.5t14 3.5t14 -0.5t6.5 -5.5q2 -14 3.5 -23t11.5 -10q9 -1 16 7t7 26q0 4 6.5 6.5t14 2.5t14 -2t6.5 -7q-1 -12 -4 -23.5t-10 -20.5t-19 -14.5t-31 -5.5q-17 0 -28 5.5t-17 14t-8 19t-3 21.5z" />
    <glyph glyph-name="Ohungarumlaut" unicode="&#x150;" horiz-adv-x="499" 
d="M218 566q46 8 86.5 -11t73.5 -56t56 -87.5t34 -105t8 -108.5t-23 -98t-59 -73.5t-99 -35.5q-59 -6 -107.5 6.5t-84 43.5t-56.5 78.5t-24 112.5q-4 73 8.5 131.5t38.5 100.5t63.5 67.5t84.5 34.5zM239 496q-31 -10 -52 -48t-31.5 -88.5t-8.5 -106t18.5 -101t48 -73.5
t80.5 -23q55 6 82.5 44t33.5 91t-7 111.5t-37.5 105.5t-58 73.5t-68.5 14.5zM269 691q2 6 10.5 8t17.5 0.5t15 -6t4 -10.5l-28 -87q-2 -4 -8 -6t-12.5 -1.5t-11.5 3t-4 8.5zM204 691q1 6 9 8.5t16 2t14 -4.5t4 -10l-30 -99q-2 -4 -8.5 -6t-13 -2t-11.5 3t-4 8z" />
    <glyph glyph-name="ohungarumlaut" unicode="&#x151;" 
d="M87 309q33 22 71.5 20.5t73 -20t60.5 -50t36 -68.5q9 -37 -4 -71.5t-40.5 -58.5t-66.5 -35t-82 -1q-32 9 -55.5 28.5t-37.5 45.5t-18 55.5t1 58t20.5 54t41.5 42.5zM143 264q-17 -8 -26 -30.5t-7.5 -49.5t14.5 -53t41 -39q22 -10 42 -6.5t35 15t23.5 29.5t6.5 36
q-2 23 -15 44.5t-32 36.5t-41 20.5t-41 -3.5zM175 470q2 6 10.5 8t17.5 0.5t15 -6t4 -10.5l-28 -87q-2 -4 -8 -6t-12.5 -1.5t-11.5 3t-4 8.5zM110 470q1 6 9 8.5t16 2t14 -4.5t4 -10l-30 -99q-2 -4 -8.5 -6t-13 -2t-11.5 3t-4 8z" />
    <glyph glyph-name="OE" unicode="&#x152;" horiz-adv-x="713" 
d="M385 562q1 -5 1.5 -8.5t0.5 -7.5v-8q63 3 116 6q22 1 44 2.5t40.5 2.5t31 1.5t16.5 0.5q7 0 13.5 -7.5t9 -17.5t-1.5 -19t-16 -10q-6 -1 -20 -2.5t-33 -3.5t-40.5 -4t-43.5 -4q-51 -4 -113 -10l12 -177q58 9 106 17l40 6t37 5.5t29 4.5t17 2q9 0 14.5 -9.5t7.5 -21
t-1 -21.5t-10 -11q-4 0 -16.5 -2t-29.5 -4.5t-38 -6t-42 -6.5q-49 -8 -110 -18l11 -141q64 8 118 15q22 3 44.5 6t41 5.5t31.5 4t17 2.5q8 1 13.5 -7t7.5 -18t0 -19.5t-9 -11.5q-52 -15 -106 -26.5t-104.5 -21t-95.5 -16.5t-80 -12q-59 -8 -107.5 4.5t-84 43.5t-56.5 79.5
t-24 113.5q-4 73 8.5 131.5t38.5 100.5t63.5 67.5t84.5 34.5q36 6 70 -5q4 12 19 16.5t31.5 3.5t30.5 -6.5t16 -12.5zM291 492q-26 13 -52 4q-31 -10 -52 -48t-31.5 -88.5t-8.5 -106t18.5 -101t48 -73.5t80.5 -23q9 1 17.5 3t16.5 4q-4 37 -9 93.5t-10.5 117t-10 119
t-7.5 99.5z" />
    <glyph glyph-name="oe" unicode="&#x153;" horiz-adv-x="579" 
d="M312 141q8 -37 22.5 -54.5t33 -20.5t38.5 4.5t39 20t36 27t29 24.5q8 7 18.5 2.5t18.5 -14t10 -22t-6 -20.5q-9 -8 -28.5 -21.5t-45 -26t-55.5 -21.5t-59 -9q-57 0 -94 39q-28 -18 -62 -25.5t-72 1.5q-32 9 -55.5 28.5t-37.5 45.5t-18 55.5t1 58t20.5 54t41.5 42.5
q41 26 87 19t84 -36q13 19 32.5 32.5t45.5 19.5q35 8 64.5 -0.5t51 -23.5t35 -31.5t16.5 -24.5q7 -17 3.5 -31.5t-23.5 -22.5q-5 -2 -32 -12.5t-58 -22.5t-56 -22.5t-25 -11.5zM227 138q-5 23 -4 49.5t9 52.5q-20 18 -44 26t-45 -2q-17 -8 -26 -30.5t-7.5 -49.5t14.5 -53
t41 -39q20 -10 39 -7.5t34 13.5q-8 20 -11 40zM441 251q1 0 -3 7t-14 14.5t-26.5 12.5t-39.5 1q-17 -3 -26.5 -16t-14 -26.5t-5.5 -25l-1 -11.5l20.5 6.5t44.5 15t44 15.5t21 7z" />
    <glyph glyph-name="Racute" unicode="&#x154;" horiz-adv-x="465" 
d="M36 561q-1 21 17 28.5t39.5 6t39.5 -9.5t17 -18l1 -36q80 -3 144 -19q27 -7 53 -17t47 -24.5t34.5 -34t14.5 -44.5q1 -30 -14.5 -54.5t-34.5 -41.5q-22 -20 -51 -35q16 -42 32 -81q13 -34 27 -69.5t23 -60.5q2 -6 -6.5 -13t-19.5 -12t-22.5 -5t-15.5 8q-10 20 -26 52.5
t-32 63.5l-38 76q-27 -11 -56.5 -19.5t-51.5 -12.5q-1 -41 -1 -78v-120q0 -8 -17 -14t-37.5 -7t-37.5 4.5t-17 19.5q0 53 -0.5 111.5t-1.5 117t-2.5 113.5t-2.5 100t-2 78t-2 47zM153 468v-9.5t0.5 -25t1 -35t0.5 -40.5l2 -110q63 14 112 34q21 9 41 19.5t36 23.5t25 28
t9 32q0 22 -17 37t-42 24.5t-54.5 14t-54.5 6t-42 1.5h-17zM271 673q4 5 12 3t14.5 -8t9.5 -13t-2 -12l-73 -63q-5 -3 -10.5 -2t-9.5 4.5t-5 9t3 10.5z" />
    <glyph glyph-name="racute" unicode="&#x155;" horiz-adv-x="342" 
d="M37 363q2 12 15.5 17t28.5 6t28 -3t13 -10q1 -7 1.5 -18.5t1 -22.5t1 -19t0.5 -9q1 1 6 8t15 14.5t25 14t36 7.5t39.5 -9.5t33.5 -27.5t25 -37.5t14 -40.5q1 -6 -5 -12.5t-15 -9.5t-18 -1.5t-14 9.5t-10 22.5t-12 28t-17.5 23t-26.5 7.5t-29.5 -15t-22 -45t-10.5 -86.5
t6 -138.5q1 -12 -13 -19.5t-32 -9t-34 3.5t-17 17q-2 8 -3.5 35.5t-3 64.5t-3 79t-2.5 78.5t-1.5 64t0.5 34.5zM197 496q4 5 12 3t14.5 -8t9.5 -13t-2 -12l-73 -63q-5 -3 -10.5 -2t-9.5 4.5t-5 9t3 10.5z" />
    <glyph glyph-name="Rcommaaccent" unicode="&#x156;" horiz-adv-x="465" 
d="M36 561q-1 21 17 28.5t39.5 6t39.5 -9.5t17 -18l1 -36q80 -3 144 -19q27 -7 53 -17t47 -24.5t34.5 -34t14.5 -44.5q1 -30 -14.5 -54.5t-34.5 -41.5q-22 -20 -51 -35q16 -42 32 -81q13 -34 27 -69.5t23 -60.5q2 -6 -6.5 -13t-19.5 -12t-22.5 -5t-15.5 8q-10 20 -26 52.5
t-32 63.5l-38 76q-27 -11 -56.5 -19.5t-51.5 -12.5q-1 -41 -1 -78v-120q0 -8 -17 -14t-37.5 -7t-37.5 4.5t-17 19.5q0 53 -0.5 111.5t-1.5 117t-2.5 113.5t-2.5 100t-2 78t-2 47zM153 468v-9.5t0.5 -25t1 -35t0.5 -40.5l2 -110q63 14 112 34q21 9 41 19.5t36 23.5t25 28
t9 32q0 22 -17 37t-42 24.5t-54.5 14t-54.5 6t-42 1.5h-17zM209 -38q0 16 11 27t26 11q16 0 28 -11t12 -27q2 -26 -10 -50.5t-24 -40.5q-3 -5 -8.5 -4.5t-10 4t-6.5 8.5t1 11q7 11 10.5 23t-4.5 14q-13 4 -19 13.5t-6 21.5z" />
    <glyph glyph-name="rcommaaccent" unicode="&#x157;" horiz-adv-x="342" 
d="M37 363q2 12 15.5 17t28.5 6t28 -3t13 -10q1 -7 1.5 -18.5t1 -22.5t1 -19t0.5 -9q1 1 6 8t15 14.5t25 14t36 7.5t39.5 -9.5t33.5 -27.5t25 -37.5t14 -40.5q1 -6 -5 -12.5t-15 -9.5t-18 -1.5t-14 9.5t-10 22.5t-12 28t-17.5 23t-26.5 7.5t-29.5 -15t-22 -45t-10.5 -86.5
t6 -138.5q1 -12 -13 -19.5t-32 -9t-34 3.5t-17 17q-2 8 -3.5 35.5t-3 64.5t-3 79t-2.5 78.5t-1.5 64t0.5 34.5zM57 -97q0 16 11 27t26 11q16 0 28 -11t12 -27q2 -26 -10 -50.5t-24 -40.5q-3 -5 -8.5 -4.5t-10 4t-6.5 8.5t1 11q7 11 10.5 23t-4.5 14q-13 4 -19 13.5t-6 21.5z
" />
    <glyph glyph-name="Rcaron" unicode="&#x158;" horiz-adv-x="465" 
d="M36 561q-1 21 17 28.5t39.5 6t39.5 -9.5t17 -18l1 -36q80 -3 144 -19q27 -7 53 -17t47 -24.5t34.5 -34t14.5 -44.5q1 -30 -14.5 -54.5t-34.5 -41.5q-22 -20 -51 -35q16 -42 32 -81q13 -34 27 -69.5t23 -60.5q2 -6 -6.5 -13t-19.5 -12t-22.5 -5t-15.5 8q-10 20 -26 52.5
t-32 63.5l-38 76q-27 -11 -56.5 -19.5t-51.5 -12.5q-1 -41 -1 -78v-120q0 -8 -17 -14t-37.5 -7t-37.5 4.5t-17 19.5q0 53 -0.5 111.5t-1.5 117t-2.5 113.5t-2.5 100t-2 78t-2 47zM153 468v-9.5t0.5 -25t1 -35t0.5 -40.5l2 -110q63 14 112 34q21 9 41 19.5t36 23.5t25 28
t9 32q0 22 -17 37t-42 24.5t-54.5 14t-54.5 6t-42 1.5h-17zM223 581q-2 3 -8.5 13t-14 21.5t-14 22t-7.5 13.5q0 3 4 7.5t9.5 7.5t11 4t7.5 -2l29 -49l25 52q2 5 8.5 5t13 -3t10.5 -8t2 -9q-2 -3 -7 -13.5t-10 -22.5t-9.5 -22.5t-5.5 -12.5q-2 -3 -8.5 -5t-14 -2.5t-14 0
t-7.5 3.5z" />
    <glyph glyph-name="rcaron" unicode="&#x159;" horiz-adv-x="342" 
d="M37 363q2 12 15.5 17t28.5 6t28 -3t13 -10q1 -7 1.5 -18.5t1 -22.5t1 -19t0.5 -9q1 1 6 8t15 14.5t25 14t36 7.5t39.5 -9.5t33.5 -27.5t25 -37.5t14 -40.5q1 -6 -5 -12.5t-15 -9.5t-18 -1.5t-14 9.5t-10 22.5t-12 28t-17.5 23t-26.5 7.5t-29.5 -15t-22 -45t-10.5 -86.5
t6 -138.5q1 -12 -13 -19.5t-32 -9t-34 3.5t-17 17q-2 8 -3.5 35.5t-3 64.5t-3 79t-2.5 78.5t-1.5 64t0.5 34.5zM168 400q-2 3 -8.5 13t-14 21.5t-14 22t-7.5 13.5q0 3 4 7.5t9.5 7.5t11 4t7.5 -2l29 -49l25 52q2 5 8.5 5t13 -3t10.5 -8t2 -9q-2 -3 -7 -13.5t-10 -22.5
t-9.5 -22.5t-5.5 -12.5q-2 -3 -8.5 -5t-14 -2.5t-14 0t-7.5 3.5z" />
    <glyph glyph-name="Sacute" unicode="&#x15a;" horiz-adv-x="476" 
d="M361 554q13 -5 16 -18t-0.5 -25.5t-12 -21t-18.5 -5.5q-44 12 -83 14.5t-67.5 -6t-43.5 -28.5t-11 -53q2 -24 27 -42.5t61 -35.5t76.5 -34.5t74.5 -40.5t55.5 -53.5t18.5 -72.5t-28.5 -69.5t-64 -42t-85.5 -18t-92 2t-83 19t-59 33.5q-10 9 -6.5 23.5t13 27t21.5 19.5
t21 1q36 -24 81 -38t86.5 -16t73 8t40.5 33q10 25 -12 41.5t-60 31t-84.5 30.5t-87 41t-66.5 62.5t-23 93.5q2 37 20 65t45.5 46.5t62 29t69.5 13.5t67.5 -1t57.5 -14zM233 691q4 5 12 3t14.5 -8t9.5 -13t-2 -12l-73 -63q-5 -3 -10.5 -2t-9.5 4.5t-5 9t3 10.5z" />
    <glyph glyph-name="sacute" unicode="&#x15b;" 
d="M240 315q-45 23 -81 26.5t-48 -23.5q-8 -17 -0.5 -32t21 -26.5t28 -19.5t20.5 -11q24 -11 51 -23t50.5 -29t38 -40.5t13.5 -57.5q-2 -37 -20.5 -62t-46.5 -38.5t-62 -16t-67.5 4t-63 22.5t-47.5 39q-6 8 -1.5 19t14 19.5t20.5 11t19 -6.5q19 -25 47.5 -37t54.5 -12t45 11
t21 32q1 19 -12.5 33t-36 26t-49.5 23.5t-52 26.5t-44 34t-25 47q-5 23 1.5 48.5t20.5 46.5q19 30 48.5 42t61.5 11t63 -13t55 -30q4 -4 3 -13.5t-6 -18.5t-14 -14t-20 1zM167 525q4 5 12 3t14.5 -8t9.5 -13t-2 -12l-73 -63q-5 -3 -10.5 -2t-9.5 4.5t-5 9t3 10.5z" />
    <glyph glyph-name="Scircumflex" unicode="&#x15c;" horiz-adv-x="476" 
d="M361 554q13 -5 16 -18t-0.5 -25.5t-12 -21t-18.5 -5.5q-44 12 -83 14.5t-67.5 -6t-43.5 -28.5t-11 -53q2 -24 27 -42.5t61 -35.5t76.5 -34.5t74.5 -40.5t55.5 -53.5t18.5 -72.5t-28.5 -69.5t-64 -42t-85.5 -18t-92 2t-83 19t-59 33.5q-10 9 -6.5 23.5t13 27t21.5 19.5
t21 1q36 -24 81 -38t86.5 -16t73 8t40.5 33q10 25 -12 41.5t-60 31t-84.5 30.5t-87 41t-66.5 62.5t-23 93.5q2 37 20 65t45.5 46.5t62 29t69.5 13.5t67.5 -1t57.5 -14zM234 691q1 -3 8 -13t14.5 -21.5t13.5 -22t7 -13.5t-3 -7.5t-9.5 -7.5t-11 -4t-7.5 2l-29 49l-25 -52
q-2 -5 -8.5 -5t-13 3t-10.5 7.5t-2 9.5q2 3 6.5 13.5t9.5 22.5t9.5 22.5t5.5 12.5q2 3 9 4.5t14.5 2.5t14 0.5t7.5 -3.5z" />
    <glyph glyph-name="scircumflex" unicode="&#x15d;" 
d="M240 315q-45 23 -81 26.5t-48 -23.5q-8 -17 -0.5 -32t21 -26.5t28 -19.5t20.5 -11q24 -11 51 -23t50.5 -29t38 -40.5t13.5 -57.5q-2 -37 -20.5 -62t-46.5 -38.5t-62 -16t-67.5 4t-63 22.5t-47.5 39q-6 8 -1.5 19t14 19.5t20.5 11t19 -6.5q19 -25 47.5 -37t54.5 -12t45 11
t21 32q1 19 -12.5 33t-36 26t-49.5 23.5t-52 26.5t-44 34t-25 47q-5 23 1.5 48.5t20.5 46.5q19 30 48.5 42t61.5 11t63 -13t55 -30q4 -4 3 -13.5t-6 -18.5t-14 -14t-20 1zM166 525q1 -3 8 -13t14.5 -21.5t13.5 -22t7 -13.5t-3 -7.5t-9.5 -7.5t-11 -4t-7.5 2l-29 49l-25 -52
q-2 -5 -8.5 -5t-13 3t-10.5 7.5t-2 9.5q2 3 6.5 13.5t9.5 22.5t9.5 22.5t5.5 12.5q2 3 9 4.5t14.5 2.5t14 0.5t7.5 -3.5z" />
    <glyph glyph-name="Scedilla" unicode="&#x15e;" horiz-adv-x="476" 
d="M361 554q13 -5 16 -18t-0.5 -25.5t-12 -21t-18.5 -5.5q-44 12 -83 14.5t-67.5 -6t-43.5 -28.5t-11 -53q2 -24 27 -42.5t61 -35.5t76.5 -34.5t74.5 -40.5t55.5 -53.5t18.5 -72.5t-28.5 -69.5t-64 -42t-85.5 -18t-92 2t-83 19t-59 33.5q-10 9 -6.5 23.5t13 27t21.5 19.5
t21 1q36 -24 81 -38t86.5 -16t73 8t40.5 33q10 25 -12 41.5t-60 31t-84.5 30.5t-87 41t-66.5 62.5t-23 93.5q2 37 20 65t45.5 46.5t62 29t69.5 13.5t67.5 -1t57.5 -14zM222 40q1 4 10.5 6t20 1t18.5 -5t7 -11q-1 -15 -3 -27q-2 -11 -3 -20.5t0 -12.5t16.5 -2.5t34 -3
t34.5 -16t17 -40.5q1 -29 -19.5 -43t-46.5 -19.5t-49.5 -6t-29.5 -0.5q-6 -1 -7.5 5t-0.5 13.5t5 14t10 6.5t22 1.5t33 5.5t29.5 10t11.5 15t-15.5 13.5t-32 7.5t-33.5 5t-20 7t-5.5 20.5t-2.5 32t-1 30v13.5z" />
    <glyph glyph-name="scedilla" unicode="&#x15f;" 
d="M240 315q-45 23 -81 26.5t-48 -23.5q-8 -17 -0.5 -32t21 -26.5t28 -19.5t20.5 -11q24 -11 51 -23t50.5 -29t38 -40.5t13.5 -57.5q-2 -37 -20.5 -62t-46.5 -38.5t-62 -16t-67.5 4t-63 22.5t-47.5 39q-6 8 -1.5 19t14 19.5t20.5 11t19 -6.5q19 -25 47.5 -37t54.5 -12t45 11
t21 32q1 19 -12.5 33t-36 26t-49.5 23.5t-52 26.5t-44 34t-25 47q-5 23 1.5 48.5t20.5 46.5q19 30 48.5 42t61.5 11t63 -13t55 -30q4 -4 3 -13.5t-6 -18.5t-14 -14t-20 1zM154 -12q1 4 10.5 6t20 1t18.5 -5t7 -11q-1 -15 -3 -27q-2 -11 -3 -20.5t0 -12.5t16.5 -2.5t34 -3
t34.5 -16t17 -40.5q1 -29 -19.5 -43t-46.5 -19.5t-49.5 -6t-29.5 -0.5q-6 -1 -7.5 5t-0.5 13.5t5 14t10 6.5t22 1.5t33 5.5t29.5 10t11.5 15t-15.5 13.5t-32 7.5t-33.5 5t-20 7t-5.5 20.5t-2.5 32t-1 30v13.5z" />
    <glyph glyph-name="Scaron" unicode="&#x160;" horiz-adv-x="476" 
d="M361 554q13 -5 16 -18t-0.5 -25.5t-12 -21t-18.5 -5.5q-44 12 -83 14.5t-67.5 -6t-43.5 -28.5t-11 -53q2 -24 27 -42.5t61 -35.5t76.5 -34.5t74.5 -40.5t55.5 -53.5t18.5 -72.5t-28.5 -69.5t-64 -42t-85.5 -18t-92 2t-83 19t-59 33.5q-10 9 -6.5 23.5t13 27t21.5 19.5
t21 1q36 -24 81 -38t86.5 -16t73 8t40.5 33q10 25 -12 41.5t-60 31t-84.5 30.5t-87 41t-66.5 62.5t-23 93.5q2 37 20 65t45.5 46.5t62 29t69.5 13.5t67.5 -1t57.5 -14zM193 608q-2 3 -8.5 13t-14 21.5t-14 22t-7.5 13.5q0 3 4 7.5t9.5 7.5t11 4t7.5 -2l29 -49l25 52
q2 5 8.5 5t13 -3t10.5 -8t2 -9q-2 -3 -7 -13.5t-10 -22.5t-9.5 -22.5t-5.5 -12.5q-2 -3 -8.5 -5t-14 -2.5t-14 0t-7.5 3.5z" />
    <glyph glyph-name="scaron" unicode="&#x161;" 
d="M240 315q-45 23 -81 26.5t-48 -23.5q-8 -17 -0.5 -32t21 -26.5t28 -19.5t20.5 -11q24 -11 51 -23t50.5 -29t38 -40.5t13.5 -57.5q-2 -37 -20.5 -62t-46.5 -38.5t-62 -16t-67.5 4t-63 22.5t-47.5 39q-6 8 -1.5 19t14 19.5t20.5 11t19 -6.5q19 -25 47.5 -37t54.5 -12t45 11
t21 32q1 19 -12.5 33t-36 26t-49.5 23.5t-52 26.5t-44 34t-25 47q-5 23 1.5 48.5t20.5 46.5q19 30 48.5 42t61.5 11t63 -13t55 -30q4 -4 3 -13.5t-6 -18.5t-14 -14t-20 1zM130 436q-2 3 -8.5 13t-14 21.5t-14 22t-7.5 13.5q0 3 4 7.5t9.5 7.5t11 4t7.5 -2l29 -49l25 52
q2 5 8.5 5t13 -3t10.5 -8t2 -9q-2 -3 -7 -13.5t-10 -22.5t-9.5 -22.5t-5.5 -12.5q-2 -3 -8.5 -5t-14 -2.5t-14 0t-7.5 3.5z" />
    <glyph glyph-name="Tcommaaccent" unicode="&#x162;" horiz-adv-x="446" 
d="M409 562q9 0 15 -9t7 -20t-3.5 -20.5t-15.5 -10.5t-33 -2.5t-43 -3.5q-26 -2 -53 -4q4 -118 8 -214q1 -41 2.5 -81t3 -72.5t2 -55t0.5 -27.5q0 -18 -19 -26.5t-41.5 -10t-41.5 4.5t-19 18v50v66t0.5 75.5t0.5 77.5q1 89 2 188q-36 -2 -66 -4q-26 -2 -50.5 -3t-33.5 -1
t-13 11t-3.5 24.5t4 25t9.5 11.5q4 0 32 1.5t68.5 2.5t87 2.5t87.5 2.5t70.5 2t35.5 2zM205 -77q0 16 11 27t26 11q16 0 28 -11t12 -27q2 -26 -10 -50.5t-24 -40.5q-3 -5 -8.5 -4.5t-10 4t-6.5 8.5t1 11q7 11 10.5 23t-4.5 14q-13 4 -19 13.5t-6 21.5z" />
    <glyph glyph-name="tcommaaccent" unicode="&#x163;" horiz-adv-x="348" 
d="M108 511q0 10 14 15.5t31 5.5t31.5 -5t14.5 -17q0 -8 0.5 -34t0.5 -54v-72q25 2 46 4q18 2 36 3.5t28 2.5q10 0 16 -7.5t7 -17.5t-2 -18.5t-10 -9.5q-8 -2 -28.5 -4t-40.5 -4q-25 -3 -52 -5q0 -73 1 -133v-50.5v-45v-35v-18.5q-1 -12 -13.5 -18.5t-27 -6.5t-26.5 6
t-13 18q0 5 -1 19.5t-1.5 35t-1.5 44.5l-2 48q-2 57 -4 127q-18 -2 -35 -3l-28 -2t-20 0q-6 0 -9.5 7.5t-3.5 16.5t3 17t10 9t20 2.5t27 3.5q16 2 34 5q-1 41 -1 75v95zM126 -76q0 16 11 27t26 11q16 0 28 -11t12 -27q2 -26 -10 -50.5t-24 -40.5q-3 -5 -8.5 -4.5t-10 4
t-6.5 8.5t1 11q7 11 10.5 23t-4.5 14q-13 4 -19 13.5t-6 21.5z" />
    <glyph glyph-name="Tcaron" unicode="&#x164;" horiz-adv-x="446" 
d="M409 562q9 0 15 -9t7 -20t-3.5 -20.5t-15.5 -10.5t-33 -2.5t-43 -3.5q-26 -2 -53 -4q4 -118 8 -214q1 -41 2.5 -81t3 -72.5t2 -55t0.5 -27.5q0 -18 -19 -26.5t-41.5 -10t-41.5 4.5t-19 18v50v66t0.5 75.5t0.5 77.5q1 89 2 188q-36 -2 -66 -4q-26 -2 -50.5 -3t-33.5 -1
t-13 11t-3.5 24.5t4 25t9.5 11.5q4 0 32 1.5t68.5 2.5t87 2.5t87.5 2.5t70.5 2t35.5 2zM209 599q-2 3 -8.5 13t-14 21.5t-14 22t-7.5 13.5q0 3 4 7.5t9.5 7.5t11 4t7.5 -2l29 -49l25 52q2 5 8.5 5t13 -3t10.5 -8t2 -9q-2 -3 -7 -13.5t-10 -22.5t-9.5 -22.5t-5.5 -12.5
q-2 -3 -8.5 -5t-14 -2.5t-14 0t-7.5 3.5z" />
    <glyph glyph-name="tcaron" unicode="&#x165;" horiz-adv-x="348" 
d="M108 511q0 10 14 15.5t31 5.5t31.5 -5t14.5 -17q0 -8 0.5 -34t0.5 -54v-72q25 2 46 4q18 2 36 3.5t28 2.5q10 0 16 -7.5t7 -17.5t-2 -18.5t-10 -9.5q-8 -2 -28.5 -4t-40.5 -4q-25 -3 -52 -5q0 -73 1 -133v-50.5v-45v-35v-18.5q-1 -12 -13.5 -18.5t-27 -6.5t-26.5 6
t-13 18q0 5 -1 19.5t-1.5 35t-1.5 44.5l-2 48q-2 57 -4 127q-18 -2 -35 -3l-28 -2t-20 0q-6 0 -9.5 7.5t-3.5 16.5t3 17t10 9t20 2.5t27 3.5q16 2 34 5q-1 41 -1 75v95zM131 570q-2 3 -8.5 13t-14 21.5t-14 22t-7.5 13.5q0 3 4 7.5t9.5 7.5t11 4t7.5 -2l29 -49l25 52
q2 5 8.5 5t13 -3t10.5 -8t2 -9q-2 -3 -7 -13.5t-10 -22.5t-9.5 -22.5t-5.5 -12.5q-2 -3 -8.5 -5t-14 -2.5t-14 0t-7.5 3.5z" />
    <glyph glyph-name="Tbar" unicode="&#x166;" horiz-adv-x="446" 
d="M384 452q7 1 12 -8t6 -20t-3 -20.5t-13 -10.5l-99 -8q1 -48 3.5 -104.5t4 -107.5t3 -87.5t1.5 -43.5q0 -18 -19 -26.5t-41.5 -10t-41.5 4.5t-19 18q-1 25 -1 67t0.5 91t1 99t0.5 92l-119 -9q-8 0 -11 10.5t-3 24t3.5 25t8.5 12.5q4 0 39 1.5t83 3.5q0 8 0.5 16t0.5 13v11
q-36 -2 -66 -4q-26 -2 -50.5 -3t-33.5 -1t-13 11t-3.5 24.5t4 25t9.5 11.5q4 0 32 1.5t68.5 2.5t87 2.5t87.5 2.5t70.5 2t35.5 2q9 0 15 -9t7 -20t-3.5 -20.5t-15.5 -10.5t-33 -2.5t-43 -3.5q-26 -2 -53 -4q1 -5 1 -12v-14t1 -18q38 2 65.5 2.5t33.5 1.5z" />
    <glyph glyph-name="tbar" unicode="&#x167;" horiz-adv-x="348" 
d="M282 264q8 1 12.5 -7t5 -17.5t-1.5 -18.5t-7 -10l-90 -9v-60.5v-58.5v-46.5v-24.5q-1 -12 -13.5 -18.5t-27 -6.5t-26.5 6t-13 18q0 6 -1 25t-2 44.5t-2 55.5t-2 57l-66 -7q-5 0 -8 7.5t-3 16.5t2.5 17t7.5 9l65 8q-1 9 -1 16.5v12.5v12q-18 -2 -35 -3l-28 -2t-20 0
q-6 0 -9.5 7.5t-3.5 16.5t3 17t10 9t20 2.5t27 3.5q16 2 34 5q-1 41 -1 75v95q0 10 14 15.5t31 5.5t31.5 -5t14.5 -17q0 -8 0.5 -34t0.5 -54v-72q25 2 46 4q18 2 36 3.5t28 2.5q10 0 16 -7.5t7 -17.5t-2 -18.5t-10 -9.5q-8 -2 -28.5 -4t-40.5 -4q-25 -3 -52 -5v-40z" />
    <glyph glyph-name="Utilde" unicode="&#x168;" horiz-adv-x="438" 
d="M30 526q0 20 20 29.5t44 9.5t43.5 -8t19.5 -23q0 -9 0.5 -47t3 -90t8.5 -109.5t17.5 -106t30 -80t44.5 -31.5q31 0 48 33t24.5 83t8 109t-2 112t-6 91.5t-3.5 48.5q0 14 11 19.5t23.5 4t23 -7.5t10.5 -14q0 -4 3 -29t5 -62.5t3 -84.5t-2 -96t-11.5 -95.5t-25.5 -84
t-43.5 -61.5t-64.5 -27q-57 -5 -96.5 18.5t-66 66t-41 98.5t-21.5 115t-7.5 116.5t0.5 102.5zM179 621q3 7 8 15.5t11.5 16t14 13t15.5 6.5q9 0 16.5 -5.5t13 -12.5t10 -13t8.5 -6q6 0 10 7.5t9 12.5q6 7 17 2t7 -16q-5 -12 -19.5 -27t-31.5 -16q-7 0 -12.5 4t-10 9t-9 9.5
t-10.5 4.5q-8 0 -14.5 -10t-10.5 -13q-2 -1 -6.5 -0.5t-9 3t-7 6.5t0.5 10z" />
    <glyph glyph-name="utilde" unicode="&#x169;" horiz-adv-x="368" 
d="M29 328q0 12 10 17t22.5 5t23 -5t10.5 -12q2 -66 2.5 -116.5t3.5 -84.5t11.5 -51.5t28.5 -17.5q21 0 34 20.5t21 57.5t12.5 86t8.5 106q1 12 17 18.5t35 7t35 -6t16 -21.5q0 -85 3 -171.5t8 -163.5q1 -9 -10.5 -15.5t-25.5 -9t-26 -1t-13 7.5q-2 11 -5 26.5t-5 29.5
q-3 16 -6 33q-14 -18 -31 -31q-14 -11 -34.5 -20t-43.5 -7q-27 2 -46 15t-31.5 48t-18.5 96.5t-6 159.5zM93 429q3 7 8 15.5t11.5 16t14 13t15.5 6.5q9 0 16.5 -5.5t13 -12.5t10 -13t8.5 -6q6 0 10 7.5t9 12.5q6 7 17 2t7 -16q-5 -12 -19.5 -27t-31.5 -16q-7 0 -12.5 4
t-10 9t-9 9.5t-10.5 4.5q-8 0 -14.5 -10t-10.5 -13q-2 -1 -6.5 -0.5t-9 3t-7 6.5t0.5 10z" />
    <glyph glyph-name="Umacron" unicode="&#x16a;" horiz-adv-x="438" 
d="M30 526q0 20 20 29.5t44 9.5t43.5 -8t19.5 -23q0 -9 0.5 -47t3 -90t8.5 -109.5t17.5 -106t30 -80t44.5 -31.5q31 0 48 33t24.5 83t8 109t-2 112t-6 91.5t-3.5 48.5q0 14 11 19.5t23.5 4t23 -7.5t10.5 -14q0 -4 3 -29t5 -62.5t3 -84.5t-2 -96t-11.5 -95.5t-25.5 -84
t-43.5 -61.5t-64.5 -27q-57 -5 -96.5 18.5t-66 66t-41 98.5t-21.5 115t-7.5 116.5t0.5 102.5zM291 654q6 0 9 -6t3.5 -13.5t-1.5 -14.5t-8 -7l-106 -3q-6 0 -8.5 5.5t-3 12.5t2 13t7.5 6z" />
    <glyph glyph-name="umacron" unicode="&#x16b;" horiz-adv-x="368" 
d="M29 328q0 12 10 17t22.5 5t23 -5t10.5 -12q2 -66 2.5 -116.5t3.5 -84.5t11.5 -51.5t28.5 -17.5q21 0 34 20.5t21 57.5t12.5 86t8.5 106q1 12 17 18.5t35 7t35 -6t16 -21.5q0 -85 3 -171.5t8 -163.5q1 -9 -10.5 -15.5t-25.5 -9t-26 -1t-13 7.5q-2 11 -5 26.5t-5 29.5
q-3 16 -6 33q-14 -18 -31 -31q-14 -11 -34.5 -20t-43.5 -7q-27 2 -46 15t-31.5 48t-18.5 96.5t-6 159.5zM212 440q6 0 9 -6t3.5 -13.5t-1.5 -14.5t-8 -7l-106 -3q-6 0 -8.5 5.5t-3 12.5t2 13t7.5 6z" />
    <glyph glyph-name="Ubreve" unicode="&#x16c;" horiz-adv-x="438" 
d="M30 526q0 20 20 29.5t44 9.5t43.5 -8t19.5 -23q0 -9 0.5 -47t3 -90t8.5 -109.5t17.5 -106t30 -80t44.5 -31.5q31 0 48 33t24.5 83t8 109t-2 112t-6 91.5t-3.5 48.5q0 14 11 19.5t23.5 4t23 -7.5t10.5 -14q0 -4 3 -29t5 -62.5t3 -84.5t-2 -96t-11.5 -95.5t-25.5 -84
t-43.5 -61.5t-64.5 -27q-57 -5 -96.5 18.5t-66 66t-41 98.5t-21.5 115t-7.5 116.5t0.5 102.5zM181 659q0 4 6.5 6.5t14 3.5t14 -0.5t6.5 -5.5q2 -14 3.5 -23t11.5 -10q9 -1 16 7t7 26q0 4 6.5 6.5t14 2.5t14 -2t6.5 -7q-1 -12 -4 -23.5t-10 -20.5t-19 -14.5t-31 -5.5
q-17 0 -28 5.5t-17 14t-8 19t-3 21.5z" />
    <glyph glyph-name="ubreve" unicode="&#x16d;" horiz-adv-x="368" 
d="M29 328q0 12 10 17t22.5 5t23 -5t10.5 -12q2 -66 2.5 -116.5t3.5 -84.5t11.5 -51.5t28.5 -17.5q21 0 34 20.5t21 57.5t12.5 86t8.5 106q1 12 17 18.5t35 7t35 -6t16 -21.5q0 -85 3 -171.5t8 -163.5q1 -9 -10.5 -15.5t-25.5 -9t-26 -1t-13 7.5q-2 11 -5 26.5t-5 29.5
q-3 16 -6 33q-14 -18 -31 -31q-14 -11 -34.5 -20t-43.5 -7q-27 2 -46 15t-31.5 48t-18.5 96.5t-6 159.5zM107 445q0 4 6.5 6.5t14 3.5t14 -0.5t6.5 -5.5q2 -14 3.5 -23t11.5 -10q9 -1 16 7t7 26q0 4 6.5 6.5t14 2.5t14 -2t6.5 -7q-1 -12 -4 -23.5t-10 -20.5t-19 -14.5
t-31 -5.5q-17 0 -28 5.5t-17 14t-8 19t-3 21.5z" />
    <glyph glyph-name="Uring" unicode="&#x16e;" horiz-adv-x="438" 
d="M30 526q0 20 20 29.5t44 9.5t43.5 -8t19.5 -23q0 -9 0.5 -47t3 -90t8.5 -109.5t17.5 -106t30 -80t44.5 -31.5q31 0 48 33t24.5 83t8 109t-2 112t-6 91.5t-3.5 48.5q0 14 11 19.5t23.5 4t23 -7.5t10.5 -14q0 -4 3 -29t5 -62.5t3 -84.5t-2 -96t-11.5 -95.5t-25.5 -84
t-43.5 -61.5t-64.5 -27q-57 -5 -96.5 18.5t-66 66t-41 98.5t-21.5 115t-7.5 116.5t0.5 102.5zM243 673q22 4 37 -6.5t19 -26t-4.5 -31t-33.5 -19.5q-35 -6 -50 4.5t-15.5 26.5t12.5 31.5t35 20.5zM250 645q-8 -2 -12.5 -7.5t-4 -11.5t5.5 -9.5t17 -1.5q8 2 11 7.5t1.5 11
t-6.5 9.5t-12 2z" />
    <glyph glyph-name="uring" unicode="&#x16f;" horiz-adv-x="368" 
d="M29 328q0 12 10 17t22.5 5t23 -5t10.5 -12q2 -66 2.5 -116.5t3.5 -84.5t11.5 -51.5t28.5 -17.5q21 0 34 20.5t21 57.5t12.5 86t8.5 106q1 12 17 18.5t35 7t35 -6t16 -21.5q0 -85 3 -171.5t8 -163.5q1 -9 -10.5 -15.5t-25.5 -9t-26 -1t-13 7.5q-2 11 -5 26.5t-5 29.5
q-3 16 -6 33q-14 -18 -31 -31q-14 -11 -34.5 -20t-43.5 -7q-27 2 -46 15t-31.5 48t-18.5 96.5t-6 159.5zM157 459q22 4 37 -6.5t19 -26t-4.5 -31t-33.5 -19.5q-35 -6 -50 4.5t-15.5 26.5t12.5 31.5t35 20.5zM164 431q-8 -2 -12.5 -7.5t-4 -11.5t5.5 -9.5t17 -1.5q8 2 11 7.5
t1.5 11t-6.5 9.5t-12 2z" />
    <glyph glyph-name="Uhungarumlaut" unicode="&#x170;" horiz-adv-x="438" 
d="M30 526q0 20 20 29.5t44 9.5t43.5 -8t19.5 -23q0 -9 0.5 -47t3 -90t8.5 -109.5t17.5 -106t30 -80t44.5 -31.5q31 0 48 33t24.5 83t8 109t-2 112t-6 91.5t-3.5 48.5q0 14 11 19.5t23.5 4t23 -7.5t10.5 -14q0 -4 3 -29t5 -62.5t3 -84.5t-2 -96t-11.5 -95.5t-25.5 -84
t-43.5 -61.5t-64.5 -27q-57 -5 -96.5 18.5t-66 66t-41 98.5t-21.5 115t-7.5 116.5t0.5 102.5zM274 691q2 6 10.5 8t17.5 0.5t15 -6t4 -10.5l-28 -87q-2 -4 -8 -6t-12.5 -1.5t-11.5 3t-4 8.5zM209 691q1 6 9 8.5t16 2t14 -4.5t4 -10l-30 -99q-2 -4 -8.5 -6t-13 -2t-11.5 3
t-4 8z" />
    <glyph glyph-name="uhungarumlaut" unicode="&#x171;" horiz-adv-x="368" 
d="M29 328q0 12 10 17t22.5 5t23 -5t10.5 -12q2 -66 2.5 -116.5t3.5 -84.5t11.5 -51.5t28.5 -17.5q21 0 34 20.5t21 57.5t12.5 86t8.5 106q1 12 17 18.5t35 7t35 -6t16 -21.5q0 -85 3 -171.5t8 -163.5q1 -9 -10.5 -15.5t-25.5 -9t-26 -1t-13 7.5q-2 11 -5 26.5t-5 29.5
q-3 16 -6 33q-14 -18 -31 -31q-14 -11 -34.5 -20t-43.5 -7q-27 2 -46 15t-31.5 48t-18.5 96.5t-6 159.5zM195 477q2 6 10.5 8t17.5 0.5t15 -6t4 -10.5l-28 -87q-2 -4 -8 -6t-12.5 -1.5t-11.5 3t-4 8.5zM130 477q1 6 9 8.5t16 2t14 -4.5t4 -10l-30 -99q-2 -4 -8.5 -6t-13 -2
t-11.5 3t-4 8z" />
    <glyph glyph-name="Uogonek" unicode="&#x172;" horiz-adv-x="438" 
d="M30 526q0 20 20 29.5t44 9.5t43.5 -8t19.5 -23q0 -9 0.5 -47t3 -90t8.5 -109.5t17.5 -106t30 -80t44.5 -31.5q31 0 48 33t24.5 83t8 109t-2 112t-6 91.5t-3.5 48.5q0 14 11 19.5t23.5 4t23 -7.5t10.5 -14q0 -5 3.5 -38t6 -82.5t1.5 -108t-9.5 -114.5t-27 -102.5
t-51.5 -72.5q-13 -9 -26 -21.5t-23 -25.5t-14.5 -24.5t0.5 -19.5q3 -7 14 -8.5t24 0t25 4.5t18 5t10.5 -4t6.5 -14.5t1.5 -16.5t-5.5 -9q-5 -2 -21 -6t-35.5 -5.5t-39.5 2t-33 18.5q-10 10 -13 23.5t-1.5 27t6.5 27t11 25.5q-49 5 -82.5 33t-55.5 71.5t-34.5 97t-18 109.5
t-6 109.5t0.5 96.5z" />
    <glyph glyph-name="uogonek" unicode="&#x173;" horiz-adv-x="368" 
d="M29 328q0 12 10 17t22.5 5t23 -5t10.5 -12q2 -66 2.5 -116.5t3.5 -84.5t11.5 -51.5t28.5 -17.5q21 0 34 20.5t21 57.5t12.5 86t8.5 106q1 12 17 18.5t35 7t35 -6t16 -21.5q0 -85 3 -171.5t8 -163.5v-3q-1 -5 -9 -16t-16 -24t-13.5 -25t-0.5 -20q4 -7 14.5 -9t23.5 -0.5
t25 4.5t18 5t10.5 -4t6.5 -14.5t1.5 -16t-4.5 -8.5q-5 -2 -21 -6.5t-36 -6t-40 2t-33 18.5q-9 11 -12.5 24t-2.5 27t5 28t9 26q-2 11 -5 26.5t-5 29.5q-3 16 -6 33q-14 -18 -31 -31q-14 -11 -34.5 -20t-43.5 -7q-27 2 -46 15t-31.5 48t-18.5 96.5t-6 159.5z" />
    <glyph glyph-name="Wcircumflex" unicode="&#x174;" horiz-adv-x="692" 
d="M21 537q-1 10 8.5 17.5t24.5 11.5t33 5t34 -1.5t27 -8t13 -14.5t6 -46t9 -87t11 -106t11.5 -103.5t10.5 -79t7 -32.5t9.5 21.5t17 58.5t20.5 79t21 82.5t18 69.5t11 40q5 14 23 20t38.5 5.5t38.5 -6t22 -14.5q3 -6 12.5 -31.5t22 -59.5t26.5 -72.5t26 -70.5t20.5 -53
t10.5 -21q1 0 5.5 28.5t10 70.5t11.5 92t11 94.5t8.5 76.5t4.5 38q1 9 11.5 12t22.5 1t22 -8.5t9 -15.5q0 -6 -4 -40.5t-9.5 -84.5t-12.5 -108t-13.5 -110.5t-12 -93t-7.5 -54.5q-1 -6 -14.5 -13.5t-30 -12.5t-32.5 -4.5t-22 11.5t-18.5 42.5t-27.5 73t-30.5 87t-28.5 83
t-22 62t-10 24.5q-3 -1 -12.5 -28.5t-21.5 -69t-25 -90t-24 -91t-18.5 -72t-8.5 -32.5q-5 -14 -27.5 -20.5t-48.5 -5.5t-49.5 8.5t-29.5 21.5q-4 9 -11 39.5t-15.5 74t-18 97t-18 108.5t-15 108.5t-10.5 96.5zM394 630q1 -3 8 -13t14.5 -21.5t13.5 -22t7 -13.5t-3 -7.5
t-9.5 -7.5t-11 -4t-7.5 2l-29 49l-25 -52q-2 -5 -8.5 -5t-13 3t-10.5 7.5t-2 9.5q2 3 6.5 13.5t9.5 22.5t9.5 22.5t5.5 12.5q2 3 9 4.5t14.5 2.5t14 0.5t7.5 -3.5z" />
    <glyph glyph-name="wcircumflex" unicode="&#x175;" horiz-adv-x="548" 
d="M29 350q0 11 14.5 16.5t32 6.5t32.5 -3.5t16 -14.5q4 -81 8.5 -140.5t11.5 -100.5q16 47 31 89q13 35 26.5 71t24.5 54q4 7 19 11t32 4t32 -4t19 -13q14 -32 30 -77.5t30 -87t25 -70.5t15 -29q3 0 5 20.5t3 51t1 67t-0.5 69t-1.5 56t-1 28.5q0 9 12.5 13t27.5 3.5
t28 -5.5t14 -14q3 -44 3 -93t-2.5 -95t-7.5 -83.5t-12 -59.5q-3 -9 -16.5 -16t-30 -9.5t-32.5 0.5t-23 14q-24 38 -46 83.5t-39.5 85t-29 65.5t-13.5 26t-8.5 -15.5t-15.5 -40t-19 -54t-19.5 -57.5t-17.5 -51t-12 -35q-5 -11 -20.5 -16.5t-33 -6t-32.5 4t-18 13.5
q-6 15 -13 42.5t-14 69t-11 98t-4 129.5zM292 481q1 -3 8 -13t14.5 -21.5t13.5 -22t7 -13.5t-3 -7.5t-9.5 -7.5t-11 -4t-7.5 2l-29 49l-25 -52q-2 -5 -8.5 -5t-13 3t-10.5 7.5t-2 9.5q2 3 6.5 13.5t9.5 22.5t9.5 22.5t5.5 12.5q2 3 9 4.5t14.5 2.5t14 0.5t7.5 -3.5z" />
    <glyph glyph-name="Ycircumflex" unicode="&#x176;" horiz-adv-x="464" 
d="M20 514q-10 14 -2.5 30t22.5 27t32.5 13t26.5 -11q6 -9 16.5 -25.5t24 -38t29 -46t30.5 -49.5q35 -58 76 -126l117 272q4 9 15 10.5t21.5 -3t17 -13.5t0.5 -21l-126 -309v-91q0 -36 0.5 -70.5t0.5 -47.5t-17.5 -21.5t-39 -10.5t-39 3.5t-17.5 20.5q-1 15 0 45.5t2 62.5
q1 36 3 78q-46 80 -86 147q-17 28 -34 56.5t-31.5 52t-25.5 41t-16 24.5zM272 695q1 -3 8 -13t14.5 -21.5t13.5 -22t7 -13.5t-3 -7.5t-9.5 -7.5t-11 -4t-7.5 2l-29 49l-25 -52q-2 -5 -8.5 -5t-13 3t-10.5 7.5t-2 9.5q2 3 6.5 13.5t9.5 22.5t9.5 22.5t5.5 12.5q2 3 9 4.5
t14.5 2.5t14 0.5t7.5 -3.5z" />
    <glyph glyph-name="ycircumflex" unicode="&#x177;" horiz-adv-x="384" 
d="M23 310q-4 8 3 17t17.5 14t21 5.5t14.5 -7.5q34 -78 68.5 -136.5t58.5 -83.5q6 20 13.5 50.5t16 65t17 70.5t17.5 68q3 12 19 14t32.5 -2.5t29.5 -13.5t10 -19q-5 -21 -15.5 -60.5t-25 -89t-31 -105t-33.5 -109t-33 -100t-29 -78.5q-5 -13 -17.5 -13.5t-25.5 5.5
t-22 15.5t-7 17.5q9 29 16 51.5t14 44.5t14.5 47.5t17.5 60.5q-29 33 -70 97.5t-91 173.5zM195 481q1 -3 8 -13t14.5 -21.5t13.5 -22t7 -13.5t-3 -7.5t-9.5 -7.5t-11 -4t-7.5 2l-29 49l-25 -52q-2 -5 -8.5 -5t-13 3t-10.5 7.5t-2 9.5q2 3 6.5 13.5t9.5 22.5t9.5 22.5
t5.5 12.5q2 3 9 4.5t14.5 2.5t14 0.5t7.5 -3.5z" />
    <glyph glyph-name="Ydieresis" unicode="&#x178;" horiz-adv-x="464" 
d="M20 514q-10 14 -2.5 30t22.5 27t32.5 13t26.5 -11q6 -9 16.5 -25.5t24 -38t29 -46t30.5 -49.5q35 -58 76 -126l117 272q4 9 15 10.5t21.5 -3t17 -13.5t0.5 -21l-126 -309v-91q0 -36 0.5 -70.5t0.5 -47.5t-17.5 -21.5t-39 -10.5t-39 3.5t-17.5 20.5q-1 15 0 45.5t2 62.5
q1 36 3 78q-46 80 -86 147q-17 28 -34 56.5t-31.5 52t-25.5 41t-16 24.5zM212 634q0 8 6 14.5t15 6.5q8 0 14.5 -6.5t6.5 -14.5q0 -9 -6.5 -15t-14.5 -6q-9 0 -15 6t-6 15zM271 634q0 8 5.5 14.5t13.5 6.5t14 -6.5t6 -14.5t-6 -13.5t-14 -5.5q-19 0 -19 19z" />
    <glyph glyph-name="Zacute" unicode="&#x179;" horiz-adv-x="473" 
d="M37 507q-8 1 -12 11t-3.5 21.5t5 21t13.5 9.5q6 0 30 -0.5t57 -1.5t70.5 -2.5t71.5 -3t59.5 -2.5t34.5 -1q14 0 25.5 -10t18.5 -23t8.5 -27.5t-4.5 -23.5q-4 -6 -23.5 -38.5t-46 -77t-56.5 -95t-55 -94t-40.5 -72t-13.5 -29.5t19 1l42.5 5t55.5 7.5t57 8t47.5 7t28.5 4.5
q11 2 20 -6.5t12.5 -20t0 -22.5t-15.5 -14q-8 -2 -33.5 -5.5t-59 -8t-71.5 -9t-72 -8t-59.5 -6t-34.5 -3.5q-12 -1 -23 6.5t-19.5 18.5t-12 25t1.5 27q4 12 17 36t31 56t39.5 68.5t43.5 73t42 70.5t36 60t25 41.5t8 15.5q-2 1 -20 1.5t-45.5 1.5t-59.5 1.5t-61 1.5t-50.5 2
t-28.5 2zM226 710q4 5 12 3t14.5 -8t9.5 -13t-2 -12l-73 -63q-5 -3 -10.5 -2t-9.5 4.5t-5 9t3 10.5z" />
    <glyph glyph-name="zacute" unicode="&#x17a;" horiz-adv-x="403" 
d="M33 350q16 4 46 8t61.5 6.5t59.5 3t40 -0.5q17 -2 30.5 -13t21 -25.5t8.5 -29.5t-6 -25q-8 -10 -22.5 -29t-31.5 -42t-35 -47t-32.5 -44t-24 -34t-8.5 -17t18.5 -0.5t46.5 8.5t68.5 14t83.5 16q11 2 18.5 -7.5t10.5 -22.5t1 -24.5t-9 -12.5q-38 -8 -87.5 -15.5t-97 -13.5
t-85 -8.5t-50.5 -0.5q-12 2 -20.5 12.5t-12.5 25t-1.5 30t12.5 27.5q4 5 18 23t32 41.5t37.5 49.5t35.5 48.5t25.5 37.5t7.5 17q-3 2 -23.5 -1t-45.5 -8l-47.5 -9.5t-29.5 -5.5q-8 -1 -14 9t-8.5 22.5t-0.5 23.5t10 13zM169 488q4 5 12 3t14.5 -8t9.5 -13t-2 -12l-73 -63
q-5 -3 -10.5 -2t-9.5 4.5t-5 9t3 10.5z" />
    <glyph glyph-name="Zdotaccent" unicode="&#x17b;" horiz-adv-x="473" 
d="M37 507q-8 1 -12 11t-3.5 21.5t5 21t13.5 9.5q6 0 30 -0.5t57 -1.5t70.5 -2.5t71.5 -3t59.5 -2.5t34.5 -1q14 0 25.5 -10t18.5 -23t8.5 -27.5t-4.5 -23.5q-4 -6 -23.5 -38.5t-46 -77t-56.5 -95t-55 -94t-40.5 -72t-13.5 -29.5t19 1l42.5 5t55.5 7.5t57 8t47.5 7t28.5 4.5
q11 2 20 -6.5t12.5 -20t0 -22.5t-15.5 -14q-8 -2 -33.5 -5.5t-59 -8t-71.5 -9t-72 -8t-59.5 -6t-34.5 -3.5q-12 -1 -23 6.5t-19.5 18.5t-12 25t1.5 27q4 12 17 36t31 56t39.5 68.5t43.5 73t42 70.5t36 60t25 41.5t8 15.5q-2 1 -20 1.5t-45.5 1.5t-59.5 1.5t-61 1.5t-50.5 2
t-28.5 2zM193 641q0 8 6 14.5t15 6.5q8 0 14.5 -6.5t6.5 -14.5q0 -9 -6.5 -15t-14.5 -6q-9 0 -15 6t-6 15z" />
    <glyph glyph-name="zdotaccent" unicode="&#x17c;" horiz-adv-x="403" 
d="M33 350q16 4 46 8t61.5 6.5t59.5 3t40 -0.5q17 -2 30.5 -13t21 -25.5t8.5 -29.5t-6 -25q-8 -10 -22.5 -29t-31.5 -42t-35 -47t-32.5 -44t-24 -34t-8.5 -17t18.5 -0.5t46.5 8.5t68.5 14t83.5 16q11 2 18.5 -7.5t10.5 -22.5t1 -24.5t-9 -12.5q-38 -8 -87.5 -15.5t-97 -13.5
t-85 -8.5t-50.5 -0.5q-12 2 -20.5 12.5t-12.5 25t-1.5 30t12.5 27.5q4 5 18 23t32 41.5t37.5 49.5t35.5 48.5t25.5 37.5t7.5 17q-3 2 -23.5 -1t-45.5 -8l-47.5 -9.5t-29.5 -5.5q-8 -1 -14 9t-8.5 22.5t-0.5 23.5t10 13zM115 427q0 8 6 14.5t15 6.5q8 0 14.5 -6.5t6.5 -14.5
q0 -9 -6.5 -15t-14.5 -6q-9 0 -15 6t-6 15z" />
    <glyph glyph-name="Zcaron" unicode="&#x17d;" horiz-adv-x="473" 
d="M37 507q-8 1 -12 11t-3.5 21.5t5 21t13.5 9.5q6 0 30 -0.5t57 -1.5t70.5 -2.5t71.5 -3t59.5 -2.5t34.5 -1q14 0 25.5 -10t18.5 -23t8.5 -27.5t-4.5 -23.5q-4 -6 -23.5 -38.5t-46 -77t-56.5 -95t-55 -94t-40.5 -72t-13.5 -29.5t19 1l42.5 5t55.5 7.5t57 8t47.5 7t28.5 4.5
q11 2 20 -6.5t12.5 -20t0 -22.5t-15.5 -14q-8 -2 -33.5 -5.5t-59 -8t-71.5 -9t-72 -8t-59.5 -6t-34.5 -3.5q-12 -1 -23 6.5t-19.5 18.5t-12 25t1.5 27q4 12 17 36t31 56t39.5 68.5t43.5 73t42 70.5t36 60t25 41.5t8 15.5q-2 1 -20 1.5t-45.5 1.5t-59.5 1.5t-61 1.5t-50.5 2
t-28.5 2zM189 606q-2 3 -8.5 13t-14 21.5t-14 22t-7.5 13.5q0 3 4 7.5t9.5 7.5t11 4t7.5 -2l29 -49l25 52q2 5 8.5 5t13 -3t10.5 -8t2 -9q-2 -3 -7 -13.5t-10 -22.5t-9.5 -22.5t-5.5 -12.5q-2 -3 -8.5 -5t-14 -2.5t-14 0t-7.5 3.5z" />
    <glyph glyph-name="zcaron" unicode="&#x17e;" horiz-adv-x="403" 
d="M33 350q16 4 46 8t61.5 6.5t59.5 3t40 -0.5q17 -2 30.5 -13t21 -25.5t8.5 -29.5t-6 -25q-8 -10 -22.5 -29t-31.5 -42t-35 -47t-32.5 -44t-24 -34t-8.5 -17t18.5 -0.5t46.5 8.5t68.5 14t83.5 16q11 2 18.5 -7.5t10.5 -22.5t1 -24.5t-9 -12.5q-38 -8 -87.5 -15.5t-97 -13.5
t-85 -8.5t-50.5 -0.5q-12 2 -20.5 12.5t-12.5 25t-1.5 30t12.5 27.5q4 5 18 23t32 41.5t37.5 49.5t35.5 48.5t25.5 37.5t7.5 17q-3 2 -23.5 -1t-45.5 -8l-47.5 -9.5t-29.5 -5.5q-8 -1 -14 9t-8.5 22.5t-0.5 23.5t10 13zM125 400q-2 3 -8.5 13t-14 21.5t-14 22t-7.5 13.5
q0 3 4 7.5t9.5 7.5t11 4t7.5 -2l29 -49l25 52q2 5 8.5 5t13 -3t10.5 -8t2 -9q-2 -3 -7 -13.5t-10 -22.5t-9.5 -22.5t-5.5 -12.5q-2 -3 -8.5 -5t-14 -2.5t-14 0t-7.5 3.5z" />
    <glyph glyph-name="florin" unicode="&#x192;" horiz-adv-x="336" 
d="M285 332q8 0 14 -8t8 -18.5t0.5 -19.5t-8.5 -10q-5 -2 -29.5 -7t-56.5 -11q8 -44 12.5 -87t-1.5 -78.5t-25 -60t-56 -31.5q-24 -5 -45 2.5t-36.5 23t-26.5 36t-15 41.5q-1 7 6 14.5t16.5 11.5t19 3t13.5 -11q5 -13 9.5 -25t9.5 -20t11.5 -12t15.5 0q8 3 9.5 17.5
t-1.5 37.5t-9 53t-12 64q-19 -3 -32 -5t-17 -1q-7 0 -12 9t-7 20.5t0.5 21.5t11.5 12l44 8q-8 49 -11.5 98t5 88.5t31.5 65t68 28.5q30 2 53.5 -18t39 -47.5t24 -56t8.5 -43.5q0 -8 -7.5 -13.5t-17 -7t-18 1.5t-10.5 11q-10 49 -25.5 80.5t-33.5 28.5q-17 -3 -22.5 -20.5
t-3.5 -44.5t9 -61.5t15 -72.5q31 5 54.5 8.5t30.5 4.5z" />
    <glyph glyph-name="AEacute" unicode="&#x1fc;" horiz-adv-x="647" 
d="M149 139l-39 -132q-3 -6 -19 -8.5t-32.5 0t-28 10.5t-7.5 22q2 7 8.5 32t15.5 61.5t20.5 81.5t23 91t23 90.5t21 80t16.5 59.5t9 29q5 10 27.5 18t48.5 10.5t48.5 -2t28.5 -19.5v-1q1 -5 2 -8.5t2 -7.5t1 -8q64 3 118 6q22 1 44.5 2.5t41 2.5t31.5 1.5t17 0.5
q7 0 13 -7.5t8.5 -17.5t-1 -19t-15.5 -10q-6 -1 -20.5 -2.5t-33.5 -3.5t-41 -4l-44 -4q-52 -4 -114 -10l12 -177q59 9 107 17q21 3 41 6t37.5 5.5t29.5 4.5t17 2q9 0 14.5 -9.5t7 -21t-1.5 -21.5t-10 -11q-4 0 -16.5 -2t-30 -4.5t-39 -6t-42.5 -6.5q-51 -8 -112 -18l15 -141
q65 8 119 15q23 3 45 6t40.5 5.5t31.5 4t17 2.5q7 1 12.5 -6.5t7.5 -18t0 -20t-9 -11.5q-35 -11 -81.5 -21t-92.5 -18.5t-84 -14.5t-54 -8q-12 -2 -21.5 -0.5t-12.5 9.5q-2 6 -6.5 44.5t-9.5 95.5q-34 -6 -61 -9.5t-43 -5.5zM248 212q-6 61 -10.5 124t-8.5 114l-67 -249
q13 2 28 4q13 2 28 3.5t30 3.5zM335 702q4 5 12 3t14.5 -8t9.5 -13t-2 -12l-73 -63q-5 -3 -10.5 -2t-9.5 4.5t-5 9t3 10.5z" />
    <glyph glyph-name="aeacute" unicode="&#x1fd;" horiz-adv-x="599" 
d="M332 141q8 -37 22.5 -54.5t33 -20.5t38.5 4.5t39 20t35.5 27t28.5 24.5q8 7 19 2.5t18.5 -14t10 -22t-6.5 -20.5t-28 -21.5t-44.5 -26t-55.5 -21.5t-59 -9q-19 0 -39 5v-2q2 -12 -8.5 -20t-25.5 -11.5t-28.5 -3t-17.5 5.5t-7.5 16.5t-6 23.5t-4 21l-1.5 9
q-12 -15 -41 -26.5t-62.5 -9t-64.5 24.5t-46 75q-16 59 -4.5 104t40 74t69 40.5t83.5 2.5l-1 62q0 8 12.5 13t28.5 5.5t29.5 -4.5t15.5 -17q1 -3 3.5 -19.5t5.5 -52.5q10 6 20 11t22 7q35 8 64.5 -0.5t51.5 -23.5t35.5 -31.5t16.5 -24.5q7 -17 3.5 -31.5t-23.5 -22.5
q-3 -1 -17 -6.5t-33 -13t-40.5 -16t-39.5 -15.5t-29.5 -12t-11.5 -6zM226 268q-3 1 -14.5 6t-27.5 8t-34.5 0t-34.5 -18q-14 -13 -21 -33.5t-7 -43t5.5 -44.5t16.5 -38t26 -24t33 -2q31 10 44.5 37t16.5 57.5t0.5 57.5t-3.5 37zM461 251q1 0 -3.5 7t-14 14.5t-26 12.5
t-39.5 1q-17 -3 -26.5 -16t-14 -26.5t-5.5 -25l-1 -11.5l9.5 3t24 8t31 10.5t31 10.5t24 8.5t10.5 3.5zM261 547q4 5 12 3t14.5 -8t9.5 -13t-2 -12l-73 -63q-5 -3 -10.5 -2t-9.5 4.5t-5 9t3 10.5z" />
    <glyph glyph-name="Oslashacute" unicode="&#x1fe;" horiz-adv-x="499" 
d="M218 566q53 9 102 -19l11 40q2 7 13.5 9t24.5 -1t22.5 -10.5t6.5 -17.5l-19 -69q32 -37 55.5 -87.5t34 -105t7 -108.5t-23.5 -97.5t-58.5 -73t-98.5 -35.5q-15 -2 -29.5 -2.5t-28.5 1.5l-15 -55q-2 -9 -12.5 -11t-22 1.5t-19.5 10.5t-6 16l14 49q-69 22 -109 80t-44 151
q-4 73 8.5 131.5t38.5 100.5t63.5 67.5t84.5 34.5zM239 496q-24 -8 -42.5 -34.5t-30.5 -63t-16.5 -79.5t-1 -85t16 -79.5t35.5 -62.5l103 392q-32 22 -64 12zM294 56q38 4 63 24t38 50.5t15.5 68t-3 77t-18.5 77.5t-31 69l-102 -364q8 -2 17.5 -2.5t20.5 0.5zM245 708
q4 5 12 3t14.5 -8t9.5 -13t-2 -12l-73 -63q-5 -3 -10.5 -2t-9.5 4.5t-5 9t3 10.5z" />
    <glyph glyph-name="oslashacute" unicode="&#x1ff;" 
d="M177 464q4 5 12 3t14.5 -8t9.5 -13t-2 -12l-73 -63q-5 -3 -10.5 -2t-9.5 4.5t-5 9t3 10.5zM87 309q26 17 54 19.5t56 -5.5q10 27 16 36q4 6 14 6t20.5 -3t17.5 -8t6 -10l-18 -49q27 -20 47 -47t28 -57q9 -36 -2.5 -69t-37 -57t-62 -36.5t-76.5 -6.5l-14 -37
q-2 -6 -9.5 -7t-15.5 1t-14 6.5t-5 10.5q0 4 3 15t8 27q-38 20 -58 56t-22.5 76t13.5 77.5t51 61.5zM176 88q20 -6 38 -1.5t31.5 16.5t20.5 29t6 34q-2 20 -12.5 39.5t-26.5 34.5zM143 264q-13 -6 -21.5 -22.5t-11 -36.5t1.5 -42.5t17 -40.5q11 37 23.5 75t24.5 72
q-9 1 -17.5 0t-16.5 -5z" />
    <glyph glyph-name="Scommaaccent" unicode="&#x218;" horiz-adv-x="476" 
d="M361 554q13 -5 16 -18t-0.5 -25.5t-12 -21t-18.5 -5.5q-44 12 -83 14.5t-67.5 -6t-43.5 -28.5t-11 -53q2 -24 27 -42.5t61 -35.5t76.5 -34.5t74.5 -40.5t55.5 -53.5t18.5 -72.5t-28.5 -69.5t-64 -42t-85.5 -18t-92 2t-83 19t-59 33.5q-10 9 -6.5 23.5t13 27t21.5 19.5
t21 1q36 -24 81 -38t86.5 -16t73 8t40.5 33q10 25 -12 41.5t-60 31t-84.5 30.5t-87 41t-66.5 62.5t-23 93.5q2 37 20 65t45.5 46.5t62 29t69.5 13.5t67.5 -1t57.5 -14zM220 -76q0 16 11 27t26 11q16 0 28 -11t12 -27q2 -26 -10 -50.5t-24 -40.5q-3 -5 -8.5 -4.5t-10 4
t-6.5 8.5t1 11q7 11 10.5 23t-4.5 14q-13 4 -19 13.5t-6 21.5z" />
    <glyph glyph-name="scommaaccent" unicode="&#x219;" 
d="M240 315q-45 23 -81 26.5t-48 -23.5q-8 -17 -0.5 -32t21 -26.5t28 -19.5t20.5 -11q24 -11 51 -23t50.5 -29t38 -40.5t13.5 -57.5q-2 -37 -20.5 -62t-46.5 -38.5t-62 -16t-67.5 4t-63 22.5t-47.5 39q-6 8 -1.5 19t14 19.5t20.5 11t19 -6.5q19 -25 47.5 -37t54.5 -12t45 11
t21 32q1 19 -12.5 33t-36 26t-49.5 23.5t-52 26.5t-44 34t-25 47q-5 23 1.5 48.5t20.5 46.5q19 30 48.5 42t61.5 11t63 -13t55 -30q4 -4 3 -13.5t-6 -18.5t-14 -14t-20 1zM137 -106q0 16 11 27t26 11q16 0 28 -11t12 -27q2 -26 -10 -50.5t-24 -40.5q-3 -5 -8.5 -4.5t-10 4
t-6.5 8.5t1 11q7 11 10.5 23t-4.5 14q-13 4 -19 13.5t-6 21.5z" />
    <glyph glyph-name="dotlessj" unicode="&#x237;" horiz-adv-x="165" 
d="M26 354q-1 12 12.5 18t30 6.5t30.5 -4t16 -13.5q1 -6 3 -33t4.5 -67.5t4 -90t2 -101t-1 -100.5t-5.5 -89q-4 -31 -19 -53t-37.5 -35t-48.5 -17t-50.5 1.5t-45.5 20t-33 38.5q-4 8 1 17.5t13.5 16t18 7.5t14.5 -6q15 -23 34 -32t36 -7.5t30.5 12t18.5 28.5q7 29 5 85.5
t-8 125t-13.5 140.5t-11.5 132z" />
    <glyph glyph-name="circumflex" unicode="&#x2c6;" horiz-adv-x="135" 
d="M84 481q1 -3 8 -13t14.5 -21.5t13.5 -22t7 -13.5t-3 -7.5t-9.5 -7.5t-11 -4t-7.5 2l-29 49l-25 -52q-2 -5 -8.5 -5t-13 3t-10.5 7.5t-2 9.5q2 3 6.5 13.5t9.5 22.5t9.5 22.5t5.5 12.5q2 3 9 4.5t14.5 2.5t14 0.5t7.5 -3.5z" />
    <glyph glyph-name="caron" unicode="&#x2c7;" horiz-adv-x="134" 
d="M51 385q-2 3 -8.5 13t-14 21.5t-14 22t-7.5 13.5q0 3 4 7.5t9.5 7.5t11 4t7.5 -2l29 -49l25 52q2 5 8.5 5t13 -3t10.5 -8t2 -9q-2 -3 -7 -13.5t-10 -22.5t-9.5 -22.5t-5.5 -12.5q-2 -3 -8.5 -5t-14 -2.5t-14 0t-7.5 3.5z" />
    <glyph glyph-name="breve" unicode="&#x2d8;" horiz-adv-x="134" 
d="M7 445q0 4 6.5 6.5t14 3.5t14 -0.5t6.5 -5.5q2 -14 3.5 -23t11.5 -10q9 -1 16 7t7 26q0 4 6.5 6.5t14 2.5t14 -2t6.5 -7q-1 -12 -4 -23.5t-10 -20.5t-19 -14.5t-31 -5.5q-17 0 -28 5.5t-17 14t-8 19t-3 21.5z" />
    <glyph glyph-name="dotaccent" unicode="&#x2d9;" horiz-adv-x="56" 
d="M7 420q0 8 6 14.5t15 6.5q8 0 14.5 -6.5t6.5 -14.5q0 -9 -6.5 -15t-14.5 -6q-9 0 -15 6t-6 15z" />
    <glyph glyph-name="ring" unicode="&#x2da;" horiz-adv-x="119" 
d="M55 459q22 4 37 -6.5t19 -26t-4.5 -31t-33.5 -19.5q-35 -6 -50 4.5t-15.5 26.5t12.5 31.5t35 20.5zM62 431q-8 -2 -12.5 -7.5t-4 -11.5t5.5 -9.5t17 -1.5q8 2 11 7.5t1.5 11t-6.5 9.5t-12 2z" />
    <glyph glyph-name="ogonek" unicode="&#x2db;" horiz-adv-x="164" 
d="M47 23q3 4 11.5 4t17 -3t15 -8.5t5.5 -11.5q-1 -5 -9 -16t-16 -24t-13.5 -25.5t-0.5 -20.5q3 -7 14 -8.5t24 0t25 4.5t18 5t10.5 -4t6.5 -14.5t1.5 -16.5t-5.5 -9q-5 -2 -21 -6t-35.5 -5.5t-39.5 2t-33 18.5q-15 17 -14 39.5t8.5 43.5t17.5 37t13 19z" />
    <glyph glyph-name="tilde" unicode="&#x2dc;" horiz-adv-x="157" 
d="M9 429q3 7 8 15.5t11.5 16t14 13t15.5 6.5q9 0 16.5 -5.5t13 -12.5t10 -13t8.5 -6q6 0 10 7.5t9 12.5q6 7 17 2t7 -16q-5 -12 -19.5 -27t-31.5 -16q-7 0 -12.5 4t-10 9t-9 9.5t-10.5 4.5q-8 0 -14.5 -10t-10.5 -13q-2 -1 -6.5 -0.5t-9 3t-7 6.5t0.5 10z" />
    <glyph glyph-name="hungarumlaut" unicode="&#x2dd;" horiz-adv-x="151" 
d="M96 477q2 6 10.5 8t17.5 0.5t15 -6t4 -10.5l-28 -87q-2 -4 -8 -6t-12.5 -1.5t-11.5 3t-4 8.5zM31 477q1 6 9 8.5t16 2t14 -4.5t4 -10l-30 -99q-2 -4 -8.5 -6t-13 -2t-11.5 3t-4 8z" />
    <glyph glyph-name="uni1E02" unicode="&#x1e02;" horiz-adv-x="425" 
d="M31 564q0 12 15 18.5t33 8t33.5 -3.5t17.5 -15q1 -6 1.5 -15.5t1.5 -17.5l2 -20q49 3 89 -7q17 -5 34.5 -12.5t32.5 -19.5t25.5 -29.5t15.5 -41.5q5 -23 -0.5 -44t-13.5 -38q-10 -19 -23 -36q25 -4 46 -15q18 -9 35 -25t24 -41q7 -29 -0.5 -55.5t-26 -50t-45 -43.5
t-56.5 -35t-67.5 -23.5t-72 -11.5t-61 -2t-33.5 6t-8.5 14t0.5 17.5t6.5 14.5t10.5 6q5 -1 7.5 -1h4.5q1 0 1 1q-9 65 -15 146q-5 69 -9.5 163t-4.5 208zM137 458q0 -14 1 -30q1 -14 1.5 -31t2.5 -35l6 -96q39 16 68 37q25 18 43.5 42.5t12.5 55.5q-4 23 -21.5 35.5
t-39 18.5t-42.5 6t-32 -3zM156 196q-1 -1 1.5 -24t6.5 -52q4 -33 10 -75q22 3 55.5 17t62.5 36t45.5 48.5t4.5 54.5q-6 15 -20 21.5t-32.5 7.5t-39 -3t-39 -9.5t-33.5 -11.5t-22 -10zM181 598q0 8 6 14.5t15 6.5q8 0 14.5 -6.5t6.5 -14.5q0 -9 -6.5 -15t-14.5 -6q-9 0 -15 6
t-6 15z" />
    <glyph glyph-name="uni1E03" unicode="&#x1e03;" 
d="M36 549q0 13 14.5 18.5t32.5 4.5t32.5 -7t14.5 -15q0 -5 -1 -22t-3 -40.5t-4 -49.5t-4 -47.5t-2.5 -35.5t0.5 -14q34 8 72 2t70.5 -25.5t54 -51.5t21.5 -76q0 -36 -24 -62.5t-56 -45t-64 -30t-49 -15.5q2 -9 4 -21t2 -20q0 -9 -12 -15.5t-27 -8t-28 1.5t-14 13
q-20 114 -24 251t-6 311zM130 92q39 9 71 23q27 12 49.5 30t23.5 44q0 19 -13 39t-32.5 34.5t-43 21t-42.5 -0.5q-14 -5 -17.5 -35t-2.5 -65q1 -40 7 -91zM186 423q0 8 6 14.5t15 6.5q8 0 14.5 -6.5t6.5 -14.5q0 -9 -6.5 -15t-14.5 -6q-9 0 -15 6t-6 15z" />
    <glyph glyph-name="uni1E0A" unicode="&#x1e0a;" horiz-adv-x="484" 
d="M41 566q-1 18 17.5 24.5t40.5 5.5t40 -6.5t18 -11.5l2 -37q13 0 34.5 -1.5t46.5 -6t51 -11.5t49 -17q55 -27 86 -76.5t36 -106.5t-17.5 -114t-73.5 -99q-33 -27 -72.5 -47t-83 -34t-89 -24.5t-90.5 -18.5q-12 -2 -17 5t-5 16.5t4 18t10 9.5q9 2 16 3.5t12 2.5l10 2
q-7 134 -12 244q-2 47 -4.5 93t-4.5 84.5t-3 66t-1 36.5zM194 73q25 8 54 20.5t59 37.5q26 20 42 50t22.5 63.5t4 68.5t-14 65.5t-31 54.5t-47.5 36q-53 22 -118 19zM211 620q0 8 6 14.5t15 6.5q8 0 14.5 -6.5t6.5 -14.5q0 -9 -6.5 -15t-14.5 -6q-9 0 -15 6t-6 15z" />
    <glyph glyph-name="uni1E0B" unicode="&#x1e0b;" horiz-adv-x="346" 
d="M201 546q0 15 16 23.5t35.5 9.5t36 -5t16.5 -20q0 -11 0.5 -54t1 -101.5t1 -125t1 -125t1 -101.5t0.5 -53q0 -6 -11 -11.5t-24 -7.5t-25 0.5t-13 12.5q-2 8 -3 19.5t-2.5 22.5t-2 19.5t-0.5 11.5q-18 -4 -40 -6.5t-45.5 -0.5t-45.5 9.5t-39 23.5t-27 41.5t-9 63.5
q0 33 11 58t28.5 43t38.5 29.5t41.5 17.5t38.5 7t29 -1q-1 16 -2.5 44t-3 57.5t-2.5 56.5t-1 42zM213 295q-29 4 -51.5 -4t-37.5 -24.5t-21.5 -39.5t-4.5 -49q3 -48 33 -68.5t93 -1.5l-6 92q-2 35 -3.5 64t-1.5 31zM108 404q0 8 6 14.5t15 6.5q8 0 14.5 -6.5t6.5 -14.5
q0 -9 -6.5 -15t-14.5 -6q-9 0 -15 6t-6 15z" />
    <glyph glyph-name="uni1E1E" unicode="&#x1e1e;" horiz-adv-x="421" 
d="M22 548q-1 14 15.5 20t37 6t38.5 -5.5t20 -12.5q2 -8 2 -11v-5l16 1l40 2.5t53.5 3t55.5 3t46 2.5t26 2q11 1 17.5 -7.5t8 -19.5t-1.5 -21t-10 -11q-6 -1 -26.5 -3.5t-47.5 -5.5t-57.5 -6t-56 -6t-42.5 -4.5l-17 -1.5l1.5 -23.5t3.5 -51.5t4 -51.5l2 -23.5l14 1.5t35.5 4
t47.5 5t49.5 5t41.5 5t25 3.5q9 1 15.5 -7t8.5 -19t-0.5 -20.5t-11.5 -10.5q-5 0 -16.5 -2t-27.5 -4t-35.5 -4.5t-38.5 -5.5q-46 -6 -100 -14l1.5 -16.5t4 -41.5t5 -54.5t5 -56t4 -46t1.5 -23.5q0 -7 -12 -11t-28.5 -5t-32.5 1.5t-24 10.5q-7 7 -14 45.5t-13 94t-11.5 119
t-10 121t-7 100t-3.5 55.5zM189 634q0 8 6 14.5t15 6.5q8 0 14.5 -6.5t6.5 -14.5q0 -9 -6.5 -15t-14.5 -6q-9 0 -15 6t-6 15z" />
    <glyph glyph-name="uni1E1F" unicode="&#x1e1f;" horiz-adv-x="342" 
d="M238 387q-5 24 -10.5 45t-12.5 36t-15.5 23t-20.5 5q-6 -2 -9.5 -11t-6 -23.5t-3 -32.5t-0.5 -37q0 -44 4 -98q32 6 59 11q23 4 44.5 7.5t29.5 4.5q7 1 12.5 -6.5t8.5 -17.5t2 -19t-7 -11q-6 -3 -29 -8t-47.5 -10.5t-44.5 -10l-20 -4.5l4 -26t9.5 -59.5t11 -66.5t8.5 -48
q2 -10 -11 -16t-29.5 -7.5t-31.5 1.5t-17 10q-2 4 -3.5 14.5t-3 25t-3.5 31.5t-4 35q-4 41 -9 92q-13 -2 -24 -5q-10 -2 -21 -4.5t-20 -4.5t-14 6.5t-6.5 19.5t1 21t8.5 12t17.5 4.5t22.5 5.5q13 4 28 7q-2 20 -3.5 48.5t-0.5 59t5.5 61t14 55.5t25 40.5t39.5 17.5
q30 2 53.5 -18t39.5 -47.5t24.5 -56t8.5 -43.5q0 -8 -7.5 -13.5t-17 -7t-18 1.5t-10.5 11zM145 634q0 8 6 14.5t15 6.5q8 0 14.5 -6.5t6.5 -14.5q0 -9 -6.5 -15t-14.5 -6q-9 0 -15 6t-6 15z" />
    <glyph glyph-name="uni1E40" unicode="&#x1e40;" horiz-adv-x="617" 
d="M38 555q0 9 17 16.5t38.5 8.5t42 -7t28.5 -30q3 -7 10.5 -25.5t18 -44.5t23.5 -56.5t26 -61.5q30 -73 67 -161q37 96 68 174l26 66t23.5 60.5t18.5 46.5t11 25q5 12 17.5 16t26 2t23.5 -9t11 -17q0 -7 4.5 -43t10.5 -88t13.5 -113.5t14 -118.5t11.5 -103t7 -67
q0 -6 -9.5 -11.5t-22 -8t-24.5 -1t-15 10.5q-2 6 -7 34.5t-11.5 67.5t-13 83t-12.5 81.5t-9.5 62.5t-3.5 27q-1 -3 -9 -21t-19.5 -43.5t-25.5 -55.5t-26 -57t-21.5 -47t-12.5 -26q-3 -7 -12.5 -12t-21 -6.5t-21.5 0.5t-15 10q-3 3 -9.5 14t-16 26.5t-21 34t-22.5 37.5
q-26 44 -58 98q-4 -79 -8 -143q-2 -27 -3.5 -54.5t-2.5 -50t-2 -38t-1 -20.5q0 -10 -16 -15.5t-34.5 -6.5t-34 4.5t-15.5 17.5q1 110 0.5 195t-1.5 150t-1.5 112t1.5 81zM276 638q0 8 6 14.5t15 6.5q8 0 14.5 -6.5t6.5 -14.5q0 -9 -6.5 -15t-14.5 -6q-9 0 -15 6t-6 15z" />
    <glyph glyph-name="uni1E41" unicode="&#x1e41;" horiz-adv-x="551" 
d="M29 386q1 16 14 22t28 5.5t27.5 -7t13.5 -16.5q1 -6 1.5 -16t1.5 -19t1.5 -15t0.5 -5t5 10t15 19t26 18.5t39 7.5q24 -2 40 -16.5t26 -31.5q11 -20 17 -46q10 19 23 34q11 13 28.5 23.5t41.5 9.5q37 -1 61.5 -25.5t40.5 -61t24.5 -79t12 -80t4.5 -65t1 -32.5q1 -8 -9 -14
t-22.5 -7.5t-24 1.5t-14.5 14q-2 7 -4.5 31t-6 56t-9.5 67.5t-14 66t-19 50.5t-26 22q-18 2 -27.5 -11.5t-14 -37.5t-4.5 -55t1.5 -63.5t3 -64t1.5 -55.5q0 -10 -14 -15.5t-30.5 -5.5t-31 5t-15.5 16q-1 7 0 28t1.5 50.5t0 63t-4.5 65.5q-8 61 -25.5 83.5t-36 16.5t-32 -36
t-12.5 -73q1 -20 1.5 -41t1 -46.5t2 -57t4.5 -72.5q1 -11 -14.5 -18.5t-35 -9t-36 3t-17.5 16.5q-1 8 -2 37t-2.5 69t-3 86t-2.5 87t-1 72.5t1 41.5zM271 444q0 8 6 14.5t15 6.5q8 0 14.5 -6.5t6.5 -14.5q0 -9 -6.5 -15t-14.5 -6q-9 0 -15 6t-6 15z" />
    <glyph glyph-name="uni1E56" unicode="&#x1e56;" horiz-adv-x="446" 
d="M21 559q-1 19 16.5 28t38.5 9.5t39 -6.5t18 -20q0 -8 0.5 -15.5t0.5 -12.5v-12q80 -1 142 -17q27 -7 52.5 -17.5t46 -25.5t33.5 -36t15 -49q1 -30 -9 -55.5t-28 -48t-41.5 -40.5t-48.5 -33q-58 -34 -133 -59q2 -40 5 -73q2 -29 4 -55.5t4 -34.5q1 -8 -18.5 -14.5
t-43 -8.5t-43.5 1t-21 14q-1 10 -3.5 63.5t-6 134t-8.5 180t-11 203.5zM142 470l1 -11t2 -29t2.5 -41t3.5 -47l8 -128q60 19 106 44q19 10 37.5 23t32.5 27.5t21.5 31t4.5 34.5q-4 24 -21.5 40t-42 27t-52 16.5t-50.5 8.5t-38 3.5zM201 634q0 8 6 14.5t15 6.5q8 0 14.5 -6.5
t6.5 -14.5q0 -9 -6.5 -15t-14.5 -6q-9 0 -15 6t-6 15z" />
    <glyph glyph-name="uni1E57" unicode="&#x1e57;" horiz-adv-x="341" 
d="M29 391q0 9 11.5 15t25.5 8t26.5 -2.5t13.5 -16.5l6 -96q8 11 19 20q9 8 22 14.5t28 8.5t36.5 -3.5t42 -22.5t37 -48t21.5 -79q5 -51 -7.5 -83t-32.5 -50t-42.5 -24.5t-37.5 -6.5t-27.5 2.5t-21.5 6.5q-11 4 -19 9q5 -62 9 -113q1 -22 3 -43t3.5 -39t2.5 -31t1 -17
q0 -9 -12.5 -15t-28.5 -8t-30 0.5t-15 10.5q-2 8 -4 38t-4.5 73t-5.5 95t-7 104t-6.5 101t-3.5 89t-1.5 67t-1.5 36zM124 106q0 -1 6 -6t16.5 -10.5t23.5 -10t28 -3.5q26 2 43 24.5t15 65.5q-1 22 -5.5 45t-13.5 41t-22 29t-31 10q-15 -1 -28.5 -12.5t-22 -34.5t-11.5 -57.5
t2 -80.5zM166 421q0 8 6 14.5t15 6.5q8 0 14.5 -6.5t6.5 -14.5q0 -9 -6.5 -15t-14.5 -6q-9 0 -15 6t-6 15z" />
    <glyph glyph-name="uni1E60" unicode="&#x1e60;" horiz-adv-x="476" 
d="M361 554q13 -5 16 -18t-0.5 -25.5t-12 -21t-18.5 -5.5q-44 12 -83 14.5t-67.5 -6t-43.5 -28.5t-11 -53q2 -24 27 -42.5t61 -35.5t76.5 -34.5t74.5 -40.5t55.5 -53.5t18.5 -72.5t-28.5 -69.5t-64 -42t-85.5 -18t-92 2t-83 19t-59 33.5q-10 9 -6.5 23.5t13 27t21.5 19.5
t21 1q36 -24 81 -38t86.5 -16t73 8t40.5 33q10 25 -12 41.5t-60 31t-84.5 30.5t-87 41t-66.5 62.5t-23 93.5q2 37 20 65t45.5 46.5t62 29t69.5 13.5t67.5 -1t57.5 -14zM193 647q0 8 6 14.5t15 6.5q8 0 14.5 -6.5t6.5 -14.5q0 -9 -6.5 -15t-14.5 -6q-9 0 -15 6t-6 15z" />
    <glyph glyph-name="uni1E61" unicode="&#x1e61;" 
d="M240 315q-45 23 -81 26.5t-48 -23.5q-8 -17 -0.5 -32t21 -26.5t28 -19.5t20.5 -11q24 -11 51 -23t50.5 -29t38 -40.5t13.5 -57.5q-2 -37 -20.5 -62t-46.5 -38.5t-62 -16t-67.5 4t-63 22.5t-47.5 39q-6 8 -1.5 19t14 19.5t20.5 11t19 -6.5q19 -25 47.5 -37t54.5 -12t45 11
t21 32q1 19 -12.5 33t-36 26t-49.5 23.5t-52 26.5t-44 34t-25 47q-5 23 1.5 48.5t20.5 46.5q19 30 48.5 42t61.5 11t63 -13t55 -30q4 -4 3 -13.5t-6 -18.5t-14 -14t-20 1zM132 487q0 8 6 14.5t15 6.5q8 0 14.5 -6.5t6.5 -14.5q0 -9 -6.5 -15t-14.5 -6q-9 0 -15 6t-6 15z" />
    <glyph glyph-name="uni1E6A" unicode="&#x1e6a;" horiz-adv-x="446" 
d="M409 562q9 0 15 -9t7 -20t-3.5 -20.5t-15.5 -10.5t-33 -2.5t-43 -3.5q-26 -2 -53 -4q4 -118 8 -214q1 -41 2.5 -81t3 -72.5t2 -55t0.5 -27.5q0 -18 -19 -26.5t-41.5 -10t-41.5 4.5t-19 18v50v66t0.5 75.5t0.5 77.5q1 89 2 188q-36 -2 -66 -4q-26 -2 -50.5 -3t-33.5 -1
t-13 11t-3.5 24.5t4 25t9.5 11.5q4 0 32 1.5t68.5 2.5t87 2.5t87.5 2.5t70.5 2t35.5 2zM209 634q0 8 6 14.5t15 6.5q8 0 14.5 -6.5t6.5 -14.5q0 -9 -6.5 -15t-14.5 -6q-9 0 -15 6t-6 15z" />
    <glyph glyph-name="uni1E6B" unicode="&#x1e6b;" horiz-adv-x="348" 
d="M108 511q0 10 14 15.5t31 5.5t31.5 -5t14.5 -17q0 -8 0.5 -34t0.5 -54v-72q25 2 46 4q18 2 36 3.5t28 2.5q10 0 16 -7.5t7 -17.5t-2 -18.5t-10 -9.5q-8 -2 -28.5 -4t-40.5 -4q-25 -3 -52 -5q0 -73 1 -133v-50.5v-45v-35v-18.5q-1 -12 -13.5 -18.5t-27 -6.5t-26.5 6
t-13 18q0 5 -1 19.5t-1.5 35t-1.5 44.5l-2 48q-2 57 -4 127q-18 -2 -35 -3l-28 -2t-20 0q-6 0 -9.5 7.5t-3.5 16.5t3 17t10 9t20 2.5t27 3.5q16 2 34 5q-1 41 -1 75v95zM133 609q0 8 6 14.5t15 6.5q8 0 14.5 -6.5t6.5 -14.5q0 -9 -6.5 -15t-14.5 -6q-9 0 -15 6t-6 15z" />
    <glyph glyph-name="Wgrave" unicode="&#x1e80;" horiz-adv-x="692" 
d="M21 537q-1 10 8.5 17.5t24.5 11.5t33 5t34 -1.5t27 -8t13 -14.5t6 -46t9 -87t11 -106t11.5 -103.5t10.5 -79t7 -32.5t9.5 21.5t17 58.5t20.5 79t21 82.5t18 69.5t11 40q5 14 23 20t38.5 5.5t38.5 -6t22 -14.5q3 -6 12.5 -31.5t22 -59.5t26.5 -72.5t26 -70.5t20.5 -53
t10.5 -21q1 0 5.5 28.5t10 70.5t11.5 92t11 94.5t8.5 76.5t4.5 38q1 9 11.5 12t22.5 1t22 -8.5t9 -15.5q0 -6 -4 -40.5t-9.5 -84.5t-12.5 -108t-13.5 -110.5t-12 -93t-7.5 -54.5q-1 -6 -14.5 -13.5t-30 -12.5t-32.5 -4.5t-22 11.5t-18.5 42.5t-27.5 73t-30.5 87t-28.5 83
t-22 62t-10 24.5q-3 -1 -12.5 -28.5t-21.5 -69t-25 -90t-24 -91t-18.5 -72t-8.5 -32.5q-5 -14 -27.5 -20.5t-48.5 -5.5t-49.5 8.5t-29.5 21.5q-4 9 -11 39.5t-15.5 74t-18 97t-18 108.5t-15 108.5t-10.5 96.5zM329 599q-4 4 -0.5 10.5t10 12.5t14 8.5t11.5 -2.5t11 -14.5
t14.5 -19.5t13.5 -18.5t9 -11.5q2 -3 -0.5 -8t-7.5 -8.5t-10.5 -5t-8.5 2.5z" />
    <glyph glyph-name="wgrave" unicode="&#x1e81;" horiz-adv-x="548" 
d="M29 350q0 11 14.5 16.5t32 6.5t32.5 -3.5t16 -14.5q4 -81 8.5 -140.5t11.5 -100.5q16 47 31 89q13 35 26.5 71t24.5 54q4 7 19 11t32 4t32 -4t19 -13q14 -32 30 -77.5t30 -87t25 -70.5t15 -29q3 0 5 20.5t3 51t1 67t-0.5 69t-1.5 56t-1 28.5q0 9 12.5 13t27.5 3.5
t28 -5.5t14 -14q3 -44 3 -93t-2.5 -95t-7.5 -83.5t-12 -59.5q-3 -9 -16.5 -16t-30 -9.5t-32.5 0.5t-23 14q-24 38 -46 83.5t-39.5 85t-29 65.5t-13.5 26t-8.5 -15.5t-15.5 -40t-19 -54t-19.5 -57.5t-17.5 -51t-12 -35q-5 -11 -20.5 -16.5t-33 -6t-32.5 4t-18 13.5
q-6 15 -13 42.5t-14 69t-11 98t-4 129.5zM235 436q-4 4 -0.5 10.5t10 12.5t14 8.5t11.5 -2.5t11 -14.5t14.5 -19.5t13.5 -18.5t9 -11.5q2 -3 -0.5 -8t-7.5 -8.5t-10.5 -5t-8.5 2.5z" />
    <glyph glyph-name="Wacute" unicode="&#x1e82;" horiz-adv-x="692" 
d="M21 537q-1 10 8.5 17.5t24.5 11.5t33 5t34 -1.5t27 -8t13 -14.5t6 -46t9 -87t11 -106t11.5 -103.5t10.5 -79t7 -32.5t9.5 21.5t17 58.5t20.5 79t21 82.5t18 69.5t11 40q5 14 23 20t38.5 5.5t38.5 -6t22 -14.5q3 -6 12.5 -31.5t22 -59.5t26.5 -72.5t26 -70.5t20.5 -53
t10.5 -21q1 0 5.5 28.5t10 70.5t11.5 92t11 94.5t8.5 76.5t4.5 38q1 9 11.5 12t22.5 1t22 -8.5t9 -15.5q0 -6 -4 -40.5t-9.5 -84.5t-12.5 -108t-13.5 -110.5t-12 -93t-7.5 -54.5q-1 -6 -14.5 -13.5t-30 -12.5t-32.5 -4.5t-22 11.5t-18.5 42.5t-27.5 73t-30.5 87t-28.5 83
t-22 62t-10 24.5q-3 -1 -12.5 -28.5t-21.5 -69t-25 -90t-24 -91t-18.5 -72t-8.5 -32.5q-5 -14 -27.5 -20.5t-48.5 -5.5t-49.5 8.5t-29.5 21.5q-4 9 -11 39.5t-15.5 74t-18 97t-18 108.5t-15 108.5t-10.5 96.5zM386 651q4 5 12 3t14.5 -8t9.5 -13t-2 -12l-73 -63
q-5 -3 -10.5 -2t-9.5 4.5t-5 9t3 10.5z" />
    <glyph glyph-name="wacute" unicode="&#x1e83;" horiz-adv-x="548" 
d="M29 350q0 11 14.5 16.5t32 6.5t32.5 -3.5t16 -14.5q4 -81 8.5 -140.5t11.5 -100.5q16 47 31 89q13 35 26.5 71t24.5 54q4 7 19 11t32 4t32 -4t19 -13q14 -32 30 -77.5t30 -87t25 -70.5t15 -29q3 0 5 20.5t3 51t1 67t-0.5 69t-1.5 56t-1 28.5q0 9 12.5 13t27.5 3.5
t28 -5.5t14 -14q3 -44 3 -93t-2.5 -95t-7.5 -83.5t-12 -59.5q-3 -9 -16.5 -16t-30 -9.5t-32.5 0.5t-23 14q-24 38 -46 83.5t-39.5 85t-29 65.5t-13.5 26t-8.5 -15.5t-15.5 -40t-19 -54t-19.5 -57.5t-17.5 -51t-12 -35q-5 -11 -20.5 -16.5t-33 -6t-32.5 4t-18 13.5
q-6 15 -13 42.5t-14 69t-11 98t-4 129.5zM285 481q4 5 12 3t14.5 -8t9.5 -13t-2 -12l-73 -63q-5 -3 -10.5 -2t-9.5 4.5t-5 9t3 10.5z" />
    <glyph glyph-name="Wdieresis" unicode="&#x1e84;" horiz-adv-x="692" 
d="M21 537q-1 10 8.5 17.5t24.5 11.5t33 5t34 -1.5t27 -8t13 -14.5t6 -46t9 -87t11 -106t11.5 -103.5t10.5 -79t7 -32.5t9.5 21.5t17 58.5t20.5 79t21 82.5t18 69.5t11 40q5 14 23 20t38.5 5.5t38.5 -6t22 -14.5q3 -6 12.5 -31.5t22 -59.5t26.5 -72.5t26 -70.5t20.5 -53
t10.5 -21q1 0 5.5 28.5t10 70.5t11.5 92t11 94.5t8.5 76.5t4.5 38q1 9 11.5 12t22.5 1t22 -8.5t9 -15.5q0 -6 -4 -40.5t-9.5 -84.5t-12.5 -108t-13.5 -110.5t-12 -93t-7.5 -54.5q-1 -6 -14.5 -13.5t-30 -12.5t-32.5 -4.5t-22 11.5t-18.5 42.5t-27.5 73t-30.5 87t-28.5 83
t-22 62t-10 24.5q-3 -1 -12.5 -28.5t-21.5 -69t-25 -90t-24 -91t-18.5 -72t-8.5 -32.5q-5 -14 -27.5 -20.5t-48.5 -5.5t-49.5 8.5t-29.5 21.5q-4 9 -11 39.5t-15.5 74t-18 97t-18 108.5t-15 108.5t-10.5 96.5zM326 576q0 8 6 14.5t15 6.5q8 0 14.5 -6.5t6.5 -14.5
q0 -9 -6.5 -15t-14.5 -6q-9 0 -15 6t-6 15zM385 576q0 8 5.5 14.5t13.5 6.5t14 -6.5t6 -14.5t-6 -13.5t-14 -5.5q-19 0 -19 19z" />
    <glyph glyph-name="wdieresis" unicode="&#x1e85;" horiz-adv-x="548" 
d="M29 350q0 11 14.5 16.5t32 6.5t32.5 -3.5t16 -14.5q4 -81 8.5 -140.5t11.5 -100.5q16 47 31 89q13 35 26.5 71t24.5 54q4 7 19 11t32 4t32 -4t19 -13q14 -32 30 -77.5t30 -87t25 -70.5t15 -29q3 0 5 20.5t3 51t1 67t-0.5 69t-1.5 56t-1 28.5q0 9 12.5 13t27.5 3.5
t28 -5.5t14 -14q3 -44 3 -93t-2.5 -95t-7.5 -83.5t-12 -59.5q-3 -9 -16.5 -16t-30 -9.5t-32.5 0.5t-23 14q-24 38 -46 83.5t-39.5 85t-29 65.5t-13.5 26t-8.5 -15.5t-15.5 -40t-19 -54t-19.5 -57.5t-17.5 -51t-12 -35q-5 -11 -20.5 -16.5t-33 -6t-32.5 4t-18 13.5
q-6 15 -13 42.5t-14 69t-11 98t-4 129.5zM225 420q0 8 6 14.5t15 6.5q8 0 14.5 -6.5t6.5 -14.5q0 -9 -6.5 -15t-14.5 -6q-9 0 -15 6t-6 15zM284 420q0 8 5.5 14.5t13.5 6.5t14 -6.5t6 -14.5t-6 -13.5t-14 -5.5q-19 0 -19 19z" />
    <glyph glyph-name="Ygrave" unicode="&#x1ef2;" horiz-adv-x="464" 
d="M20 514q-10 14 -2.5 30t22.5 27t32.5 13t26.5 -11q6 -9 16.5 -25.5t24 -38t29 -46t30.5 -49.5q35 -58 76 -126l117 272q4 9 15 10.5t21.5 -3t17 -13.5t0.5 -21l-126 -309v-91q0 -36 0.5 -70.5t0.5 -47.5t-17.5 -21.5t-39 -10.5t-39 3.5t-17.5 20.5q-1 15 0 45.5t2 62.5
q1 36 3 78q-46 80 -86 147q-17 28 -34 56.5t-31.5 52t-25.5 41t-16 24.5zM214 650q-4 4 -0.5 10.5t10 12.5t14 8.5t11.5 -2.5t11 -14.5t14.5 -19.5t13.5 -18.5t9 -11.5q2 -3 -0.5 -8t-7.5 -8.5t-10.5 -5t-8.5 2.5z" />
    <glyph glyph-name="ygrave" unicode="&#x1ef3;" horiz-adv-x="384" 
d="M23 310q-4 8 3 17t17.5 14t21 5.5t14.5 -7.5q34 -78 68.5 -136.5t58.5 -83.5q6 20 13.5 50.5t16 65t17 70.5t17.5 68q3 12 19 14t32.5 -2.5t29.5 -13.5t10 -19q-5 -21 -15.5 -60.5t-25 -89t-31 -105t-33.5 -109t-33 -100t-29 -78.5q-5 -13 -17.5 -13.5t-25.5 5.5
t-22 15.5t-7 17.5q9 29 16 51.5t14 44.5t14.5 47.5t17.5 60.5q-29 33 -70 97.5t-91 173.5zM131 436q-4 4 -0.5 10.5t10 12.5t14 8.5t11.5 -2.5t11 -14.5t14.5 -19.5t13.5 -18.5t9 -11.5q2 -3 -0.5 -8t-7.5 -8.5t-10.5 -5t-8.5 2.5z" />
    <glyph glyph-name="quoteleft" unicode="&#x2018;" horiz-adv-x="121" 
d="M100.001 357.002q0 -15.999 -10.999 -26.498t-24.998 -10.499q-15.999 0 -27.999 10.499q-11.999 10.499 -12.999 26.498q-2 26.999 10 51.4971q11.999 24.499 23.998 39.498q4 4.99902 9.49902 4.49902q5.5 -0.5 10 -3.99902q4.5 -3.5 6.49902 -8.5
q2 -5 -1.99902 -10.999q-7 -11 -10 -22.499t4 -13.499q24.998 -8.99902 24.998 -35.998z" />
    <glyph glyph-name="quoteright" unicode="&#x2019;" horiz-adv-x="121" 
d="M22 416q0 16 11 26.5t25 10.5q16 0 28 -10.5t13 -26.5q2 -27 -10 -51.5t-24 -39.5q-4 -5 -9.5 -4.5t-10 4t-6.5 8.5t2 11q7 11 10 22.5t-4 13.5q-25 9 -25 36z" />
    <glyph glyph-name="quotedblleft" unicode="&#x201c;" horiz-adv-x="210" 
d="M99 357q0 -16 -11 -26.5t-25 -10.5q-16 0 -28 10.5t-13 26.5q-2 27 10 51.5t24 39.5q4 4 9.5 4t10 -3.5t6.5 -8.5t-2 -11q-7 -11 -10 -22.5t4 -13.5q25 -9 25 -36zM188 357q0 -14 -9.5 -23.5t-21.5 -9.5q-14 0 -25 9.5t-11 23.5q-2 23 8.5 44t21.5 35q3 4 8 4t8.5 -3
t5.5 -7.5t-1 -9.5q-6 -10 -9 -20.5t4 -12.5q11 -3 16 -11t5 -19z" />
    <glyph glyph-name="quotedblright" unicode="&#x201d;" horiz-adv-x="210" 
d="M109 415q0 16 11 26.5t26 10.5q16 0 28 -10.5t12 -26.5q2 -27 -10 -51.5t-24 -39.5q-3 -5 -8.5 -4.5t-10 4t-6.5 8.5t1 11q7 11 10 22.5t-4 13.5q-25 9 -25 36zM20 415q0 14 9.5 23.5t22.5 9.5q14 0 24.5 -9.5t10.5 -23.5q2 -23 -8 -44t-21 -35q-3 -4 -8 -4t-9 3t-6 7.5
t1 9.5q6 10 9 20.5t-3 12.5q-11 3 -16.5 11t-5.5 19z" />
    <glyph glyph-name="dagger" unicode="&#x2020;" horiz-adv-x="288" 
d="M247 378q8 -1 13 -9.5t5.5 -19t-2.5 -19t-10 -9.5q-5 -1 -26 -2t-48 -3q1 -56 1.5 -114.5t1.5 -113.5t1.5 -105t1 -88.5t0.5 -64v-32.5q0 -9 -13 -14.5t-29 -7t-30 2t-15 11.5q-4 28 -5.5 86t-1.5 130.5t1 152t3 152.5q-22 -1 -37.5 -1.5t-20.5 1.5q-7 1 -11 11t-4.5 21
t3.5 20.5t13 10.5q6 1 22 1.5t37 1.5q2 63 3 108.5t1 62.5q0 9 12 14.5t26 6.5t26 -4t12 -17q0 -33 0.5 -76t0.5 -94q24 1 43.5 0.5t25.5 -0.5z" />
    <glyph glyph-name="daggerdbl" unicode="&#x2021;" horiz-adv-x="302" 
d="M261 378q8 -1 13 -9.5t5.5 -19t-2 -19t-9.5 -9.5q-5 -1 -28.5 -2t-53.5 -3l3 -247h65q8 -1 13 -9.5t5.5 -19t-2 -19t-9.5 -9.5q-5 -1 -25 -2t-46 -3q1 -83 1.5 -140.5t0.5 -68.5q0 -9 -13 -14.5t-29 -7t-29.5 2t-14.5 11.5q-5 28 -6.5 84.5t-1.5 127.5q-20 -1 -34.5 -1
t-19.5 1q-7 2 -11 11.5t-4.5 21t3.5 21t13 10.5q5 0 19.5 0.5t33.5 1.5l4 243q-25 -1 -42.5 -1.5t-22.5 1.5q-7 1 -11 11t-4.5 21t3.5 20.5t13 10.5q6 1 24 1.5t42 1.5q2 63 3 108.5t1 62.5q0 9 12 14.5t26 6.5t26 -4t12 -17q0 -33 0.5 -76t0.5 -94q27 1 48.5 1t27.5 -1z
" />
    <glyph glyph-name="bullet" unicode="&#x2022;" horiz-adv-x="170" 
d="M22 223q0 26 18 44.5t44 18.5t45 -18.5t19 -44.5t-19 -44.5t-45 -18.5t-44 18.5t-18 44.5z" />
    <glyph glyph-name="ellipsis" unicode="&#x2026;" horiz-adv-x="356" 
d="M22 37q0 16 11 26.5t25 10.5q16 0 27.5 -10.5t11.5 -26.5q0 -15 -11.5 -26t-27.5 -11q-14 0 -25 11t-11 26zM141 37q0 16 10.5 26.5t25.5 10.5q16 0 27.5 -10.5t11.5 -26.5q0 -15 -11.5 -26t-27.5 -11q-15 0 -25.5 11t-10.5 26zM259 37q0 16 11 26.5t26 10.5
q16 0 27 -10.5t11 -26.5q0 -15 -11 -26t-27 -11q-15 0 -26 11t-11 26z" />
    <glyph glyph-name="perthousand" unicode="&#x2030;" horiz-adv-x="693" 
d="M441 256q1 -1 4 -1q-2 20 3.5 41t18 38.5t32 30t47.5 17.5q23 3 46 -3t41.5 -21t29 -39.5t7.5 -58.5q-2 -26 -17 -48t-37.5 -36t-50 -18t-54.5 7q0 -27 -13 -49q-16 -26 -44 -37t-56 -7.5t-51 20.5t-29 47q-6 28 1.5 52t24.5 40.5t42 23.5t55 1zM400 516q15 12 30 9.5
t25.5 -12t14.5 -22.5t-3 -22q-24 -30 -59.5 -76t-76.5 -100.5t-84 -114t-82 -116.5q-6 -10 -18.5 -10.5t-23.5 5.5t-16.5 16.5t2.5 24.5q44 77 90 147.5t85.5 126.5t70.5 94t45 50zM124 524q23 3 46 -2.5t41.5 -20.5t29 -39.5t7.5 -58.5q-2 -30 -22 -55t-49 -37.5t-62 -9.5
t-62 30q-21 20 -28 50t1.5 60t32.5 53.5t65 29.5zM555 329q-18 -4 -27.5 -23.5t-7 -39.5t17 -35t43.5 -10q27 4 35 24t2.5 40.5t-22.5 35t-41 8.5zM133 472q-18 -5 -27.5 -24t-7 -39.5t17 -35t43.5 -9.5q26 4 34.5 24t3 40.5t-22.5 35t-41 8.5zM382 149q10 -18 28.5 -22
t34 2.5t23 21.5t-3.5 36q-11 19 -28.5 22t-33 -4t-23 -22.5t2.5 -33.5z" />
    <glyph glyph-name="exclamdbl" unicode="&#x203c;" 
d="M211 537q1 14 16 21t33 6.5t33 -7t17 -19.5q1 -9 1 -40.5t0.5 -75.5t0 -93t-1 -92.5t-1 -74.5t-1.5 -38q-1 -11 -13 -18t-26.5 -8t-27.5 5t-15 21q-2 10 -3.5 42t-3.5 74.5t-3.5 90.5t-2.5 90.5t-1.5 74t-0.5 41.5zM305 36q2 -13 -8 -21t-23 -10.5t-25 1t-14 13.5
q-2 14 7.5 23.5t23 12.5t25.5 -1t14 -18zM44 559q0 14 15 20.5t33 6.5t33 -6.5t17 -19.5q1 -9 1.5 -43.5t0.5 -82t-0.5 -101.5t-0.5 -101.5t-1 -81.5t-1 -41q-1 -11 -13.5 -19t-27 -10.5t-27.5 2.5t-15 20q-2 10 -3.5 45t-3 82.5t-3.5 101.5t-3 101.5t-1.5 82t0.5 44.5z
M141 25q2 -15 -9.5 -24t-26.5 -12t-28.5 1t-15.5 15q-2 16 9 26.5t26 14.5t28.5 -1t16.5 -20z" />
    </font>
</defs>
</svg>
